
<svg xmlns="http://www.w3.org/2000/svg" version="1.1" xmlns:xlink="http://www.w3.org/1999/xlink" preserveAspectRatio="none" x="0px" y="0px" width="32px" height="32px" viewBox="0 0 32 32">
<defs>
<g id="star_border_0_Layer1_0_FILL">
<path fill="#FFFFFF" fill-opacity="0" stroke="none" d="
M 0 0
L 0 32 32 32 32 0 0 0 Z"/>
</g>

<g id="star_border_0_Layer0_0_FILL">
<path fill="#FFFFFF" stroke="none" d="
M 31.55 11.85
Q 31.29296875 11.6587890625 30.95 11.65
L 20.45 11.35 17 1.45
Q 16.8890625 1.1671875 16.6 0.95 16.3666015625 0.7951171875 16.05 0.8 15.733203125 0.7953125 15.45 0.95 15.210546875 1.16796875 15.1 1.45
L 11.55 11.35 1.05 11.65
Q 0.75703125 11.6587890625 0.5 11.85 0.246875 12.044140625 0.15 12.35 0.053125 12.6501953125 0.15 12.95 0.2458984375 13.2533203125 0.5 13.45
L 8.85 19.8 5.85 29.95
Q 5.753125 30.2759765625 5.85 30.55 5.96015625 30.86953125 6.2 31.05 6.4705078125 31.2416015625 6.75 31.25 7.1013671875 31.2546875 7.35 31.05
L 16.05 25.05 24.65 31.05
Q 24.9359375 31.2548828125 25.25 31.25 25.566015625 31.2423828125 25.8 31.05 26.0908203125 30.8693359375 26.2 30.55 26.296875 30.2759765625 26.2 29.95
L 23.2 19.8 31.55 13.45
Q 31.80390625 13.2533203125 31.9 12.95 31.9966796875 12.6501953125 31.9 12.35 31.803125 12.044140625 31.55 11.85
M 21.1 19.15
Q 21.0068359375 19.436328125 21.1 19.7
L 23.5 27.8 16.6 23
Q 16.3626953125 22.8484375 16.05 22.85 15.7375 22.8484375 15.45 23
L 8.55 27.8 10.95 19.7
Q 11.0431640625 19.436328125 10.95 19.15 10.8498046875 18.8466796875 10.6 18.65
L 3.95 13.55 12.3 13.35
Q 12.6419921875 13.337890625 12.9 13.15 13.148828125 12.967578125 13.25 12.65
L 16.05 4.8 18.8 12.65
Q 18.90078125 12.9666015625 19.15 13.15 19.4080078125 13.3376953125 19.7 13.35
L 28.1 13.55 21.45 18.65
Q 21.2 18.8466796875 21.1 19.15 Z"/>
</g>
</defs>

<g transform="matrix( 1, 0, 0, 1, 0,0) ">
<g transform="matrix( 1, 0, 0, 1, 0,0) ">
<use xlink:href="#star_border_0_Layer1_0_FILL"/>
</g>

<g transform="matrix( 1, 0, 0, 1, 0,0) ">
<use xlink:href="#star_border_0_Layer0_0_FILL"/>
</g>
</g>
</svg>
