
<svg xmlns="http://www.w3.org/2000/svg" version="1.1" xmlns:xlink="http://www.w3.org/1999/xlink" preserveAspectRatio="none" x="0px" y="0px" width="14px" height="14px" viewBox="0 0 14 14">
<defs>
<g id="iconWindowMinimize_0_Layer1_0_FILL">
<path fill="#FFFFFF" fill-opacity="0" stroke="none" d="
M 14 0
L 0 0 0 14 14 14 14 0 Z"/>
</g>

<g id="iconWindowMinimize_0_Layer0_0_FILL">
<path fill="#FFFFFF" stroke="none" d="
M 0 14
L 14 14 14 0 0 0 0 14
M 1 1
L 13 1 13 13 1 13 1 1
M 4 9
L 10 9 10 3 4 3 4 9 Z"/>
</g>
</defs>

<g transform="matrix( 1, 0, 0, 1, 0,0) ">
<g transform="matrix( 1, 0, 0, 1, 0,0) ">
<use xlink:href="#iconWindowMinimize_0_Layer1_0_FILL"/>
</g>

<g transform="matrix( 1, 0, 0, 1, 0,0) ">
<use xlink:href="#iconWindowMinimize_0_Layer0_0_FILL"/>
</g>
</g>
</svg>
