
<svg xmlns="http://www.w3.org/2000/svg" version="1.1" xmlns:xlink="http://www.w3.org/1999/xlink" preserveAspectRatio="none" x="0px" y="0px" width="32px" height="32px" viewBox="0 0 32 32">
<defs>
<g id="iconTextCenter_0_Layer1_0_FILL">
<path fill="#FFFFFF" fill-opacity="0" stroke="none" d="
M 0.05 0
L 0.05 31.95 32 31.95 32 0 0.05 0 Z"/>
</g>

<g id="iconTextCenter_0_Layer0_0_FILL">
<path fill="#FFFFFF" stroke="none" d="
M 29 23
L 3 23 3 27 29 27 29 23
M 23 18
L 23 14 9 14 9 18 23 18
M 30 9
L 30 5 2 5 2 9 30 9 Z"/>
</g>
</defs>

<g transform="matrix( 1, 0, 0, 1, 0,0) ">
<g transform="matrix( 1, 0, 0, 1, 0,0) ">
<use xlink:href="#iconTextCenter_0_Layer1_0_FILL"/>
</g>

<g transform="matrix( 1, 0, 0, 1, 0,0) ">
<use xlink:href="#iconTextCenter_0_Layer0_0_FILL"/>
</g>
</g>
</svg>
