
<svg xmlns="http://www.w3.org/2000/svg" version="1.1" xmlns:xlink="http://www.w3.org/1999/xlink" preserveAspectRatio="none" x="0px" y="0px" width="32px" height="32px" viewBox="0 0 32 32">
<defs>
<g id="iconTextBgColor_0_Layer1_0_FILL">
<path fill="#FFFFFF" fill-opacity="0" stroke="none" d="
M 32 0
L 0 0 0 32 32 32 32 0 Z"/>
</g>

<g id="iconTextBgColor_0_Layer0_0_FILL">
<path fill="#FFFFFF" stroke="none" d="
M 32 32
L 32 0 0 0 0 32 32 32
M 24.6 23.2
Q 24.9 24.1 25.15 24.55 25.5 25.25 25.95 25.4 26.2 25.7 26.75 25.8 27.4 26.05 28.45 26.05
L 28.35 26.75
Q 27.3 26.75 26.15 26.75 24.9 26.65 23.55 26.65 22.5 26.65 21.4 26.75 20.45 26.75 19.3 26.75
L 19.2 26.15
Q 20.8 26.05 21.25 25.8 21.95 25.5 21.95 25.05 21.95 24.8 21.8 24.35 21.7 24.2 21.4 23.75
L 19.75 19.1 11.45 19.1 9.7 23.4
Q 9.05 24.55 9.05 25.05 9.05 25.5 9.8 25.7 10.3 26.05 11.9 26.05
L 11.9 26.75
Q 10.95 26.75 9.8 26.75 8.6 26.65 7.45 26.65 6.5 26.65 5.6 26.75 4.7 26.75 3.75 26.75
L 3.75 26.15
Q 4.7 26.05 5.15 25.85 5.6 25.7 6.05 25.4
L 15 5.5 17.7 5.5
Q 17.8 5.6 17.85 5.7
L 24.6 23.2
M 12.2 17.95
L 19.2 17.95 16 9.35 12.2 17.95 Z"/>
</g>
</defs>

<g transform="matrix( 1, 0, 0, 1, 0,0) ">
<g transform="matrix( 1, 0, 0, 1, 0,0) ">
<use xlink:href="#iconTextBgColor_0_Layer1_0_FILL"/>
</g>

<g transform="matrix( 1, 0, 0, 1, 0,0) ">
<use xlink:href="#iconTextBgColor_0_Layer0_0_FILL"/>
</g>
</g>
</svg>
