
<svg xmlns="http://www.w3.org/2000/svg" version="1.1" xmlns:xlink="http://www.w3.org/1999/xlink" preserveAspectRatio="none" x="0px" y="0px" width="64px" height="64px" viewBox="0 0 64 64">
<defs>
<g id="Layer2_0_FILL">
<path fill="#FFFFFF" stroke="none" d="
M 56 18.95
L 41.85 18.95
Q 35.95 18.95 35.95 13.05
L 35.95 0 14 0
Q 9 0 9 5
L 9 59
Q 9 64 14 64
L 51 64
Q 56 64 56 59
L 56 18.95
M 40.75 35.6
Q 42 34.05 44.25 34.05 46.4 34.05 47.4 35.75
L 47.45 35.75 47.45 34.25 49.15 34.25 49.15 43.95
Q 49.15 49.75 43.6 49.75 41.65 49.75 40.2 49
L 40.2 47.35
Q 41.95 48.3 43.55 48.3 47.45 48.3 47.45 44.2
L 47.45 43.05 47.4 43.05
Q 46.2 45.05 43.8 45.05 41.85 45.05 40.65 43.65 39.45 42.25 39.45 39.9 39.45 37.2 40.75 35.6
M 17.65 36.1
L 17.7 36.1
Q 18.95 34.05 21.3 34.05 23.35 34.05 24.5 35.45 25.65 36.85 25.65 39.25 25.65 41.85 24.35 43.45 23.05 45.05 20.85 45.05 18.8 45.05 17.7 43.3
L 17.65 43.3 17.65 49.65 15.95 49.65 15.95 34.25 17.65 34.25 17.65 36.1
M 33.45 34.05
Q 35.15 34.05 36.1 35.15 37 36.25 37 38.35
L 37 44.8 35.3 44.8 35.3 38.8
Q 35.3 35.45 32.85 35.45 31.6 35.45 30.8 36.4 29.95 37.35 29.95 38.8
L 29.95 44.8 28.25 44.8 28.25 34.25 29.95 34.25 29.95 36 30 36
Q 31.2 34.05 33.45 34.05
M 17.65 40.5
Q 17.65 41.8 18.5 42.7 19.35 43.65 20.65 43.65 22.2 43.65 23.05 42.45 23.9 41.3 23.9 39.2 23.9 37.45 23.1 36.45 22.3 35.45 20.9 35.45 19.45 35.45 18.55 36.45 17.65 37.5 17.65 39.05
L 17.65 40.5
M 46.6 36.35
Q 45.75 35.45 44.5 35.45 42.95 35.45 42.05 36.6 41.15 37.7 41.15 39.75 41.15 41.5 42 42.6 42.85 43.65 44.25 43.65 45.7 43.65 46.55 42.6 47.45 41.6 47.45 40.05
L 47.45 38.5
Q 47.45 37.25 46.6 36.35
M 44 16
L 56 16 39 0 39 11
Q 39 16 44 16 Z"/>
</g>

<g id="Layer0_0_FILL">
<path fill="#FFFFFF" fill-opacity="0" stroke="none" d="
M 0 0
L 0 64 64 64 64 0 0 0 Z"/>
</g>
</defs>

<g transform="matrix( 1, 0, 0, 1, 0,0) ">
<use xlink:href="#Layer2_0_FILL"/>
</g>

<g transform="matrix( 1, 0, 0, 1, 0,0) ">
<use xlink:href="#Layer0_0_FILL"/>
</g>
</svg>
