
<svg xmlns="http://www.w3.org/2000/svg" version="1.1" xmlns:xlink="http://www.w3.org/1999/xlink" preserveAspectRatio="none" x="0px" y="0px" width="25px" height="25px" viewBox="0 0 25 25">
<defs>
<g id="iconUpload_0_Layer1_0_FILL">
<path fill="#FFFFFF" fill-opacity="0" stroke="none" d="
M 25 0
L 0 0 0 25 25 25 25 0 Z"/>
</g>

<g id="iconUpload_0_Layer0_0_FILL">
<path fill="#FFFFFF" stroke="none" d="
M 6.55 14.05
L 10.05 14.05 10.05 25 15.05 25 15.05 14.05 18.55 14.05 12.55 8.05 6.55 14.05
M 23.05 2.05
L 23.05 17.05 16.05 17.05 16.05 19.05 25 19.05 25 0 0 0 0 19.05 9.05 19.05 9.05 17.05 2.05 17.05 2.05 2.05 23.05 2.05 Z"/>
</g>
</defs>

<g transform="matrix( 1, 0, 0, 1, 0,0) ">
<g transform="matrix( 1, 0, 0, 1, 0,0) ">
<use xlink:href="#iconUpload_0_Layer1_0_FILL"/>
</g>

<g transform="matrix( 1, 0, 0, 1, 0,0) ">
<use xlink:href="#iconUpload_0_Layer0_0_FILL"/>
</g>
</g>
</svg>
