
<svg xmlns="http://www.w3.org/2000/svg" version="1.1" xmlns:xlink="http://www.w3.org/1999/xlink" preserveAspectRatio="none" x="0px" y="0px" width="32px" height="32px" viewBox="0 0 32 32">
<defs>
<g id="iconTextSource_0_Layer1_0_FILL">
<path fill="#FFFFFF" fill-opacity="0" stroke="none" d="
M 0 0
L 0 32 32 32 32 0 0 0 Z"/>
</g>

<g id="iconTextSource_0_Layer0_0_FILL">
<path fill="#FFFFFF" stroke="none" d="
M 32 18
L 32 14 19 4 19 8 29.05 15.9 29 16 19 24 19 28 32 18
M 13 24
L 3 16 2.95 15.9 13 8 13 4 0 14 0 18 13 28 13 24 Z"/>
</g>
</defs>

<g transform="matrix( 1, 0, 0, 1, 0,0) ">
<g transform="matrix( 1, 0, 0, 1, 0,0) ">
<use xlink:href="#iconTextSource_0_Layer1_0_FILL"/>
</g>

<g transform="matrix( 1, 0, 0, 1, 0,0) ">
<use xlink:href="#iconTextSource_0_Layer0_0_FILL"/>
</g>
</g>
</svg>
