
<svg xmlns="http://www.w3.org/2000/svg" version="1.1" xmlns:xlink="http://www.w3.org/1999/xlink" preserveAspectRatio="none" x="0px" y="0px" width="24px" height="24px" viewBox="0 0 24 24">
<defs>
<g id="iconSubMenu_0_Layer1_0_FILL">
<path fill="#FFFFFF" fill-opacity="0" stroke="none" d="
M 24 24
L 24 0 0 0 0 24 24 24 Z"/>
</g>

<g id="iconSubMenu_0_Layer0_0_FILL">
<path fill="#FFFFFF" stroke="none" d="
M 23.65 15
Q 24 13.55 24 12 24 10.45 23.65 9 22.9 5.95 20.5 3.55 18.1 1.1 15 0.35 13.55 0 12 0 10.45 0 9 0.35 5.9 1.15 3.5 3.55 1.1 5.95 0.35 9 0 10.45 0 12 0 13.55 0.35 15 1.1 18.1 3.5 20.5 5.9 22.9 9 23.65 10.45 24 12 24 13.55 24 15 23.65 18.1 22.9 20.5 20.5 22.9 18.1 23.65 15
M 14 7.95
Q 14 7.15 14.55 6.55 15.15 6 16 6 16.85 6 17.4 6.55 18 7.15 18 8 18 8.85 17.4 9.4 16.85 10 15.95 10 15.15 10 14.55 9.4 14 8.85 14 7.95
M 6 8
Q 6 7.15 6.55 6.55 7.15 6 8 6 8.85 6 9.4 6.55 10 7.15 10 8.05 10 8.85 9.4 9.4 8.85 10 7.95 10 7.15 10 6.55 9.4 6 8.85 6 8
M 6.55 17.4
Q 6 16.85 6 16 6 15.15 6.55 14.55 7.15 14 7.95 14 8.85 14 9.4 14.55 10 15.15 10 15.95 10 16.85 9.4 17.4 8.85 18 8 18 7.15 18 6.55 17.4
M 18 16
Q 18 16.85 17.4 17.4 16.85 18 16 18 15.15 18 14.55 17.4 14 16.85 14 16.05 14 15.15 14.55 14.55 15.15 14 16.05 14 16.85 14 17.4 14.55 18 15.15 18 16 Z"/>
</g>
</defs>

<g transform="matrix( 1, 0, 0, 1, 0,0) ">
<g transform="matrix( 1, 0, 0, 1, 0,0) ">
<use xlink:href="#iconSubMenu_0_Layer1_0_FILL"/>
</g>

<g transform="matrix( 1, 0, 0, 1, 0,0) ">
<use xlink:href="#iconSubMenu_0_Layer0_0_FILL"/>
</g>
</g>
</svg>
