
<svg xmlns="http://www.w3.org/2000/svg" version="1.1" xmlns:xlink="http://www.w3.org/1999/xlink" preserveAspectRatio="none" x="0px" y="0px" width="32px" height="32px" viewBox="0 0 32 32">
<defs>
<g id="iconTextColor_0_Layer1_0_FILL">
<path fill="#FFFFFF" fill-opacity="0" stroke="none" d="
M 0 32
L 32 32 32 0 0 0 0 32 Z"/>
</g>

<g id="iconTextColor_0_Layer0_0_FILL">
<path fill="#FFFFFF" stroke="none" d="
M 19.6 5.4
Q 19.4 4.3 18.95 2.85 18.65 1.75 18.15 0
L 14.5 0 14.65 0.15 3 29.95
Q 2.55 30.4 1.9 30.7 1.25 30.9 0 31.05
L 0 32
Q 1.25 32 2.55 32 3.65 31.85 4.9 31.85 6.35 31.85 7.8 32 9.35 32 10.7 32
L 10.7 30.9
Q 8.6 30.9 7.8 30.4 7 30.05 7 29.45 7 28.7 7.7 26.9
L 10.05 20.45 20.7 20.45 22.95 27.45
Q 23.3 28.05 23.45 28.35 23.55 29.1 23.55 29.45 23.55 30.05 22.75 30.55 22.1 30.9 20.1 31.05
L 20.25 32
Q 21.7 32 22.95 32 24.35 31.85 25.65 31.85 27.4 31.85 29 32 30.55 32 31.85 32
L 32 30.9
Q 30.6 30.9 29.9 30.55 29.15 30.4 28.8 29.95 28.3 29.65 27.75 28.7 27.4 28 27.05 26.6
L 19.6 5.4
M 20.1 18.7
L 10.95 18.7 15.9 5.8 20.1 18.7 Z"/>
</g>
</defs>

<g transform="matrix( 1, 0, 0, 1, 0,0) ">
<g transform="matrix( 1, 0, 0, 1, 0,0) ">
<use xlink:href="#iconTextColor_0_Layer1_0_FILL"/>
</g>

<g transform="matrix( 1, 0, 0, 1, 0,0) ">
<use xlink:href="#iconTextColor_0_Layer0_0_FILL"/>
</g>
</g>
</svg>
