
<svg xmlns="http://www.w3.org/2000/svg" version="1.1" xmlns:xlink="http://www.w3.org/1999/xlink" preserveAspectRatio="none" x="0px" y="0px" width="32px" height="32px" viewBox="0 0 32 32">
<defs>
<g id="iconTextStrikeThru_0_Layer1_0_FILL">
<path fill="#FFFFFF" fill-opacity="0" stroke="none" d="
M 0 0
L 0 32 32 32 32 0 0 0 Z"/>
</g>

<g id="iconTextStrikeThru_0_Layer0_0_FILL">
<path fill="#FFFFFF" stroke="none" d="
M 29 20
L 29 15.85 19.9 15.85
Q 19.1 15.3 18.2 14.8 17.2 14.2 16 13.65 14.1 12.9 12.8 12.1 11.6 11.2 11 10.3 10.35 9.4 10.35 8.1 10.35 7.1 10.85 6.05 11.5 5.15 12.55 4.5 13.8 3.85 15.6 3.85 17.45 3.85 18.85 4.35 20.25 4.75 21 5.4
L 22.1 1.35
Q 21.2 0.9 19.5 0.45 17.9 0 15.65 0 12.55 0 10.35 1.05 8.15 2.2 7 4.05 5.7 6.05 5.7 8.55 5.7 10.7 6.65 12.35 7.5 13.65 8.8 14.8 9.05 15.1 9.35 15.3 9.8 15.6 10 16
L 3 16 3 20 17 20
Q 17.3 19.85 17.3 20 18.6 21.4 18.6 23.3 18.6 25.5 17.05 26.7 15.6 28 12.9 28 11 28 9.2 27.45 7.5 27 6.25 26.2
L 5.2 30.1
Q 5.95 30.7 7.15 31.1 8.25 31.55 9.8 31.8 11.15 32 12.55 32 16.1 32 18.35 30.9 20.8 29.6 22.1 27.6 23.3 25.6 23.3 22.9 23.3 21.25 23 20
L 29 20 Z"/>
</g>
</defs>

<g transform="matrix( 1, 0, 0, 1, 0,0) ">
<g transform="matrix( 1, 0, 0, 1, 0,0) ">
<use xlink:href="#iconTextStrikeThru_0_Layer1_0_FILL"/>
</g>

<g transform="matrix( 1, 0, 0, 1, 0,0) ">
<use xlink:href="#iconTextStrikeThru_0_Layer0_0_FILL"/>
</g>
</g>
</svg>
