
<svg xmlns="http://www.w3.org/2000/svg" version="1.1" xmlns:xlink="http://www.w3.org/1999/xlink" preserveAspectRatio="none" x="0px" y="0px" width="25px" height="25px" viewBox="0 0 25 25">
<defs>
<g id="icon_search_0_Layer1_0_FILL">
<path fill="#FFFFFF" fill-opacity="0" stroke="none" d="
M 25 0
L 0 0 0 25 25 25 25 0 Z"/>
</g>

<g id="icon_search_0_Layer0_0_FILL">
<path fill="#FFFFFF" fill-opacity="0.9882352941176471" stroke="none" d="
M 25 9.5
Q 25 5.6 22.2 2.8 19.4 0 15.5 0 11.6 0 8.8 2.8 6 5.6 6 9.5 6 12.3 7.45 14.55
L 0 22 2.8 24.85 10.25 17.4
Q 12.55 19 15.5 19 19.4 19 22.2 16.25
L 22.25 16.2
Q 25 13.4 25 9.5
M 23.05 9.5
Q 23.05 12.65 20.8 14.8 18.65 17.05 15.5 17.05 12.4 17.05 10.15 14.8 8 12.65 8 9.5 8 6.45 10.15 4.2
L 10.2 4.15
Q 12.45 2 15.5 2 18.65 2 20.8 4.15 23.05 6.4 23.05 9.5 Z"/>
</g>
</defs>

<g transform="matrix( 1, 0, 0, 1, 0,0) ">
<g transform="matrix( 1, 0, 0, 1, 0,0) ">
<use xlink:href="#icon_search_0_Layer1_0_FILL"/>
</g>

<g transform="matrix( 1, 0, 0, 1, 0,0) ">
<use xlink:href="#icon_search_0_Layer0_0_FILL"/>
</g>
</g>
</svg>
