
<svg xmlns="http://www.w3.org/2000/svg" version="1.1" xmlns:xlink="http://www.w3.org/1999/xlink" preserveAspectRatio="none" x="0px" y="0px" width="64px" height="64px" viewBox="0 0 64 64">
<defs>
<g id="file_pdf_0_Layer1_0_FILL">
<path fill="#FFFFFF" stroke="none" d="
M 56 18.95
L 41.85 18.95
Q 35.95 18.95 35.95 13.05
L 35.95 0 14 0
Q 9 0 9 5
L 9 59
Q 9 64 14 64
L 51 64
Q 56 64 56 59
L 56 18.95
M 18.4 36.2
L 18.45 36.2
Q 19.75 33.95 22.35 33.95 24.5 33.95 25.75 35.45 26.95 37 26.95 39.55 26.95 42.35 25.6 44.05 24.2 45.75 21.8 45.75 19.6 45.75 18.45 43.85
L 18.4 43.85 18.4 50.7 16.6 50.7 16.6 34.2 18.4 34.2 18.4 36.2
M 37.65 28.8
L 39.45 28.8 39.45 45.5 37.65 45.5 37.65 43.6 37.6 43.6
Q 36.35 45.75 33.75 45.75 31.6 45.75 30.35 44.25 29.05 42.75 29.05 40.1 29.05 37.3 30.45 35.65 31.9 33.95 34.25 33.95 36.55 33.95 37.6 35.8
L 37.65 35.8 37.65 28.8
M 48.65 30.4
Q 48.15 30.1 47.45 30.1 45.55 30.1 45.55 32.45
L 45.55 34.2 48.2 34.2 48.2 35.75 45.55 35.75 45.55 45.5 43.75 45.5 43.75 35.75 41.85 35.75 41.85 34.2 43.75 34.2 43.75 32.4
Q 43.75 30.6 44.8 29.6 45.8 28.55 47.35 28.55 48.15 28.55 48.65 28.75
L 48.65 30.4
M 34.45 35.45
Q 32.8 35.45 31.85 36.7 30.9 37.9 30.9 40.05 30.9 42 31.8 43.1 32.75 44.25 34.25 44.25 35.75 44.25 36.7 43.15 37.65 42.05 37.65 40.4
L 37.65 38.75
Q 37.65 37.35 36.75 36.4 35.85 35.45 34.45 35.45
M 18.4 39.3
L 18.4 40.9
Q 18.4 42.3 19.3 43.25 20.2 44.25 21.6 44.25 23.25 44.25 24.2 43 25.1 41.75 25.1 39.5 25.1 37.6 24.25 36.55 23.35 35.45 21.9 35.45 20.3 35.45 19.35 36.55 18.4 37.65 18.4 39.3
M 44 16
L 56 16 39 0 39 11
Q 39 16 44 16 Z"/>
</g>

<g id="file_pdf_0_Layer0_0_FILL">
<path fill="#FFFFFF" fill-opacity="0" stroke="none" d="
M 0 0
L 0 64 64 64 64 0 0 0 Z"/>
</g>
</defs>

<g transform="matrix( 1, 0, 0, 1, 0,0) ">
<g transform="matrix( 1, 0, 0, 1, 0,0) ">
<use xlink:href="#file_pdf_0_Layer1_0_FILL"/>
</g>

<g transform="matrix( 1, 0, 0, 1, 0,0) ">
<use xlink:href="#file_pdf_0_Layer0_0_FILL"/>
</g>
</g>
</svg>
