
<svg xmlns="http://www.w3.org/2000/svg" version="1.1" xmlns:xlink="http://www.w3.org/1999/xlink" preserveAspectRatio="none" x="0px" y="0px" width="64px" height="64px" viewBox="0 0 64 64">
<defs>
<g id="iconOrg_0_Layer1_0_FILL">
<path fill="#FFFFFF" stroke="none" d="
M 61.55 23.25
L 63.4 19.7 58.65 17.2
Q 58.480859375 17.0814453125 58.3 17
L 33.1 2.9
Q 33.0224609375 2.8134765625 32.9 2.75
L 32.15 2.35 32.1 2.2 32 2.25 31.9 2.2 31.8 2.35 31.1 2.75
Q 30.9783203125 2.8130859375 30.85 2.85
L 0.55 19.7 2.4 23.25 4.5 22.15 4.5 53.5
Q 4.49453125 54.3337890625 5.05 54.9 5.666015625 55.5052734375 6.5 55.5
L 57.5 55.5
Q 58.3337890625 55.5052734375 58.9 54.9 59.5052734375 54.3337890625 59.5 53.5
L 59.5 22.15 61.55 23.25
M 8.5 20
L 32 6.85 55.5 20 55.5 51.5 8.5 51.5 8.5 20 Z"/>
</g>

<g id="iconOrg_0_Layer0_0_FILL">
<path fill="#FFFFFF" fill-opacity="0" stroke="none" d="
M 64 0
L 0 0 0 64 64 64 64 0 Z"/>
</g>
</defs>

<g transform="matrix( 1, 0, 0, 1, 0,0) ">
<g transform="matrix( 1, 0, 0, 1, 0,0) ">
<use xlink:href="#iconOrg_0_Layer1_0_FILL"/>
</g>

<g transform="matrix( 1, 0, 0, 1, 0,0) ">
<use xlink:href="#iconOrg_0_Layer0_0_FILL"/>
</g>
</g>
</svg>
