
<svg xmlns="http://www.w3.org/2000/svg" version="1.1" xmlns:xlink="http://www.w3.org/1999/xlink" preserveAspectRatio="none" x="0px" y="0px" width="32px" height="32px" viewBox="0 0 32 32">
<defs>
<g id="iconTextLink_0_Layer1_0_FILL">
<path fill="#FFFFFF" fill-opacity="0" stroke="none" d="
M 0 0
L 0 32 32 32 32 0 0 0 Z"/>
</g>

<g id="iconTextLink_0_Layer0_0_FILL">
<path fill="#FFFFFF" stroke="none" d="
M 23.5 14.55
Q 22.95 13.95 22.1 13.95
L 10.1 13.95
Q 9.3 13.95 8.7 14.55 8.1 14.95 8.1 15.55 8.1 16.25 8.7 16.75 9.3 17.25 10.1 17.25
L 22.1 17.25
Q 22.95 17.25 23.5 16.75 24.15 16.25 24.15 15.55 24.15 14.95 23.5 14.55
M 15 11.9
Q 14.7 11.3 14.3 10.8 12.6 9 10.1 9
L 6.1 9
Q 3.45 9 1.7 10.8 1.15 11.4 0.9 12.1 0 13.55 0 15.55 0 17.6 0.9 19.2 1.15 19.7 1.7 20.2 3.45 22.25 6.1 22.25
L 10.1 22.25
Q 12.6 22.25 14.3 20.2 14.7 19.8 15 19.45
L 12.65 18.1
Q 12.5 18.5 12.15 18.7 11.1 20 9.4 20
L 6.7 20
Q 4.95 20 3.8 18.7 3.35 18.4 3.15 18 2.6 16.9 2.6 15.55 2.6 14.25 3.15 13.35 3.35 12.85 3.8 12.45 4.95 11.2 6.7 11.2
L 9.4 11.2
Q 11.1 11.2 12.15 12.45 12.5 12.75 12.65 13.1
L 15 11.9
M 30.35 10.8
Q 28.6 9 26.15 9
L 22.1 9
Q 19.6 9 17.8 10.8 17.4 11.3 17.2 11.9
L 19.5 13.1
Q 19.6 12.75 19.9 12.45 21.15 11.2 22.7 11.2
L 25.4 11.2
Q 27.15 11.2 28.25 12.45 29.4 13.75 29.4 15.55 29.4 17.5 28.25 18.7 27.15 20 25.4 20
L 22.7 20
Q 21.15 20 19.9 18.7 19.6 18.5 19.5 18.2
L 17.2 19.45
Q 17.4 19.8 17.8 20.2 19.6 22.25 22.1 22.25
L 26.15 22.25
Q 28.6 22.25 30.35 20.2 31.7 18.8 32 16.9
L 32 14.45
Q 31.7 12.45 30.35 10.8 Z"/>
</g>
</defs>

<g transform="matrix( 1, 0, 0, 1, 0,0) ">
<g transform="matrix( 1, 0, 0, 1, 0,0) ">
<use xlink:href="#iconTextLink_0_Layer1_0_FILL"/>
</g>

<g transform="matrix( 1, 0, 0, 1, 0,0) ">
<use xlink:href="#iconTextLink_0_Layer0_0_FILL"/>
</g>
</g>
</svg>
