
<svg xmlns="http://www.w3.org/2000/svg" version="1.1" xmlns:xlink="http://www.w3.org/1999/xlink" preserveAspectRatio="none" x="0px" y="0px" width="25px" height="25px" viewBox="0 0 25 25">
<defs>
<g id="icon_alerts_0_Layer1_0_FILL">
<path fill="#FFFFFF" fill-opacity="0" stroke="none" d="
M 25 0
L 0 0 0 25 25 25 25 0 Z"/>
</g>

<g id="icon_alerts_0_Layer0_0_FILL">
<path fill="#FFFFFF" stroke="none" d="
M 25 12.5
Q 25 7.35 21.3 3.7 17.85 0.15 12.85 0 12.7 0 12.45 0
L 12.4 0
Q 7.25 0.05 3.65 3.7 0 7.35 0 12.5 0 17.65 3.65 21.3 7.25 25 12.4 25
L 12.45 25
Q 12.7 25 12.85 25 17.85 24.85 21.35 21.3
L 21.3 21.3
Q 25 17.65 25 12.5
M 12.25 5.4
Q 12.2 5.25 12.2 5.1 12.2 4.85 12.4 4.65 12.55 4.45 12.85 4.45
L 12.9 4.45
Q 13.2 4.45 13.35 4.65 13.55 4.85 13.55 5.1 13.55 5.25 13.5 5.4 17.15 6.1 17.4 10.5
L 17.4 14.65
Q 17.85 15.8 19.35 16.2 20.45 16.7 20.2 17.45
L 14.5 17.45
Q 14.45 18.05 14 18.45 13.55 18.95 12.85 18.95 12.2 18.95 11.7 18.45 11.3 18.05 11.25 17.45
L 5.55 17.45
Q 5.3 16.7 6.4 16.2 7.85 15.8 8.35 14.65
L 8.35 10.5
Q 8.6 6.1 12.25 5.4 Z"/>
</g>
</defs>

<g transform="matrix( 1, 0, 0, 1, 0,0) ">
<g transform="matrix( 1, 0, 0, 1, 0,0) ">
<use xlink:href="#icon_alerts_0_Layer1_0_FILL"/>
</g>

<g transform="matrix( 1, 0, 0, 1, 0,0) ">
<use xlink:href="#icon_alerts_0_Layer0_0_FILL"/>
</g>
</g>
</svg>
