
<svg xmlns="http://www.w3.org/2000/svg" version="1.1" xmlns:xlink="http://www.w3.org/1999/xlink" preserveAspectRatio="none" x="0px" y="0px" width="64px" height="64px" viewBox="0 0 64 64">
<defs>
<g id="file_video_0_Layer1_0_FILL">
<path fill="#FFFFFF" stroke="none" d="
M 56 18.95
L 41.85 18.95
Q 35.95 18.95 35.95 13.05
L 35.95 0 14 0
Q 9 0 9 5
L 9 59
Q 9 64 14 64
L 51 64
Q 56 64 56 59
L 56 18.95
M 47 24
L 50 24 50 21 51 21 51 60 50 60 50 57 47 57 47 60 18 60 18 57 15 57 15 60 14 60 14 21 15 21 15 24 18 24 18 21 47 21 47 24
M 46 51
L 46 49 19 49 19 51 46 51
M 50 54
L 50 51 47 51 47 54 50 54
M 18 54
L 18 51 15 51 15 54 18 54
M 15 45
L 15 48 18 48 18 45 15 45
M 18 42
L 18 39 15 39 15 42 18 42
M 15 33
L 15 36 18 36 18 33 15 33
M 18 30
L 18 27 15 27 15 30 18 30
M 47 45
L 47 48 50 48 50 45 47 45
M 47 39
L 47 42 50 42 50 39 47 39
M 46 32
L 46 30 19 30 19 32 46 32
M 50 36
L 50 33 47 33 47 36 50 36
M 50 30
L 50 27 47 27 47 30 50 30
M 44 16
L 56 16 39 0 39 11
Q 39 16 44 16 Z"/>
</g>

<g id="file_video_0_Layer0_0_FILL">
<path fill="#FFFFFF" fill-opacity="0" stroke="none" d="
M 0 0
L 0 64 64 64 64 0 0 0 Z"/>
</g>
</defs>

<g transform="matrix( 1, 0, 0, 1, 0,0) ">
<g transform="matrix( 1, 0, 0, 1, 0,0) ">
<use xlink:href="#file_video_0_Layer1_0_FILL"/>
</g>

<g transform="matrix( 1, 0, 0, 1, 0,0) ">
<use xlink:href="#file_video_0_Layer0_0_FILL"/>
</g>
</g>
</svg>
