
<svg xmlns="http://www.w3.org/2000/svg" version="1.1" xmlns:xlink="http://www.w3.org/1999/xlink" preserveAspectRatio="none" x="0px" y="0px" width="64px" height="64px" viewBox="0 0 64 64">
<defs>
<g id="iconRightSide_0_Layer1_0_FILL">
<path fill="#FFFFFF" stroke="none" d="
M 57.5 -5
L 44.25 -5
Q 44.214453125 -5.00234375 44.15 -5
L 6.5 -5
Q 0 -5 0 1.5
L 0 52.5
Q 0 59 6.5 59
L 57.5 59
Q 64 59 64 52.5
L 64 1.5
Q 64 -5 57.5 -5
M 6.5 -2
L 38.65 -2
Q 37.999609375 -0.58359375 38 1.5
L 38 52.5
Q 37.999609375 54.583984375 38.65 56
L 6.5 56
Q 3 56 3 52.5
L 3 1.5
Q 3 -2 6.5 -2 Z"/>
</g>
</defs>

<g transform="matrix( 1, 0, 0, 1, 0,5) ">
<g transform="matrix( 1, 0, 0, 1, 0,0) ">
<use xlink:href="#iconRightSide_0_Layer1_0_FILL"/>
</g>
</g>
</svg>
