
<svg xmlns="http://www.w3.org/2000/svg" version="1.1" xmlns:xlink="http://www.w3.org/1999/xlink" preserveAspectRatio="none" x="0px" y="0px" width="64px" height="64px" viewBox="0 0 64 64">
<defs>
<g id="iconMove_0_Layer1_0_FILL">
<path fill="#FFFFFF" stroke="none" d="
M 63.65 24.45
Q 63.6158203125 23.96484375 63 23.25 62.3662109375 22.536328125 61.85 22
L 54.9 15.05
Q 54.3337890625 14.49453125 53.5 14.5 52.666015625 14.49453125 52.05 15.05 51.49453125 15.666015625 51.5 16.5 51.49453125 17.3337890625 52.05 17.9
L 56.15 22 43 22 43 12.5
Q 43 6 36.5 6
L 6.5 6
Q 0 6 0 12.5
L 0 37.5
Q 0 44 6.5 44
L 36.5 44
Q 43 44 43 37.5
L 43 27 56.15 27 52.05 31.05
Q 51.49453125 31.666015625 51.5 32.5 51.49453125 33.3337890625 52.05 33.9 52.666015625 34.5052734375 53.5 34.5 54.3337890625 34.5052734375 54.9 33.9
L 61.85 26.95
Q 62.428125 26.335546875 63.05 25.65 63.731640625 24.9732421875 63.65 24.45
M 36.5 9
Q 40 9 40 12.5
L 40 37.5
Q 40 41 36.5 41
L 6.5 41
Q 3 41 3 37.5
L 3 12.5
Q 3 9 6.5 9
L 36.5 9 Z"/>
</g>
</defs>

<g transform="matrix( 1, 0, 0, 1, 0,5) ">
<g transform="matrix( 1, 0, 0, 1, 0,0) ">
<use xlink:href="#iconMove_0_Layer1_0_FILL"/>
</g>
</g>
</svg>
