
<svg xmlns="http://www.w3.org/2000/svg" version="1.1" xmlns:xlink="http://www.w3.org/1999/xlink" preserveAspectRatio="none" x="0px" y="0px" width="64px" height="64px" viewBox="0 0 64 64">
<defs>
<g id="iconModal_0_Layer1_0_FILL">
<path fill="#FFFFFF" fill-opacity="0.32941176470588235" stroke="none" d="
M 0.3 -4.7
Q 0.003515625 -4.4107421875 0 -4
L 0 58
Q 0.003515625 58.4107421875 0.3 58.7 0.5892578125 58.996484375 1 59
L 63 59
Q 63.4107421875 58.996484375 63.7 58.7 63.996484375 58.4107421875 64 58
L 64 -4
Q 63.996484375 -4.4107421875 63.7 -4.7 63.4107421875 -4.996484375 63 -5
L 1 -5
Q 0.5892578125 -4.996484375 0.3 -4.7
M 2 -3
L 62 -3 62 57 2 57 2 -3 Z"/>

<path fill="#FFFFFF" stroke="none" d="
M 43.5 -0.5
L 20.5 -0.5
Q 18 -0.5 16.75 0.75 15.5 2 15.5 4.5
L 15.5 37.5
Q 15.5 40 16.75 41.25 18 42.5 20.5 42.5
L 43.5 42.5
Q 46 42.5 47.25 41.25 48.5 40 48.5 37.5
L 48.5 4.5
Q 48.5 2 47.25 0.75 46 -0.5 43.5 -0.5 Z"/>
</g>
</defs>

<g transform="matrix( 1, 0, 0, 1, 0,5) ">
<g transform="matrix( 1, 0, 0, 1, 0,0) ">
<use xlink:href="#iconModal_0_Layer1_0_FILL"/>
</g>
</g>
</svg>
