
<svg xmlns="http://www.w3.org/2000/svg" version="1.1" xmlns:xlink="http://www.w3.org/1999/xlink" preserveAspectRatio="none" x="0px" y="0px" width="48px" height="36px" viewBox="0 0 48 36">
<defs>
<g id="icon_dots_0_Layer1_0_FILL">
<path fill="#FFFFFF" stroke="none" d="
M 11.5 14.45
Q 10.05 13 8 13 5.95 13 4.45 14.45 3 15.95 3 18 3 20.05 4.45 21.5 5.95 23 8 23 10.05 23 11.5 21.5 13 20.05 13 18 13 15.95 11.5 14.45
M 24 13
Q 21.95 13 20.45 14.45 19 15.95 19 18 19 20.05 20.45 21.5 21.95 23 24 23 26.05 23 27.5 21.5 29 20.05 29 18 29 15.95 27.5 14.45 26.05 13 24 13
M 43.5 21.5
Q 45 20.05 45 18 45 15.95 43.5 14.45 42.05 13 40 13 37.95 13 36.45 14.45 35 15.95 35 18 35 20.05 36.45 21.5 37.95 23 40 23 42.05 23 43.5 21.5 Z"/>
</g>

<g id="icon_dots_0_Layer0_0_FILL">
<path fill="#FFFFFF" fill-opacity="0" stroke="none" d="
M 48 36
L 48 0 0 0 0 36 48 36 Z"/>
</g>
</defs>

<g transform="matrix( 1, 0, 0, 1, 0,0) ">
<g transform="matrix( 1, 0, 0, 1, 0,0) ">
<use xlink:href="#icon_dots_0_Layer1_0_FILL"/>
</g>

<g transform="matrix( 1, 0, 0, 1, 0,0) ">
<use xlink:href="#icon_dots_0_Layer0_0_FILL"/>
</g>
</g>
</svg>
