
<svg xmlns="http://www.w3.org/2000/svg" version="1.1" xmlns:xlink="http://www.w3.org/1999/xlink" preserveAspectRatio="none" x="0px" y="0px" width="32px" height="32px" viewBox="0 0 32 32">
<defs>
<g id="iconTextMore_0_Layer1_0_FILL">
<path fill="#FFFFFF" fill-opacity="0" stroke="none" d="
M 32 0
L 0 0 0 32 32 32 32 0 Z"/>
</g>

<g id="iconTextMore_0_Layer0_0_FILL">
<path fill="#FFFFFF" stroke="none" d="
M 18.5 25.85
Q 17.5 24.9 16 24.9 14.5 24.9 13.4 25.85 12.45 26.95 12.45 28.45 12.45 29.95 13.4 30.95 14.5 32 16 32 17.5 32 18.5 30.95 19.55 29.95 19.55 28.45 19.55 26.95 18.5 25.85
M 16 19.55
Q 17.5 19.55 18.5 18.5 19.55 17.5 19.55 16 19.55 14.5 18.5 13.4 17.5 12.45 16 12.45 14.5 12.45 13.4 13.4 12.45 14.5 12.45 16 12.45 17.5 13.4 18.5 14.5 19.55 16 19.55
M 16 7.1
Q 17.5 7.1 18.5 6.05 19.55 5.05 19.55 3.55 19.55 2.05 18.5 1 17.5 0 16 0 14.5 0 13.4 1 12.45 2.05 12.45 3.55 12.45 5.05 13.4 6.05 14.5 7.1 16 7.1 Z"/>
</g>
</defs>

<g transform="matrix( 1, 0, 0, 1, 0,0) ">
<g transform="matrix( 1, 0, 0, 1, 0,0) ">
<use xlink:href="#iconTextMore_0_Layer1_0_FILL"/>
</g>

<g transform="matrix( 1, 0, 0, 1, 0,0) ">
<use xlink:href="#iconTextMore_0_Layer0_0_FILL"/>
</g>
</g>
</svg>
