
<svg xmlns="http://www.w3.org/2000/svg" version="1.1" xmlns:xlink="http://www.w3.org/1999/xlink" preserveAspectRatio="none" x="0px" y="0px" width="15px" height="15px" viewBox="0 0 15 15">
<defs>
<g id="icon_openwindow_0_Layer1_0_FILL">
<path fill="#FFFFFF" fill-opacity="0" stroke="none" d="
M 15 4.95
L 0 4.95 0 15 15 15 15 4.95
M 0 0
L 0 4.95 15 4.95 15 0 0 0 Z"/>
</g>

<g id="icon_openwindow_0_Layer0_0_FILL">
<path fill="#FFFFFF" stroke="none" d="
M 11 4
L 11 1 0 1 0 13 11 13 11 10 10 10 10 12 1 12 1 2 10 2 10 4 11 4
M 12 2
L 12 5 11 5
Q 6.166015625 5.162890625 6.05 7.35 5.9396484375 9.54609375 9 11 6.1197265625 7.271875 11 7
L 12 7 12 10 15 6 12 2 Z"/>
</g>
</defs>

<g transform="matrix( 1, 0, 0, 1, 0,0) ">
<g transform="matrix( 1, 0, 0, 1, 0,0) ">
<use xlink:href="#icon_openwindow_0_Layer1_0_FILL"/>
</g>

<g transform="matrix( 1, 0, 0, 1, 0,0) ">
<use xlink:href="#icon_openwindow_0_Layer0_0_FILL"/>
</g>
</g>
</svg>
