
<svg xmlns="http://www.w3.org/2000/svg" version="1.1" xmlns:xlink="http://www.w3.org/1999/xlink" preserveAspectRatio="none" x="0px" y="0px" width="64px" height="64px" viewBox="0 0 64 64">
<defs>
<g id="iconLeftside_0_Layer1_0_FILL">
<path fill="#FFFFFF" stroke="none" d="
M 19.85 -5
Q 19.8 -5 19.7 -5
L 6.5 -5
Q 0 -5 0 1.5
L 0 52.5
Q 0 59 6.5 59
L 57.5 59
Q 64 59 64 52.5
L 64 1.5
Q 64 -5 57.5 -5
L 19.85 -5
M 25.3 -2
L 57.5 -2
Q 61 -2 61 1.5
L 61 52.5
Q 61 56 57.5 56
L 25.3 56
Q 26 54.6 26 52.5
L 26 1.5
Q 26 -0.6 25.3 -2 Z"/>
</g>
</defs>

<g transform="matrix( 1, 0, 0, 1, 0,5) ">
<g transform="matrix( 1, 0, 0, 1, 0,0) ">
<use xlink:href="#iconLeftside_0_Layer1_0_FILL"/>
</g>
</g>
</svg>
