
<svg xmlns="http://www.w3.org/2000/svg" version="1.1" xmlns:xlink="http://www.w3.org/1999/xlink" preserveAspectRatio="none" x="0px" y="0px" width="32px" height="32px" viewBox="0 0 32 32">
<defs>
<g id="iconTextOutdent_0_Layer1_0_FILL">
<path fill="#FFFFFF" fill-opacity="0" stroke="none" d="
M 0 0
L 0 32 32 32 32 0 0 0 Z"/>
</g>

<g id="iconTextOutdent_0_Layer0_0_FILL">
<path fill="#FFFFFF" stroke="none" d="
M 11 14
L 2 20.5 11 27 11 14
M 14 23
L 14 27 30 27 30 23 14 23
M 30 9
L 30 5 2 5 2 9 30 9
M 30 18
L 30 14 14 14 14 18 30 18 Z"/>
</g>
</defs>

<g transform="matrix( 1, 0, 0, 1, 0,0) ">
<g transform="matrix( 1, 0, 0, 1, 0,0) ">
<use xlink:href="#iconTextOutdent_0_Layer1_0_FILL"/>
</g>

<g transform="matrix( 1, 0, 0, 1, 0,0) ">
<use xlink:href="#iconTextOutdent_0_Layer0_0_FILL"/>
</g>
</g>
</svg>
