
<svg xmlns="http://www.w3.org/2000/svg" version="1.1" xmlns:xlink="http://www.w3.org/1999/xlink" preserveAspectRatio="none" x="0px" y="0px" width="64px" height="64px" viewBox="0 0 64 64">
<defs>
<g id="iconFullscreen_0_Layer1_0_FILL">
<path fill="#FFFFFF" stroke="none" d="
M 6.5 -5
Q 3.28046875 -4.9947265625 1.7 -3.3 0.0052734375 -1.71953125 0 1.5
L 0 52.5
Q 0.0052734375 55.7193359375 1.7 57.3 3.28046875 58.99453125 6.5 59
L 57.5 59
Q 60.7193359375 58.99453125 62.3 57.3 63.99453125 55.7193359375 64 52.5
L 64 1.5
Q 63.99453125 -1.71953125 62.3 -3.3 60.7193359375 -4.9947265625 57.5 -5
L 6.5 -5
M 3.8 -1.2
Q 4.7181640625 -2.00546875 6.5 -2
L 57.5 -2
Q 59.281640625 -2.00546875 60.2 -1.2 61.0052734375 -0.2818359375 61 1.5
L 61 52.5
Q 61.0052734375 54.281640625 60.2 55.2 59.281640625 56.0052734375 57.5 56
L 6.5 56
Q 4.7181640625 56.0052734375 3.8 55.2 2.99453125 54.281640625 3 52.5
L 3 1.5
Q 2.99453125 -0.2818359375 3.8 -1.2
M 10 38.5
Q 9.383984375 38.5052734375 8.95 38.95 8.5052734375 39.383984375 8.5 40
L 8.5 49
Q 8.5052734375 49.616015625 8.95 50.05 9.383984375 50.4947265625 10 50.5
L 19 50.5
Q 19.616015625 50.4947265625 20.05 50.05 20.4947265625 49.616015625 20.5 49 20.4947265625 48.383984375 20.05 47.95 19.616015625 47.5052734375 19 47.5
L 13.6 47.5 22.05 39.05
Q 22.49453125 38.6158203125 22.5 38 22.4947265625 37.383984375 22.05 36.95 21.616015625 36.5052734375 21 36.5 20.383984375 36.5052734375 19.95 36.95
L 11.5 45.4 11.5 40
Q 11.4947265625 39.383984375 11.05 38.95 10.616015625 38.5052734375 10 38.5
M 22.5 16
Q 22.49453125 15.383984375 22.05 14.95
L 13.6 6.5 19 6.5
Q 19.616015625 6.4947265625 20.05 6.05 20.4947265625 5.616015625 20.5 5 20.4947265625 4.383984375 20.05 3.95 19.616015625 3.5052734375 19 3.5
L 10 3.5
Q 9.383984375 3.5052734375 8.95 3.95 8.5052734375 4.383984375 8.5 5
L 8.5 14
Q 8.5052734375 14.616015625 8.95 15.05 9.383984375 15.4947265625 10 15.5 10.616015625 15.4947265625 11.05 15.05 11.4947265625 14.616015625 11.5 14
L 11.5 8.6 19.95 17.05
Q 20.383984375 17.49453125 21 17.5 21.616015625 17.4947265625 22.05 17.05 22.4947265625 16.616015625 22.5 16
M 44.05 36.95
Q 43.6158203125 36.5052734375 43 36.5 42.383984375 36.5052734375 41.95 36.95 41.5052734375 37.383984375 41.5 38 41.5052734375 38.6158203125 41.95 39.05
L 50.4 47.5 45 47.5
Q 44.383984375 47.5052734375 43.95 47.95 43.5052734375 48.383984375 43.5 49 43.5052734375 49.616015625 43.95 50.05 44.383984375 50.4947265625 45 50.5
L 54 50.5
Q 54.616015625 50.4947265625 55.05 50.05 55.4947265625 49.616015625 55.5 49
L 55.5 40
Q 55.4947265625 39.383984375 55.05 38.95 54.616015625 38.5052734375 54 38.5 53.383984375 38.5052734375 52.95 38.95 52.5052734375 39.383984375 52.5 40
L 52.5 45.4 44.05 36.95
M 55.05 3.95
Q 54.616015625 3.5052734375 54 3.5
L 45 3.5
Q 44.383984375 3.5052734375 43.95 3.95 43.5052734375 4.383984375 43.5 5 43.5052734375 5.616015625 43.95 6.05 44.383984375 6.4947265625 45 6.5
L 50.4 6.5 41.95 14.95
Q 41.5052734375 15.383984375 41.5 16 41.5052734375 16.616015625 41.95 17.05 42.383984375 17.4947265625 43 17.5 43.6158203125 17.49453125 44.05 17.05
L 52.5 8.6 52.5 14
Q 52.5052734375 14.616015625 52.95 15.05 53.383984375 15.4947265625 54 15.5 54.616015625 15.4947265625 55.05 15.05 55.4947265625 14.616015625 55.5 14
L 55.5 5
Q 55.4947265625 4.383984375 55.05 3.95 Z"/>
</g>
</defs>

<g transform="matrix( 1, 0, 0, 1, 0,5) ">
<g transform="matrix( 1, 0, 0, 1, 0,0) ">
<use xlink:href="#iconFullscreen_0_Layer1_0_FILL"/>
</g>
</g>
</svg>
