
<svg xmlns="http://www.w3.org/2000/svg" version="1.1" xmlns:xlink="http://www.w3.org/1999/xlink" preserveAspectRatio="none" x="0px" y="0px" width="64px" height="64px" viewBox="0 0 64 64">
<defs>
<g id="user_0_Layer1_0_FILL">
<path fill="#FFFFFF" stroke="none" d="
M 43.7 30.05
Q 48.65 25.05 48.65 18 48.65 10.95 43.7 6 38.7 1 31.65 1 24.6 1 19.65 6 14.65 10.95 14.65 18 14.65 25.05 19.65 30.05 21.25 31.65 23.1 32.75 18.2 34.55 14.2 38.55 8.4 44.3 7.25 52 7.05 57.6 7 63.6 7 63.8 7 64
L 12 64
Q 12.05 57.8 12.35 52 13.4 46.4 17.75 42.1 23.5 36.3 31.65 36.3 39.75 36.3 45.55 42.1 49.85 46.4 50.95 52 51.25 57.8 51.3 64
L 56.3 64
Q 56.3 63.8 56.3 63.6 56.25 57.6 56.05 52 54.85 44.3 49.1 38.55 45.1 34.55 40.2 32.75 42.05 31.65 43.7 30.05
M 31.65 6
Q 36.6 6 40.15 9.55 43.65 13.05 43.65 18 43.65 22.95 40.15 26.5 36.6 30 31.65 30 26.7 30 23.2 26.5 19.65 22.95 19.65 18 19.65 13.05 23.2 9.55 26.7 6 31.65 6 Z"/>
</g>

<g id="user_0_Layer0_0_FILL">
<path fill="#FFFFFF" fill-opacity="0" stroke="none" d="
M 64 0
L 0 0 0 64 64 64 64 0 Z"/>
</g>
</defs>

<g transform="matrix( 1, 0, 0, 1, 0,0) ">
<g transform="matrix( 1, 0, 0, 1, 0,0) ">
<use xlink:href="#user_0_Layer1_0_FILL"/>
</g>

<g transform="matrix( 1, 0, 0, 1, 0,0) ">
<use xlink:href="#user_0_Layer0_0_FILL"/>
</g>
</g>
</svg>
