
<svg xmlns="http://www.w3.org/2000/svg" version="1.1" xmlns:xlink="http://www.w3.org/1999/xlink" preserveAspectRatio="none" x="0px" y="0px" width="64px" height="64px" viewBox="0 0 64 64">
<defs>
<g id="iconArchive_0_Layer1_0_FILL">
<path fill="#FFFFFF" stroke="none" d="
M 24 -2
Q 23.46640625 -1.998828125 23 -1.75
L -0.75 12.1 -0.8 12.15
Q -0.8509765625 12.1783203125 -0.95 12.2
L -1.4 12.5
Q -1.4025390625 12.5529296875 -1.45 12.55 -2.00546875 13.166015625 -2 14 -2.00078125 14.0568359375 -2 14.1
L -2 60
Q -2.00546875 60.8337890625 -1.45 61.4 -0.833984375 62.0052734375 0 62
L 36.05 62 36.3 61.95
Q 36.8359375 61.906640625 37.25 61.55
L 61 47.7
Q 61.457421875 47.4599609375 61.7 47 61.99609375 46.53203125 62 46
L 62 0
Q 62.0052734375 -0.833984375 61.4 -1.45 60.8337890625 -2.00546875 60 -2
L 24 -2
M 58 2.3
L 58 44.85 38 56.5 38 14 58 2.3
M 37 12.25
Q 36.5533203125 11.9962890625 36 12
L 7.35 12 24.5 2 54.55 2 37 12.25
M 2 36
L 2 16 34 16 34 36 2 36
M 2 38
L 34 38 34 58 2 58 2 38
M 25 48
L 10 48 10 52 25 52 25 48
M 10 26
L 10 30 25 30 25 26 10 26 Z"/>
</g>

<g id="iconArchive_0_Layer0_0_FILL">
<path fill="#FFFFFF" fill-opacity="0" stroke="none" d="
M 62 -2
L -2 -2 -2 62 62 62 62 -2 Z"/>
</g>
</defs>

<g transform="matrix( 1, 0, 0, 1, 2,2) ">
<g transform="matrix( 1, 0, 0, 1, 0,0) ">
<use xlink:href="#iconArchive_0_Layer1_0_FILL"/>
</g>

<g transform="matrix( 1, 0, 0, 1, 0,0) ">
<use xlink:href="#iconArchive_0_Layer0_0_FILL"/>
</g>
</g>
</svg>
