
<svg xmlns="http://www.w3.org/2000/svg" version="1.1" xmlns:xlink="http://www.w3.org/1999/xlink" preserveAspectRatio="none" x="0px" y="0px" width="64px" height="64px" viewBox="0 0 64 64">
<defs>
<g id="iconArrow_0_Layer1_0_FILL">
<path fill="#FFFFFF" stroke="none" d="
M 62.55 27.95
Q 61.1 26.5 59.1 26.5
L 17.55 26.5 35.95 9.5 29.4 2.4 1.9 27.8
Q 1.35 28.25 1 28.95
L 0.8 29.3
Q 0.65 29.6 0.55 29.95
L 0.55 30.05 0.45 30.85
Q 0.35 31.35 0.45 31.95 0.5 32.85 1 33.65 1.4 34.175 1.8 34.7
L 29.25 62.55 36.1 55.8 16.75 36.15 59.1 36.15
Q 61.1 36.15 62.55 34.75 63.95 33.3 63.95 31.3 63.95 29.35 62.55 27.95 Z"/>
</g>

<g id="iconArrow_0_Layer0_0_FILL">
<path fill="#FFFFFF" fill-opacity="0" stroke="none" d="
M 64 0
L 0 0 0 64 64 64 64 0 Z"/>
</g>
</defs>

<g transform="matrix( 1, 0, 0, 1, 0,0) ">
<g transform="matrix( 1, 0, 0, 1, 0,0) ">
<use xlink:href="#iconArrow_0_Layer1_0_FILL"/>
</g>

<g transform="matrix( 1, 0, 0, 1, 0,0) ">
<use xlink:href="#iconArrow_0_Layer0_0_FILL"/>
</g>
</g>
</svg>
