
<svg xmlns="http://www.w3.org/2000/svg" version="1.1" xmlns:xlink="http://www.w3.org/1999/xlink" preserveAspectRatio="none" x="0px" y="0px" width="64px" height="64px" viewBox="0 0 64 64">
<defs>
<g id="iconShare_0_Layer1_0_FILL">
<path fill="#FFFFFF" fill-opacity="0" stroke="none" d="
M 4.2 23.05
L 4.2 33 16.1 33 16.1 23.05 4.2 23.05 Z"/>
</g>

<g id="iconShare_0_Layer0_0_FILL">
<path fill="#FFFFFF" stroke="none" d="
M 44.7 31.95
Q 44.7 33 44.95 34
L 19.2 48.8
Q 16.8 46.5 13.4 46.5 9.95 46.5 7.45 48.9 5 51.4 5 54.9 5 58.35 7.45 60.8 9.95 63.3 13.4 63.3 16.9 63.3 19.3 60.8 21.8 58.35 21.8 54.9 21.8 54 21.65 53.2
L 47.6 38.3
Q 49.95 40.35 53.1 40.35 56.55 40.35 59 37.85 61.5 35.4 61.5 31.95 61.5 28.5 59 26 56.55 23.55 53.1 23.55 49.75 23.55 47.3 25.9
L 21.55 11.2
Q 21.8 10.2 21.8 9.05 21.8 5.6 19.3 3.1 16.9 0.65 13.4 0.65 9.95 0.65 7.45 3.1 5 5.6 5 9.05 5 12.5 7.45 14.95 9.95 17.45 13.4 17.45 16.55 17.45 18.8 15.45
L 44.85 30.3
Q 44.7 31.1 44.7 31.95 Z"/>
</g>
</defs>

<g transform="matrix( 1, 0, 0, 1, 0,0) ">
<g transform="matrix( 5.3781585693359375, 0, 0, 6.432159423828125, -22.6,-148.25) ">
<use xlink:href="#iconShare_0_Layer1_0_FILL"/>
</g>

<g transform="matrix( 1, 0, 0, 1, 0,0) ">
<use xlink:href="#iconShare_0_Layer0_0_FILL"/>
</g>
</g>
</svg>
