
<svg xmlns="http://www.w3.org/2000/svg" version="1.1" xmlns:xlink="http://www.w3.org/1999/xlink" preserveAspectRatio="none" x="0px" y="0px" width="25px" height="25px" viewBox="0 0 25 25">
<defs>
<g id="icon_sourcecode_0_Layer1_0_FILL">
<path fill="#FFFFFF" fill-opacity="0" stroke="none" d="
M 25 25
L 25 0 0 0 0 25 25 25 Z"/>
</g>

<g id="icon_sourcecode_0_Layer0_0_FILL">
<path fill="#FFFFFF" stroke="none" d="
M 25 12.55
Q 25 7.35 21.35 3.7 17.7 0.05 12.5 0.05 7.3 0.05 3.65 3.7 0 7.35 0 12.55 0 17.75 3.65 21.4 7.3 25.05 12.5 25.05 17.7 25.05 21.35 21.4 25 17.75 25 12.55
M 23 11.85
L 23 13.15 15.55 16.35 15.55 15 21.45 12.5 15.55 10.05 15.55 8.7 23 11.85
M 13.6 6.55
L 14.7 6.55 11.4 18.25 10.3 18.25 13.6 6.55
M 9.45 8.7
L 9.45 10.05 3.55 12.5 9.45 15 9.45 16.35 2 13.15 2 11.85 9.45 8.7 Z"/>
</g>
</defs>

<g transform="matrix( 1, 0, 0, 1, 0,0) ">
<g transform="matrix( 1, 0, 0, 1, 0,0) ">
<use xlink:href="#icon_sourcecode_0_Layer1_0_FILL"/>
</g>

<g transform="matrix( 1, 0, 0, 1, 0,0) ">
<use xlink:href="#icon_sourcecode_0_Layer0_0_FILL"/>
</g>
</g>
</svg>
