
<svg xmlns="http://www.w3.org/2000/svg" version="1.1" xmlns:xlink="http://www.w3.org/1999/xlink" preserveAspectRatio="none" x="0px" y="0px" width="36px" height="36px" viewBox="0 0 36 36">
<defs>
<g id="arrow_0_Layer1_0_FILL">
<path fill="#FFFFFF" stroke="none" d="
M 23.6 12.1
Q 23.423046875 12.13203125 23.3 12.3
L 19.25 17.7
Q 19.150390625 17.833203125 19.15 18 19.15 18.1658203125 19.25 18.3
L 23.3 23.75
Q 23.42265625 23.91796875 23.6 23.95 23.83125 23.9771484375 24 23.85 24.16796875 23.727734375 24.2 23.5 24.2265625 23.31875 24.1 23.15
L 20.25 18 24.1 12.9
Q 24.2267578125 12.7314453125 24.2 12.5 24.1685546875 12.323046875 24 12.2 23.83203125 12.073046875 23.6 12.1 Z"/>
</g>

<g id="arrow_0_Layer0_0_FILL">
<path fill="#2B2B2B" fill-opacity="0" stroke="none" d="
M 5 0
L 5 36 27 36 27 0 5 0 Z"/>
</g>
</defs>

<g transform="matrix( -1, 0, 0, 1, 36,0) ">
<g transform="matrix( 2.38983154296875, 0, 0, 2.38983154296875, -35.75,-25) ">
<use xlink:href="#arrow_0_Layer1_0_FILL"/>
</g>

<g transform="matrix( 1, 0, 0, 1, 0,0) ">
<use xlink:href="#arrow_0_Layer0_0_FILL"/>
</g>
</g>
</svg>
