
<svg xmlns="http://www.w3.org/2000/svg" version="1.1" xmlns:xlink="http://www.w3.org/1999/xlink" preserveAspectRatio="none" x="0px" y="0px" width="64px" height="64px" viewBox="0 0 64 64">
<defs>
<g id="Layer1_0_FILL">
<path fill="#FFFFFF" stroke="none" d="
M 17 0
Q 15.75 0 14.85 0.85 14 1.75 14 3
L 14 13
Q 14 14.25 14.85 15.1 15.75 16 17 16 18.25 16 19.1 15.1 20 14.25 20 13
L 20 3
Q 20 1.75 19.1 0.85 18.25 0 17 0
M 47 0
Q 45.75 0 44.85 0.85 44 1.75 44 3
L 44 13
Q 44 14.25 44.85 15.1 45.75 16 47 16 48.25 16 49.1 15.1 50 14.25 50 13
L 50 3
Q 50 1.75 49.1 0.85 48.25 0 47 0
M 57.5 7.9
Q 56.031640625 7.05 53.7 7.05
L 52 7.05 52 14.25
Q 52 15.8 50.5 16.9 49.1 18 47 18 44.9 18 43.4 16.9 42 15.8 42 14.25
L 42 7 22 7 22 14.25
Q 22 15.8 20.5 16.9 19.1 18 17 18 14.9 18 13.4 16.9 12 15.8 12 14.25
L 12 7.05 10.25 7.05
Q 10.0724609375 7.05 9.9 7.05 7.840625 7.1130859375 6.5 7.9 5.3693359375 8.554296875 4.75 9.7 4 11.1349609375 4 13.3
L 4 57.7
Q 4 64 10.25 64
L 53.7 64
Q 60 64 60 57.7
L 60 13.3
Q 60 9.3630859375 57.5 7.9
M 8.7 59.85
Q 8 59.5 8 58.5
L 8 22 56 22 56 58.55
Q 55.994921875 58.7986328125 55.95 59 55.8392578125 59.516796875 55.45 59.8 55.1 60 54.5 60
L 9.5 60
Q 9 60 8.7 59.85
M 18 32
L 18 40 26 40 26 32 18 32 Z"/>
</g>

<g id="Layer0_0_FILL">
<path fill="#FFFFFF" fill-opacity="0.24705882352941178" stroke="none" d="
M 48 22
L 46 22 46 30 38 30 38 22 36 22 36 30 28 30 28 22 26 22 26 30 18 30 18 22 16 22 16 30 8 30 8 32 16 32 16 40 8 40 8 42 16 42 16 50 8 50 8 52 16 52 16 60 18 60 18 52 26 52 26 60 28 60 28 52 36 52 36 60 38 60 38 52 46 52 46 60 48 60 48 52 56 52 56 50 48 50 48 42 56 42 56 40 48 40 48 32 56 32 56 30 48 30 48 22
M 46 32
L 46 40 38 40 38 32 46 32
M 18 40
L 18 32 26 32 26 40 18 40
M 36 40
L 28 40 28 32 36 32 36 40
M 28 42
L 36 42 36 50 28 50 28 42
M 18 42
L 26 42 26 50 18 50 18 42
M 46 50
L 38 50 38 42 46 42 46 50 Z"/>
</g>
</defs>

<g transform="matrix( 1, 0, 0, 1, 0,0) ">
<use xlink:href="#Layer1_0_FILL"/>
</g>

<g transform="matrix( 1, 0, 0, 1, 0,0) ">
<use xlink:href="#Layer0_0_FILL"/>
</g>
</svg>
