
<svg xmlns="http://www.w3.org/2000/svg" version="1.1" xmlns:xlink="http://www.w3.org/1999/xlink" preserveAspectRatio="none" x="0px" y="0px" width="64px" height="64px" viewBox="0 0 64 64">
<defs>
<g id="iconBoards_0_Layer0_0_FILL">
<path fill="#FFFFFF" stroke="none" d="
M 37 44
L 27 44
Q 22 44 22 49
L 22 59
Q 22 64 27 64
L 37 64
Q 42 64 42 59
L 42 49
Q 42 44 37 44
M 15 44
L 5 44
Q 0 44 0 49
L 0 59
Q 0 64 5 64
L 15 64
Q 20 64 20 59
L 20 49
Q 20 44 15 44
M 15 22
L 5 22
Q 0 22 0 27
L 0 37
Q 0 42 5 42
L 15 42
Q 20 42 20 37
L 20 27
Q 20 22 15 22
M 20 5
Q 20 0 15 0
L 5 0
Q 0 0 0 5
L 0 15
Q 0 20 5 20
L 15 20
Q 20 20 20 15
L 20 5
M 42 37
L 42 27
Q 42 22 37 22
L 27 22
Q 22 22 22 27
L 22 37
Q 22 42 27 42
L 37 42
Q 42 42 42 37
M 59 44
L 49 44
Q 44 44 44 49
L 44 59
Q 44 64 49 64
L 59 64
Q 64 64 64 59
L 64 49
Q 64 44 59 44
M 59 22
L 49 22
Q 44 22 44 27
L 44 37
Q 44 42 49 42
L 59 42
Q 64 42 64 37
L 64 27
Q 64 22 59 22
M 42 15
L 42 5
Q 42 0 37 0
L 27 0
Q 22 0 22 5
L 22 15
Q 22 20 27 20
L 37 20
Q 42 20 42 15
M 64 15
L 64 5
Q 64 0 59 0
L 49 0
Q 44 0 44 5
L 44 15
Q 44 20 49 20
L 59 20
Q 64 20 64 15 Z"/>
</g>
</defs>

<g transform="matrix( 1, 0, 0, 1, 0,0) ">
<g transform="matrix( 1, 0, 0, 1, 0,0) ">
<use xlink:href="#iconBoards_0_Layer0_0_FILL"/>
</g>
</g>
</svg>
