
<svg xmlns="http://www.w3.org/2000/svg" version="1.1" xmlns:xlink="http://www.w3.org/1999/xlink" preserveAspectRatio="none" x="0px" y="0px" width="64px" height="64px" viewBox="0 0 64 64">
<defs>
<g id="Layer2_0_FILL">
<path fill="#FFFFFF" stroke="none" d="
M 44 16
L 56 16 39 0 39 11
Q 39 16 44 16
M 56 18.95
L 41.85 18.95
Q 35.95 18.95 35.95 13.05
L 35.95 0 14 0
Q 9 0 9 5
L 9 59
Q 9 64 14 64
L 51 64
Q 56 64 56 59
L 56 18.95
M 45.1 34.25
L 46.8 34.25 46.8 43.95
Q 46.8 49.75 41.25 49.75 39.3 49.75 37.85 49
L 37.85 47.35
Q 39.6 48.3 41.2 48.3 45.1 48.3 45.1 44.2
L 45.1 43.05 45.05 43.05
Q 43.85 45.05 41.45 45.05 39.5 45.05 38.3 43.65 37.1 42.25 37.1 39.9 37.1 37.2 38.4 35.6 39.65 34.05 41.9 34.05 44.05 34.05 45.05 35.75
L 45.1 35.75 45.1 34.25
M 16.6 47.85
Q 17.4 48.3 18.05 48.3 20.35 48.3 20.35 44.65
L 20.35 34.25 22.05 34.25 22.05 44.35
Q 22.05 46.95 21 48.35 19.95 49.75 18 49.75 17.3 49.75 16.6 49.45
L 16.6 47.85
M 30.8 34.05
Q 32.85 34.05 34 35.45 35.15 36.85 35.15 39.25 35.15 41.85 33.85 43.45 32.55 45.05 30.35 45.05 28.3 45.05 27.2 43.3
L 27.15 43.3 27.15 49.65 25.45 49.65 25.45 34.25 27.15 34.25 27.15 36.1 27.2 36.1
Q 28.45 34.05 30.8 34.05
M 22 29.75
Q 22.35 30.05 22.35 30.5 22.35 30.95 22 31.3 21.7 31.6 21.2 31.6 20.75 31.6 20.45 31.3 20.15 31 20.15 30.5 20.15 30.05 20.45 29.75 20.75 29.4 21.2 29.4 21.7 29.4 22 29.75
M 32.6 36.45
Q 31.8 35.45 30.4 35.45 28.95 35.45 28.05 36.45 27.15 37.5 27.15 39.05
L 27.15 40.5
Q 27.15 41.8 28 42.7 28.85 43.65 30.15 43.65 31.7 43.65 32.55 42.45 33.4 41.3 33.4 39.2 33.4 37.45 32.6 36.45
M 44.25 36.35
Q 43.4 35.45 42.15 35.45 40.6 35.45 39.7 36.6 38.8 37.7 38.8 39.75 38.8 41.5 39.65 42.6 40.5 43.65 41.9 43.65 43.35 43.65 44.2 42.6 45.1 41.6 45.1 40.05
L 45.1 38.5
Q 45.1 37.25 44.25 36.35 Z"/>
</g>

<g id="Layer0_0_FILL">
<path fill="#FFFFFF" fill-opacity="0" stroke="none" d="
M 0 0
L 0 64 64 64 64 0 0 0 Z"/>
</g>
</defs>

<g transform="matrix( 1, 0, 0, 1, 0,0) ">
<use xlink:href="#Layer2_0_FILL"/>
</g>

<g transform="matrix( 1, 0, 0, 1, 0,0) ">
<use xlink:href="#Layer0_0_FILL"/>
</g>
</svg>
