
<svg xmlns="http://www.w3.org/2000/svg" version="1.1" xmlns:xlink="http://www.w3.org/1999/xlink" preserveAspectRatio="none" x="0px" y="0px" width="64px" height="64px" viewBox="0 0 64 64">
<defs>
<g id="user_0_Layer1_0_FILL">
<path fill="#FFFFFF" stroke="none" d="
M 38.65 21.45
Q 38.656640625 15.6173828125 34.5 11.45 30.382421875 7.3431640625 24.55 7.35 18.7880859375 7.343359375 14.6 11.45
L 14.55 11.5
Q 10.500390625 15.6310546875 10.5 21.45 10.4974609375 27.28671875 14.55 31.35 15.8271484375 32.623828125 17.2 33.5 12.7767578125 35.2611328125 9.15 39.3 3.28359375 45.9501953125 2.95 55.1 2.933984375 55.6708984375 3.2 56.15 3.4572265625 56.6365234375 3.9 56.9 4.40078125 57.2033203125 4.95 57.2
L 44.2 57.2
Q 44.74921875 57.2033203125 45.2 56.9 45.6927734375 56.6365234375 45.95 56.15 46.216015625 55.6708984375 46.2 55.1 45.869921875 45.9494140625 39.95 39.3 36.346484375 35.2521484375 31.9 33.5 33.269140625 32.618359375 34.5 31.35
L 34.5 31.35
Q 38.646875 27.2703125 38.65 21.45
M 31.65 14.3
Q 34.643359375 17.2826171875 34.65 21.45 34.6529296875 25.6119140625 31.7 28.5
L 31.65 28.55
Q 28.716015625 31.548828125 24.55 31.55 20.4255859375 31.536328125 17.4 28.5 14.50234375 25.6130859375 14.5 21.45 14.499609375 17.2865234375 17.4 14.3
L 17.4 14.3
Q 20.429296875 11.3564453125 24.55 11.35 28.7171875 11.3564453125 31.65 14.3
M 24.55 36.15
Q 31.8166015625 36.1708984375 36.95 41.95 41.2482421875 46.787109375 42.05 53.2
L 7.1 53.2
Q 7.8916015625 46.7865234375 12.15 41.95 17.3283203125 36.170703125 24.55 36.15
M 53.9 18.1
Q 53.903515625 12.28515625 49.75 8.1
L 49.75 8.05
Q 45.61875 4.000390625 39.8 4 38.25 4 38 4 37.166015625 3.99453125 36.55 4.55 35.99453125 5.166015625 36 6 35.99453125 6.8337890625 36.55 7.4 37.166015625 8.0052734375 38 8 38.25 8 39.8 8 43.9634765625 7.999609375 46.9 10.9
L 46.95 10.9
Q 49.8962890625 13.932421875 49.9 18.1 49.9029296875 22.2619140625 46.95 25.15
L 46.9 25.2
Q 45.137890625 27.030859375 42.9 27.75 42.42265625 27.8982421875 42.1 28.2 41.4111328125 28.56328125 41.1 29.25 40.8318359375 30.043359375 41.15 30.8 41.5080078125 31.566015625 42.25 31.85 47.498046875 33.9005859375 51.4 38.5
L 51.4 38.55
Q 56.0255859375 44.144921875 56.35 51.9 56.3876953125 52.7564453125 57 53.3 57.60546875 53.8857421875 58.4 53.85 59.2560546875 53.8130859375 59.8 53.2 60.38515625 52.594140625 60.35 51.75 59.975 42.573828125 54.5 35.95
L 54.45 35.95
Q 51.338671875 32.2203125 47.45 29.9 48.6685546875 29.1259765625 49.75 28
L 49.75 28
Q 53.896875 23.9203125 53.9 18.1 Z"/>
</g>

<g id="user_0_Layer0_0_FILL">
<path fill="#FFFFFF" fill-opacity="0" stroke="none" d="
M 64 0
L 0 0 0 64 64 64 64 0 Z"/>
</g>
</defs>

<g transform="matrix( 1, 0, 0, 1, 0,0) ">
<g transform="matrix( 1, 0, 0, 1, 0,0) ">
<use xlink:href="#user_0_Layer1_0_FILL"/>
</g>

<g transform="matrix( 1, 0, 0, 1, 0,0) ">
<use xlink:href="#user_0_Layer0_0_FILL"/>
</g>
</g>
</svg>
