<svg xmlns="http://www.w3.org/2000/svg">


<style type="text/css">
    path:not(.svg-nocolor){fill:currentColor}
    use:not(.svg-nocolor):visited{color:currentColor}
    use:not(.svg-nocolor):hover{color:currentColor}
    use:not(.svg-nocolor):active{color:currentColor}
</style>


<defs>
<g id="btn_arrow_down_0_Layer1_0_FILL">
<path fill="#FFFFFF" stroke="none" d="
M 0 3
L 16 16 32 3 29 0 16 11 3 0 0 3 Z"/>
</g>

<g id="btn_arrow_down_0_Layer0_0_FILL">
<path fill="#FFFFFF" fill-opacity="0" stroke="none" d="
M 32 -8
L 0 -8 0 24 32 24 32 -8 Z"/>
</g>

<g id="btn_arrow_up_0_Layer1_0_FILL">
<path fill="#FFFFFF" stroke="none" d="
M 32 13
L 16 0 0 13 3 16 16 5 29 16 32 13 Z"/>
</g>

<g id="btn_arrow_up_0_Layer0_0_FILL">
<path fill="#FFFFFF" fill-opacity="0" stroke="none" d="
M 32 -8
L 0 -8 0 24 32 24 32 -8 Z"/>
</g>

<g id="icon_account_0_Layer1_0_FILL">
<path fill="#FFFFFF" fill-opacity="0" stroke="none" d="
M 15 0
L 0 0 0 15 15 15 15 0 Z"/>
</g>

<g id="icon_account_0_Layer0_0_FILL">
<path fill="#FFFFFF" stroke="none" d="
M 12.15 3.95
Q 11.9 3.6 11.65 3.35 10.9 2.65 10.05 2.25
L 10.5 1
Q 10.7 0.6 10.2 0.35
L 9.65 0.1
Q 9.05 -0.2 8.85 0.25
L 8.25 1.75
Q 7.9 1.7 7.55 1.7 6.5 1.7 5.6 2.05
L 5.05 0.75
Q 4.85 0.35 4.35 0.5
L 3.8 0.75
Q 3.15 0.95 3.25 1.45
L 4 2.9
Q 3.7 3.1 3.45 3.35 2.7 4.15 2.3 5.05
L 1 4.55
Q 0.6 4.35 0.35 4.85
L 0.1 5.4
Q -0.2 6 0.25 6.2
L 1.8 6.85
Q 1.75 7.15 1.75 7.5 1.75 8.5 2.05 9.45
L 0.75 9.95
Q 0.35 10.15 0.5 10.65
L 0.75 11.2
Q 0.95 11.85 1.45 11.75
L 2.95 11
Q 3.15 11.35 3.45 11.6 4.2 12.35 5.1 12.75
L 4.6 14
Q 4.4 14.4 4.9 14.65
L 5.45 14.9
Q 6.05 15.2 6.3 14.75
L 6.85 13.25
Q 7.2 13.3 7.55 13.3 8.55 13.3 9.5 13
L 10 14.25
Q 10.2 14.65 10.7 14.5
L 11.3 14.25
Q 11.9 14.05 11.8 13.55
L 11.1 12.1
Q 11.4 11.85 11.65 11.6
L 11.7 11.6
Q 12.4 10.85 12.85 10
L 14 10.45
Q 14.4 10.65 14.65 10.15
L 14.9 9.6
Q 15.2 9 14.75 8.8
L 13.3 8.2
Q 13.35 7.85 13.35 7.5 13.35 6.5 13.05 5.55
L 14.25 5.05
Q 14.65 4.85 14.5 4.35
L 14.25 3.8
Q 14.05 3.15 13.55 3.25
L 12.15 3.95
M 5.35 5.3
Q 6.3 4.4 7.55 4.4 8.85 4.4 9.7 5.3 10.6 6.15 10.6 7.5 10.6 8.8 9.7 9.65 8.85 10.55 7.55 10.55 6.3 10.55 5.35 9.65 4.5 8.8 4.5 7.5 4.5 6.2 5.35 5.3 Z"/>
</g>

<g id="icon_add_0_Layer1_0_FILL">
<path fill="#FFFFFF" fill-opacity="0" stroke="none" d="
M 0 0
L 0 15 15 15 15 0 0 0 Z"/>
</g>

<g id="icon_add_0_Layer0_0_FILL">
<path fill="#FFFFFF" stroke="none" d="
M 15 8
L 15 7 8 7 8 0 7 0 7 7 0 7 0 8 7 8 7 15 8 15 8 8 15 8 Z"/>
</g>

<g id="iconAddSmall_0_Layer1_0_FILL">
<path fill="#FFFFFF" fill-opacity="0" stroke="none" d="
M 22 0
L 0 0 0 22 22 22 22 0 Z"/>
</g>

<g id="iconAddSmall_0_Layer0_0_FILL">
<path fill="#FFFFFF" stroke="none" d="
M 22 12
L 22 10 12 10 12 0 10 0 10 10 0 10 0 12 10 12 10 22 12 22 12 12 22 12 Z"/>
</g>

<g id="icon_alerts_0_Layer1_0_FILL">
<path fill="#FFFFFF" fill-opacity="0" stroke="none" d="
M 25 0
L 0 0 0 25 25 25 25 0 Z"/>
</g>

<g id="icon_alerts_0_Layer0_0_FILL">
<path fill="#FFFFFF" stroke="none" d="
M 25 12.5
Q 25 7.35 21.3 3.7 17.85 0.15 12.85 0 12.7 0 12.45 0
L 12.4 0
Q 7.25 0.05 3.65 3.7 0 7.35 0 12.5 0 17.65 3.65 21.3 7.25 25 12.4 25
L 12.45 25
Q 12.7 25 12.85 25 17.85 24.85 21.35 21.3
L 21.3 21.3
Q 25 17.65 25 12.5
M 12.25 5.4
Q 12.2 5.25 12.2 5.1 12.2 4.85 12.4 4.65 12.55 4.45 12.85 4.45
L 12.9 4.45
Q 13.2 4.45 13.35 4.65 13.55 4.85 13.55 5.1 13.55 5.25 13.5 5.4 17.15 6.1 17.4 10.5
L 17.4 14.65
Q 17.85 15.8 19.35 16.2 20.45 16.7 20.2 17.45
L 14.5 17.45
Q 14.45 18.05 14 18.45 13.55 18.95 12.85 18.95 12.2 18.95 11.7 18.45 11.3 18.05 11.25 17.45
L 5.55 17.45
Q 5.3 16.7 6.4 16.2 7.85 15.8 8.35 14.65
L 8.35 10.5
Q 8.6 6.1 12.25 5.4 Z"/>
</g>

<g id="icon_arrow_down_0_Layer0_0_FILL">
<path fill="#FFFFFF" stroke="none" d="
M 8 5
L 16 0 0 0 8 5 Z"/>
</g>

<g id="arrow_0_Layer1_0_FILL">
<path fill="#FFFFFF" stroke="none" d="
M 23.6 12.1
Q 23.423046875 12.13203125 23.3 12.3
L 19.25 17.7
Q 19.150390625 17.833203125 19.15 18 19.15 18.1658203125 19.25 18.3
L 23.3 23.75
Q 23.42265625 23.91796875 23.6 23.95 23.83125 23.9771484375 24 23.85 24.16796875 23.727734375 24.2 23.5 24.2265625 23.31875 24.1 23.15
L 20.25 18 24.1 12.9
Q 24.2267578125 12.7314453125 24.2 12.5 24.1685546875 12.323046875 24 12.2 23.83203125 12.073046875 23.6 12.1 Z"/>
</g>

<g id="arrow_0_Layer0_0_FILL">
<path fill="#2B2B2B" fill-opacity="0" stroke="none" d="
M 5 0
L 5 36 27 36 27 0 5 0 Z"/>
</g>

<g id="arrow_0_Layer1_0_FILL">
<path fill="#FFFFFF" stroke="none" d="
M 23.6 12.1
Q 23.423046875 12.13203125 23.3 12.3
L 19.25 17.7
Q 19.150390625 17.833203125 19.15 18 19.15 18.1658203125 19.25 18.3
L 23.3 23.75
Q 23.42265625 23.91796875 23.6 23.95 23.83125 23.9771484375 24 23.85 24.16796875 23.727734375 24.2 23.5 24.2265625 23.31875 24.1 23.15
L 20.25 18 24.1 12.9
Q 24.2267578125 12.7314453125 24.2 12.5 24.1685546875 12.323046875 24 12.2 23.83203125 12.073046875 23.6 12.1 Z"/>
</g>

<g id="arrow_0_Layer0_0_FILL">
<path fill="#2B2B2B" fill-opacity="0" stroke="none" d="
M 5 0
L 5 36 27 36 27 0 5 0 Z"/>
</g>

<g id="chat_single_left_0_Layer1_0_FILL">
<path fill="#FFFFFF" stroke="none" d="
M 60.3 12.65
Q 60.3 3.7 51.35 3.7
L 12.65 3.7
Q 3.7 3.7 3.7 12.65
L 3.7 35.2
Q 3.7 44.15 12.65 44.15
L 19.25 44.15
Q 18.15 46.4 16.4 49.15 15.9 49.9 16.05 50.85 16.15 51.7 16.8 52.35 17.45 52.95 18.4 53 35.3 53.9 39.3 44.05
L 51.35 44.15
Q 60.3 44.15 60.3 35.2
L 60.3 12.65
M 55.3 35.2
Q 55.3 39.1 51.35 39.15
L 37.55 39
Q 36.7 39 36.05 39.5 35.35 40 35.1 40.8 32.8 47.4 22.9 48 24.55 44.85 25.35 42.4 25.6 41.65 25.35 40.9 25.05 40.1 24.4 39.65 23.75 39.15 22.95 39.15
L 12.65 39.15
Q 8.7 39.15 8.7 35.2
L 8.7 12.65
Q 8.7 8.7 12.65 8.7
L 51.35 8.7
Q 55.3 8.7 55.3 12.65
L 55.3 35.2 Z"/>
</g>

<g id="chat_single_left_0_Layer0_0_FILL">
<path fill="#FFFFFF" fill-opacity="0" stroke="none" d="
M 0 0
L 0 64 64 64 64 0 0 0 Z"/>
</g>

<g id="icon_0_Layer1_0_FILL">
<path fill="#FFFFFF" fill-opacity="0.9882352941176471" stroke="none" d="
M 32 4.2
L 27.65 0 15.85 11.8 4.2 0.15 0 4.35 11.65 16 0 27.65 4.2 31.85 15.85 20.2 27.65 32 31.85 27.8 20.2 16.15 32 4.2 Z"/>
</g>

<g id="icon_0_Layer0_0_FILL">
<path fill="#FFFFFF" fill-opacity="0" stroke="none" d="
M 32 0
L 0 0 0 32 32 32 32 0 Z"/>
</g>

<g id="icon_collapse_0_Layer1_0_FILL">
<path fill="#FFFFFF" fill-opacity="0" stroke="none" d="
M 0 0
L 0 15 15 15 15 0 0 0 Z"/>
</g>

<g id="icon_collapse_0_Layer0_0_FILL">
<path fill="#FFFFFF" stroke="none" d="
M 13 7.95
L 13 6 2 6 2 7.95 13 7.95 Z"/>
</g>

<g id="icon_cycle_0_Layer1_0_FILL">
<path fill="#FFFFFF" fill-opacity="0" stroke="none" d="
M 25 0
L 0 0 0 25 25 25 25 0 Z"/>
</g>

<g id="icon_cycle_0_Layer0_0_FILL">
<path fill="#FFFFFF" stroke="none" d="
M 0.05 23
L 2.15 20.9 3.1 20 5 18.15 0 18 0.05 23 Z"/>

<path fill="#FFFFFF" fill-opacity="0.9882352941176471" stroke="none" d="
M 10.55 2
Q 14.85 2 17.9 5.05 21 8.1 21 12.5 21 16.9 17.9 19.95 14.85 23.05 10.55 23.05 6.2 23.05 3.1 20
L 2.15 20.9 1.7 21.4
Q 5.4 25 10.55 25 15.65 25 19.3 21.35 23 17.7 23 12.5 23 7.3 19.3 3.65 15.65 0 10.55 0 5.35 0 1.7 3.65
L 3.1 5.05
Q 6.15 2 10.55 2 Z"/>
</g>

<g id="icon_dots_0_Layer1_0_FILL">
<path fill="#FFFFFF" stroke="none" d="
M 11.5 14.45
Q 10.05 13 8 13 5.95 13 4.45 14.45 3 15.95 3 18 3 20.05 4.45 21.5 5.95 23 8 23 10.05 23 11.5 21.5 13 20.05 13 18 13 15.95 11.5 14.45
M 24 13
Q 21.95 13 20.45 14.45 19 15.95 19 18 19 20.05 20.45 21.5 21.95 23 24 23 26.05 23 27.5 21.5 29 20.05 29 18 29 15.95 27.5 14.45 26.05 13 24 13
M 43.5 21.5
Q 45 20.05 45 18 45 15.95 43.5 14.45 42.05 13 40 13 37.95 13 36.45 14.45 35 15.95 35 18 35 20.05 36.45 21.5 37.95 23 40 23 42.05 23 43.5 21.5 Z"/>
</g>

<g id="icon_dots_0_Layer0_0_FILL">
<path fill="#FFFFFF" fill-opacity="0" stroke="none" d="
M 48 36
L 48 0 0 0 0 36 48 36 Z"/>
</g>

<g id="icon_expand_0_Layer1_0_FILL">
<path fill="#FFFFFF" fill-opacity="0" stroke="none" d="
M 0 0
L 0 15 15 15 15 0 0 0 Z"/>
</g>

<g id="icon_expand_0_Layer0_0_FILL">
<path fill="#FFFFFF" fill-opacity="0.4980392156862745" stroke="none" d="
M 15 0
L 0 0 0 15 15 15 15 0
M 14 14
L 1 14 1 1 14 1 14 14 Z"/>

<path fill="#FFFFFF" stroke="none" d="
M 11 8
L 11 7 8 7 8 4 7 4 7 7 4 7 4 8 7 8 7 11 8 11 8 8 11 8 Z"/>
</g>

<g id="iconHelp_0_Layer1_0_FILL">
<path fill="#FFFFFF" fill-opacity="0" stroke="none" d="
M 18 18
L 18 0 0 0 0 18 18 18 Z"/>
</g>

<g id="iconHelp_0_Layer0_0_FILL">
<path fill="#FFFFFF" stroke="none" d="
M 18 9.25
L 18 8.8
Q 17.9 5.15 15.35 2.6 12.85 0.1 9.25 0
L 8.8 0
Q 5.15 0.1 2.6 2.6 0.1 5.15 0 8.8
L 0 9.25
Q 0.1 12.85 2.6 15.35 5.15 17.9 8.8 18
L 9.25 18
Q 12.85 17.9 15.35 15.35 17.9 12.85 18 9.25
M 13.95 4.05
Q 16 6.1 16 9 16 11.95 13.95 13.95 11.9 16 9 16 6.1 16 4.05 13.95 2 11.95 2 9 2 6.1 4.05 4.05 6.1 2 9 2 11.9 2 13.95 4.05
M 9.75 11.85
L 8.25 11.85 8.25 13.35 9.75 13.35 9.75 11.85
M 10.35 8.4
Q 11.3 7.65 11.65 7.15 11.95 6.75 11.95 6.25 11.95 5.35 11.1 4.65 10.3 3.95 8.95 3.95 7.6 3.95 6.8 4.65 6 5.35 5.95 6.3
L 7.45 6.45
Q 7.55 5.8 7.95 5.45 8.4 5.15 9 5.15 9.6 5.15 10 5.4 10.4 5.75 10.4 6.2 10.4 6.55 10.15 6.8 10 6.95 9.3 7.5 8.65 8.05 8.4 8.45 8.15 8.9 8.15 9.55 8.15 9.6 8.15 9.95
L 9.6 9.95
Q 9.6 9.3 9.7 9.05 9.85 8.85 10.35 8.4 Z"/>
</g>

<g id="icon_logout_0_Layer1_0_FILL">
<path fill="#FFFFFF" fill-opacity="0" stroke="none" d="
M 15 15
L 15 0 0 0 0 15 15 15 Z"/>
</g>

<g id="icon_logout_0_Layer0_0_FILL">
<path fill="#FFFFFF" stroke="none" d="
M 8 0
L 7 0
Q 3.78203125 2.49765625 0 4 2.6984375 13.0283203125 7 15
L 8 15
Q 12.2927734375 13.3693359375 15 4 11.1759765625 2.434375 8 0
M 7 3
L 8 3 8 9 7.5 12.3 7 9 7 3 Z"/>
</g>

<g id="icon_options_0_Layer1_0_FILL">
<path fill="#FFFFFF" fill-opacity="0" stroke="none" d="
M 0 0
L 0 25 25 25 25 0 0 0 Z"/>
</g>

<g id="icon_options_0_Layer0_0_FILL">
<path fill="#FFFFFF" stroke="none" d="
M 21.35 9.1
L 23.25 8.3
Q 24 7.95 23.7 7.15
L 23.3 6.15
Q 23 5.15 22.2 5.45
L 19.9 6.5
Q 19.5 6 19.05 5.55 17.9 4.4 16.5 3.7
L 17.3 1.75
Q 17.6 1 16.75 0.6
L 15.75 0.2
Q 14.85 -0.3 14.45 0.5
L 13.55 2.9
Q 12.95 2.8 12.35 2.8 10.65 2.8 9.15 3.35
L 8.35 1.4
Q 8 0.65 7.2 0.95
L 6.2 1.35
Q 5.2 1.65 5.5 2.45
L 6.55 4.8
Q 6.05 5.15 5.65 5.55 4.4 6.8 3.75 8.25
L 1.75 7.4
Q 1 7.1 0.6 7.95
L 0.2 8.95
Q -0.3 9.85 0.5 10.25
L 2.9 11.2
Q 2.85 11.7 2.85 12.3 2.85 14 3.4 15.5
L 1.4 16.3
Q 0.65 16.65 0.95 17.45
L 1.35 18.45
Q 1.65 19.45 2.45 19.15
L 4.9 18.1
Q 5.25 18.55 5.65 18.95 6.85 20.2 8.3 20.9
L 7.45 22.9
Q 7.15 23.65 8 24.05
L 9 24.45
Q 9.9 24.95 10.3 24.15
L 11.25 21.75
Q 11.8 21.8 12.35 21.8 14.1 21.8 15.6 21.3
L 16.4 23.25
Q 16.75 24 17.55 23.7
L 18.55 23.3
Q 19.55 23 19.25 22.2
L 18.2 19.8
Q 18.65 19.4 19.05 19
L 19.1 18.95
Q 20.25 17.8 20.95 16.45
L 22.9 17.25
Q 23.65 17.55 24.05 16.7
L 24.45 15.7
Q 24.95 14.8 24.15 14.4
L 21.8 13.5
Q 21.85 12.9 21.85 12.3 21.85 10.6 21.35 9.1
M 17.65 6.95
Q 19.9 9.15 19.9 12.3 19.9 15.4 17.65 17.55 15.5 19.8 12.35 19.8 9.25 19.8 7.05 17.55 4.85 15.4 4.85 12.3 4.85 9.2 7.05 7
L 7.1 6.95
Q 9.3 4.75 12.35 4.75 15.5 4.75 17.65 6.95 Z"/>
</g>

<g id="icon_photos_0_Layer1_0_FILL">
<path fill="#FFFFFF" fill-opacity="0" stroke="none" d="
M 36 0
L 0 0 0 36 36 36 36 0 Z"/>
</g>

<g id="icon_photos_0_Layer0_0_FILL">
<path fill="#FFFFFF" stroke="none" d="
M 25.05 1.15
Q 23.9 0 22.25 0
L 13.85 0
Q 12.2 0 11 1.15 9.85 2.35 9.85 4 9.85 4.1 9.85 4.2
L 7 4.2
Q 0 4.2 0 11.1
L 0 24.3
Q 0 31.2 7 31.2
L 29 31.2
Q 36 31.2 36 24.3
L 36 11.1
Q 36 4.2 29 4.2
L 26.25 4.2
Q 26.25 4.1 26.25 4 26.25 2.35 25.05 1.15
M 31.5 10.5
Q 30.9 10.5 30.45 10.05 30.05 9.65 30.05 9.05 30.05 8.45 30.45 8 30.9 7.6 31.5 7.6 32.1 7.6 32.5 8 32.95 8.45 32.95 9.05 32.95 9.65 32.5 10.05 32.1 10.5 31.5 10.5
M 27.1 17.25
Q 27.1 21 24.4 23.65 21.75 26.35 18 26.35 14.25 26.35 11.55 23.65 8.9 21 8.9 17.25 8.9 13.5 11.55 10.8 14.25 8.15 18 8.15 21.75 8.15 24.4 10.8 27.1 13.5 27.1 17.25
M 23.15 22.4
Q 25.35 20.3 25.35 17.25 25.35 14.2 23.15 12.05 21.05 9.9 18 9.9 14.95 9.9 12.8 12.05 10.65 14.2 10.65 17.25 10.65 20.3 12.8 22.4 14.95 24.6 18 24.6 21.05 24.6 23.15 22.4
M 22.45 12.75
Q 24.35 14.65 24.35 17.25 24.35 19.85 22.45 21.7 20.6 23.6 18 23.6 15.4 23.6 13.5 21.7 11.65 19.85 11.65 17.25 11.65 14.65 13.5 12.75 15.4 10.9 18 10.9 20.6 10.9 22.45 12.75 Z"/>
</g>

<g id="Layer1_0_FILL">
<path fill="#FFFFFF" fill-opacity="0" stroke="none" d="
M 0 0
L 0 25 25 25 25 0 0 0 Z"/>
</g>

<g id="Layer0_0_FILL">
<path fill="#FFFFFF" fill-opacity="0.9882352941176471" stroke="none" d="
M 24 13
L 24 11 13 11 13 0 11 0 11 11 0 11 0 13 11 13 11 24 13 24 13 13 24 13 Z"/>
</g>

<g id="iconRemove_0_Layer1_0_FILL">
<path fill="#FFFFFF" fill-opacity="0" stroke="none" d="
M 0 0
L 0 25 25 25 25 0 0 0 Z"/>
</g>

<g id="iconRemove_0_Layer0_0_FILL">
<path fill="#FFFFFF" stroke="none" d="
M 25 5
L 21 0 12.5 8.5 4 0 0 5 8 13 0 21 5 25 12.5 17.5 15 20
Q 19.35 24 25 25 24.2 21 21 17
L 17 13 25 5 Z"/>
</g>

<g id="icon_search_0_Layer1_0_FILL">
<path fill="#FFFFFF" fill-opacity="0" stroke="none" d="
M 25 0
L 0 0 0 25 25 25 25 0 Z"/>
</g>

<g id="icon_search_0_Layer0_0_FILL">
<path fill="#FFFFFF" fill-opacity="0.9882352941176471" stroke="none" d="
M 25 9.5
Q 25 5.6 22.2 2.8 19.4 0 15.5 0 11.6 0 8.8 2.8 6 5.6 6 9.5 6 12.3 7.45 14.55
L 0 22 2.8 24.85 10.25 17.4
Q 12.55 19 15.5 19 19.4 19 22.2 16.25
L 22.25 16.2
Q 25 13.4 25 9.5
M 23.05 9.5
Q 23.05 12.65 20.8 14.8 18.65 17.05 15.5 17.05 12.4 17.05 10.15 14.8 8 12.65 8 9.5 8 6.45 10.15 4.2
L 10.2 4.15
Q 12.45 2 15.5 2 18.65 2 20.8 4.15 23.05 6.4 23.05 9.5 Z"/>
</g>

<g id="icon_settings_0_Layer1_0_FILL">
<path fill="#FFFFFF" fill-opacity="0" stroke="none" d="
M 0 0
L 0 36 36 36 36 0 0 0 Z"/>
</g>

<g id="icon_settings_0_Layer0_0_FILL">
<path fill="#FFFFFF" stroke="none" d="
M 33.4 11.85
Q 34.5 11.45 34.05 10.25
L 33.5 8.85
Q 33.05 7.4 31.85 7.8
L 28.6 9.3
Q 28.05 8.6 27.4 7.95 25.7 6.25 23.7 5.3
L 24.8 2.5
Q 25.2 1.4 24.05 0.85
L 22.65 0.25
Q 21.3 -0.45 20.8 0.65
L 19.45 4.1
Q 18.6 4 17.75 4 15.3 4 13.15 4.75
L 11.95 2
Q 11.55 0.9 10.35 1.35
L 8.95 1.9
Q 7.5 2.35 7.9 3.55
L 9.4 6.85
Q 8.7 7.35 8.1 7.95 6.35 9.75 5.35 11.85
L 2.5 10.65
Q 1.4 10.25 0.85 11.4
L 0.25 12.8
Q -0.45 14.15 0.65 14.65
L 4.2 16.05
Q 4.1 16.8 4.1 17.65 4.1 20.1 4.85 22.2
L 2 23.45
Q 0.9 23.85 1.35 25.05
L 1.9 26.45
Q 2.35 27.9 3.55 27.5
L 7 26
Q 7.5 26.6 8.1 27.2 9.85 29 11.95 30
L 10.75 32.9
Q 10.35 34 11.5 34.55
L 12.9 35.15
Q 14.25 35.85 14.75 34.75
L 16.15 31.2
Q 16.95 31.3 17.75 31.3 20.2 31.3 22.4 30.55
L 23.6 33.4
Q 24 34.5 25.2 34.05
L 26.6 33.5
Q 28.05 33.05 27.65 31.85
L 26.15 28.45
Q 26.8 27.9 27.4 27.3
L 27.45 27.2
Q 29.1 25.55 30.1 23.6
L 32.9 24.75
Q 34 25.15 34.55 24
L 35.15 22.6
Q 35.85 21.25 34.75 20.75
L 31.3 19.4
Q 31.4 18.55 31.4 17.65 31.4 15.2 30.65 13.05
L 33.4 11.85
M 25.35 9.95
Q 28.6 13.15 28.6 17.65 28.6 22.1 25.35 25.2 22.3 28.45 17.75 28.45 13.3 28.45 10.15 25.2 6.95 22.1 6.95 17.65 6.95 13.2 10.15 10.05
L 10.2 9.95
Q 13.35 6.8 17.75 6.8 22.3 6.8 25.35 9.95
M 24.45 10.85
L 24.45 10.8
Q 21.765234375 8.051953125 17.75 8.05 13.8408203125 8.0521484375 11.05 10.85 8.2013671875 13.6916015625 8.2 17.65 8.1947265625 21.5587890625 11 24.3
L 11.05 24.3
Q 13.7892578125 27.1529296875 17.75 27.15 21.7845703125 27.140234375 24.45 24.25
L 24.45 24.3
Q 27.305078125 21.5763671875 27.3 17.65 27.298828125 13.64140625 24.45 10.85
M 23 12.25
L 23.05 12.25
Q 25.3013671875 14.4767578125 25.3 17.65 25.2947265625 20.7236328125 23.05 22.85 23.0373046875 22.9013671875 23 22.9 20.9154296875 25.159375 17.75 25.15 14.628515625 25.146875 12.45 22.9
L 12.45 22.85
Q 10.205078125 20.7236328125 10.2 17.65 10.1986328125 14.5083984375 12.45 12.25 14.6591796875 10.0478515625 17.75 10.05 20.9162109375 10.0478515625 23 12.25 Z"/>

<path fill="#FFFFFF" fill-opacity="0" stroke="none" d="
M 28.6 17.65
Q 28.6 13.15 25.35 9.95 22.3 6.8 17.75 6.8 13.35 6.8 10.2 9.95
L 10.15 10.05
Q 6.95 13.2 6.95 17.65 6.95 22.1 10.15 25.2 13.3 28.45 17.75 28.45 22.3 28.45 25.35 25.2 28.6 22.1 28.6 17.65
M 24.45 10.8
L 24.45 10.85
Q 27.298828125 13.64140625 27.3 17.65 27.305078125 21.5763671875 24.45 24.3
L 24.45 24.25
Q 21.7845703125 27.140234375 17.75 27.15 13.7892578125 27.1529296875 11.05 24.3
L 11 24.3
Q 8.1947265625 21.5587890625 8.2 17.65 8.2013671875 13.6916015625 11.05 10.85 13.8408203125 8.0521484375 17.75 8.05 21.765234375 8.051953125 24.45 10.8
M 23.05 12.25
L 23 12.25
Q 20.9162109375 10.0478515625 17.75 10.05 14.6591796875 10.0478515625 12.45 12.25 10.1986328125 14.5083984375 10.2 17.65 10.205078125 20.7236328125 12.45 22.85
L 12.45 22.9
Q 14.628515625 25.146875 17.75 25.15 20.9154296875 25.159375 23 22.9 23.0373046875 22.9013671875 23.05 22.85 25.2947265625 20.7236328125 25.3 17.65 25.3013671875 14.4767578125 23.05 12.25 Z"/>
</g>

<g id="icon_sourcecode_0_Layer1_0_FILL">
<path fill="#FFFFFF" fill-opacity="0" stroke="none" d="
M 25 25
L 25 0 0 0 0 25 25 25 Z"/>
</g>

<g id="icon_sourcecode_0_Layer0_0_FILL">
<path fill="#FFFFFF" stroke="none" d="
M 25 12.55
Q 25 7.35 21.35 3.7 17.7 0.05 12.5 0.05 7.3 0.05 3.65 3.7 0 7.35 0 12.55 0 17.75 3.65 21.4 7.3 25.05 12.5 25.05 17.7 25.05 21.35 21.4 25 17.75 25 12.55
M 23 11.85
L 23 13.15 15.55 16.35 15.55 15 21.45 12.5 15.55 10.05 15.55 8.7 23 11.85
M 13.6 6.55
L 14.7 6.55 11.4 18.25 10.3 18.25 13.6 6.55
M 9.45 8.7
L 9.45 10.05 3.55 12.5 9.45 15 9.45 16.35 2 13.15 2 11.85 9.45 8.7 Z"/>
</g>

<g id="star_border_0_Layer1_0_FILL">
<path fill="#FFFFFF" fill-opacity="0" stroke="none" d="
M 0 0
L 0 32 32 32 32 0 0 0 Z"/>
</g>

<g id="star_border_0_Layer0_0_FILL">
<path fill="#FFFFFF" stroke="none" d="
M 25.8 13.4
Q 25.7041015625 13.09296875 25.45 12.9 25.1927734375 12.7068359375 24.85 12.7
L 18.9 12.55 17 6.9
Q 16.892578125 6.6310546875 16.6 6.45 16.3666015625 6.2560546875 16.05 6.25 15.7341796875 6.2439453125 15.45 6.4 15.2095703125 6.6158203125 15.1 6.9
L 13.05 12.55 7.1 12.7
Q 6.8060546875 12.709765625 6.55 12.9 6.29765625 13.0939453125 6.2 13.4 6.10390625 13.70078125 6.2 14 6.2962890625 14.30234375 6.55 14.5
L 11.3 18.1 9.6 23.85
Q 9.503125 24.1759765625 9.6 24.45 9.7099609375 24.76953125 9.95 24.95 10.220703125 25.1416015625 10.5 25.15 10.85078125 25.155078125 11.1 24.95
L 16.05 21.55 20.9 24.95
Q 21.19921875 25.155078125 21.5 25.15 21.829296875 25.1416015625 22.05 24.95 22.33984375 24.76953125 22.45 24.45 22.546875 24.1759765625 22.45 23.85
L 20.75 18.1 25.45 14.5
Q 25.7048828125 14.3048828125 25.8 14 25.8982421875 13.7001953125 25.8 13.4
M 18.65 17.45
Q 18.555859375 17.7369140625 18.65 18
L 19.75 21.7 16.6 19.5
Q 16.364453125 19.348828125 16.05 19.35 15.735546875 19.348828125 15.45 19.5
L 12.3 21.7 13.4 18
Q 13.4921875 17.737890625 13.4 17.45 13.298828125 17.1474609375 13.05 16.95
L 10 14.6 13.8 14.55
Q 14.140625 14.5376953125 14.4 14.35 14.648828125 14.1673828125 14.75 13.85
L 16 10.3 17.25 13.85
Q 17.347265625 14.16875 17.6 14.35 17.8568359375 14.54140625 18.15 14.55
L 22 14.6 19 16.95
Q 18.749609375 17.145703125 18.65 17.45 Z"/>
</g>

<g id="star_border_0_Layer1_0_FILL">
<path fill="#FFFFFF" fill-opacity="0" stroke="none" d="
M 0 0
L 0 32 32 32 32 0 0 0 Z"/>
</g>

<g id="star_border_0_Layer0_0_FILL">
<path fill="#FFFFFF" stroke="none" d="
M 31.55 11.85
Q 31.29296875 11.6587890625 30.95 11.65
L 20.45 11.35 17 1.45
Q 16.8890625 1.1671875 16.6 0.95 16.3666015625 0.7951171875 16.05 0.8 15.733203125 0.7953125 15.45 0.95 15.210546875 1.16796875 15.1 1.45
L 11.55 11.35 1.05 11.65
Q 0.75703125 11.6587890625 0.5 11.85 0.246875 12.044140625 0.15 12.35 0.053125 12.6501953125 0.15 12.95 0.2458984375 13.2533203125 0.5 13.45
L 8.85 19.8 5.85 29.95
Q 5.753125 30.2759765625 5.85 30.55 5.96015625 30.86953125 6.2 31.05 6.4705078125 31.2416015625 6.75 31.25 7.1013671875 31.2546875 7.35 31.05
L 16.05 25.05 24.65 31.05
Q 24.9359375 31.2548828125 25.25 31.25 25.566015625 31.2423828125 25.8 31.05 26.0908203125 30.8693359375 26.2 30.55 26.296875 30.2759765625 26.2 29.95
L 23.2 19.8 31.55 13.45
Q 31.80390625 13.2533203125 31.9 12.95 31.9966796875 12.6501953125 31.9 12.35 31.803125 12.044140625 31.55 11.85
M 21.1 19.15
Q 21.0068359375 19.436328125 21.1 19.7
L 23.5 27.8 16.6 23
Q 16.3626953125 22.8484375 16.05 22.85 15.7375 22.8484375 15.45 23
L 8.55 27.8 10.95 19.7
Q 11.0431640625 19.436328125 10.95 19.15 10.8498046875 18.8466796875 10.6 18.65
L 3.95 13.55 12.3 13.35
Q 12.6419921875 13.337890625 12.9 13.15 13.148828125 12.967578125 13.25 12.65
L 16.05 4.8 18.8 12.65
Q 18.90078125 12.9666015625 19.15 13.15 19.4080078125 13.3376953125 19.7 13.35
L 28.1 13.55 21.45 18.65
Q 21.2 18.8466796875 21.1 19.15 Z"/>
</g>

<g id="star_0_Layer1_0_FILL">
<path fill="#FFFFFF" fill-opacity="0" stroke="none" d="
M 32 0
L 0 0 0 32 32 32 32 0 Z"/>
</g>

<g id="star_0_Layer0_0_FILL">
<path fill="#FFFFFF" stroke="none" d="
M 22.05 19.45
L 30.95 12.65 19.75 12.35 16.05 1.8 12.3 12.35 1.1 12.65 10 19.45 6.8 30.25 16.05 23.85 25.25 30.25 22.05 19.45 Z"/>
</g>

<path id="star_0_Layer0_0_1_STROKES" stroke="#FFFFFF" stroke-width="2" stroke-linejoin="round" stroke-linecap="round" d="
M 16.05 1.8
L 19.75 12.35 30.95 12.65 22.05 19.45 25.25 30.25 16.05 23.85 6.8 30.25 10 19.45 1.1 12.65 12.3 12.35 16.05 1.8 Z"/>

<g id="iconUpload_0_Layer1_0_FILL">
<path fill="#FFFFFF" fill-opacity="0" stroke="none" d="
M 25 0
L 0 0 0 25 25 25 25 0 Z"/>
</g>

<g id="iconUpload_0_Layer0_0_FILL">
<path fill="#FFFFFF" stroke="none" d="
M 6.55 14.05
L 10.05 14.05 10.05 25 15.05 25 15.05 14.05 18.55 14.05 12.55 8.05 6.55 14.05
M 23.05 2.05
L 23.05 17.05 16.05 17.05 16.05 19.05 25 19.05 25 0 0 0 0 19.05 9.05 19.05 9.05 17.05 2.05 17.05 2.05 2.05 23.05 2.05 Z"/>
</g>

<g id="user_0_Layer1_0_FILL">
<path fill="#FFFFFF" stroke="none" d="
M 43.7 30.05
Q 48.65 25.05 48.65 18 48.65 10.95 43.7 6 38.7 1 31.65 1 24.6 1 19.65 6 14.65 10.95 14.65 18 14.65 25.05 19.65 30.05 21.25 31.65 23.1 32.75 18.2 34.55 14.2 38.55 8.4 44.3 7.25 52 7.05 57.6 7 63.6 7 63.8 7 64
L 12 64
Q 12.05 57.8 12.35 52 13.4 46.4 17.75 42.1 23.5 36.3 31.65 36.3 39.75 36.3 45.55 42.1 49.85 46.4 50.95 52 51.25 57.8 51.3 64
L 56.3 64
Q 56.3 63.8 56.3 63.6 56.25 57.6 56.05 52 54.85 44.3 49.1 38.55 45.1 34.55 40.2 32.75 42.05 31.65 43.7 30.05
M 31.65 6
Q 36.6 6 40.15 9.55 43.65 13.05 43.65 18 43.65 22.95 40.15 26.5 36.6 30 31.65 30 26.7 30 23.2 26.5 19.65 22.95 19.65 18 19.65 13.05 23.2 9.55 26.7 6 31.65 6 Z"/>
</g>

<g id="user_0_Layer0_0_FILL">
<path fill="#FFFFFF" fill-opacity="0" stroke="none" d="
M 64 0
L 0 0 0 64 64 64 64 0 Z"/>
</g>
</defs><symbol id="btn-arrow-down" viewBox="0 0 32 32">


<g transform="matrix( 1, 0, 0, 1, 0,8) ">
<g transform="matrix( 1, 0, 0, 1, 0,0) ">
<use xlink:href="#btn_arrow_down_0_Layer1_0_FILL"/>
</g>

<g transform="matrix( 1, 0, 0, 1, 0,0) ">
<use xlink:href="#btn_arrow_down_0_Layer0_0_FILL"/>
</g>
</g>
</symbol><symbol id="btn-arrow-up" viewBox="0 0 32 32">


<g transform="matrix( 1, 0, 0, 1, 0,8) ">
<g transform="matrix( 1, 0, 0, 1, 0,0) ">
<use xlink:href="#btn_arrow_up_0_Layer1_0_FILL"/>
</g>

<g transform="matrix( 1, 0, 0, 1, 0,0) ">
<use xlink:href="#btn_arrow_up_0_Layer0_0_FILL"/>
</g>
</g>
</symbol><symbol id="icon-account" viewBox="0 0 15 15">


<g transform="matrix( 1, 0, 0, 1, 0,0) ">
<g transform="matrix( 1, 0, 0, 1, 0,0) ">
<use xlink:href="#icon_account_0_Layer1_0_FILL"/>
</g>

<g transform="matrix( 1, 0, 0, 1, 0,0) ">
<use xlink:href="#icon_account_0_Layer0_0_FILL"/>
</g>
</g>
</symbol><symbol id="icon-add" viewBox="0 0 15 15">


<g transform="matrix( 1, 0, 0, 1, 0,0) ">
<g transform="matrix( 1, 0, 0, 1, 0,0) ">
<use xlink:href="#icon_add_0_Layer1_0_FILL"/>
</g>

<g transform="matrix( 1, 0, 0, 1, 0,0) ">
<use xlink:href="#icon_add_0_Layer0_0_FILL"/>
</g>
</g>
</symbol><symbol id="icon-addsmall" viewBox="0 0 22 22">


<g transform="matrix( 1, 0, 0, 1, 0,0) ">
<g transform="matrix( 1, 0, 0, 1, 0,0) ">
<use xlink:href="#iconAddSmall_0_Layer1_0_FILL"/>
</g>

<g transform="matrix( 1, 0, 0, 1, 0,0) ">
<use xlink:href="#iconAddSmall_0_Layer0_0_FILL"/>
</g>
</g>
</symbol><symbol id="icon-alerts" viewBox="0 0 25 25">


<g transform="matrix( 1, 0, 0, 1, 0,0) ">
<g transform="matrix( 1, 0, 0, 1, 0,0) ">
<use xlink:href="#icon_alerts_0_Layer1_0_FILL"/>
</g>

<g transform="matrix( 1, 0, 0, 1, 0,0) ">
<use xlink:href="#icon_alerts_0_Layer0_0_FILL"/>
</g>
</g>
</symbol><symbol id="icon-arrow-down" viewBox="0 0 16 5">


<g transform="matrix( 1, 0, 0, 1, 0,0) ">
<g transform="matrix( 1, 0, 0, 1, 0,0) ">
<use xlink:href="#icon_arrow_down_0_Layer0_0_FILL"/>
</g>
</g>
</symbol><symbol id="icon-arrow-left" viewBox="0 0 36 36">


<g transform="matrix( 1, 0, 0, 1, 0,0) ">
<g transform="matrix( 2.38983154296875, 0, 0, 2.38983154296875, -35.75,-25) ">
<use xlink:href="#arrow_0_Layer1_0_FILL"/>
</g>

<g transform="matrix( 1, 0, 0, 1, 0,0) ">
<use xlink:href="#arrow_0_Layer0_0_FILL"/>
</g>
</g>
</symbol><symbol id="icon-arrow-right" viewBox="0 0 36 36">


<g transform="matrix( -1, 0, 0, 1, 36,0) ">
<g transform="matrix( 2.38983154296875, 0, 0, 2.38983154296875, -35.75,-25) ">
<use xlink:href="#arrow_0_Layer1_0_FILL"/>
</g>

<g transform="matrix( 1, 0, 0, 1, 0,0) ">
<use xlink:href="#arrow_0_Layer0_0_FILL"/>
</g>
</g>
</symbol><symbol id="icon-chat-single-left" viewBox="0 0 64 64">


<g transform="matrix( 1, 0, 0, 1, 0,0) ">
<g transform="matrix( 1, 0, 0, 1, 0,0) ">
<use xlink:href="#chat_single_left_0_Layer1_0_FILL"/>
</g>

<g transform="matrix( 1, 0, 0, 1, 0,0) ">
<use xlink:href="#chat_single_left_0_Layer0_0_FILL"/>
</g>
</g>
</symbol><symbol id="icon-close" viewBox="0 0 32 32">


<g transform="matrix( 1, 0, 0, 1, 0,0) ">
<g transform="matrix( 1, 0, 0, 1, 0,0) ">
<use xlink:href="#icon_0_Layer1_0_FILL"/>
</g>

<g transform="matrix( 1, 0, 0, 1, 0,0) ">
<use xlink:href="#icon_0_Layer0_0_FILL"/>
</g>
</g>
</symbol><symbol id="icon-collapse" viewBox="0 0 15 15">


<g transform="matrix( 1, 0, 0, 1, 0,0) ">
<g transform="matrix( 1, 0, 0, 1, 0,0) ">
<use xlink:href="#icon_collapse_0_Layer1_0_FILL"/>
</g>

<g transform="matrix( 1, 0, 0, 1, 0,0) ">
<use xlink:href="#icon_collapse_0_Layer0_0_FILL"/>
</g>
</g>
</symbol><symbol id="icon-cycle" viewBox="0 0 25 25">


<g transform="matrix( 1, 0, 0, 1, 0,0) ">
<g transform="matrix( 1, 0, 0, 1, 0,0) ">
<use xlink:href="#icon_cycle_0_Layer1_0_FILL"/>
</g>

<g transform="matrix( 1, 0, 0, 1, 0,0) ">
<use xlink:href="#icon_cycle_0_Layer0_0_FILL"/>
</g>
</g>
</symbol><symbol id="icon-dots" viewBox="0 0 48 36">


<g transform="matrix( 1, 0, 0, 1, 0,0) ">
<g transform="matrix( 1, 0, 0, 1, 0,0) ">
<use xlink:href="#icon_dots_0_Layer1_0_FILL"/>
</g>

<g transform="matrix( 1, 0, 0, 1, 0,0) ">
<use xlink:href="#icon_dots_0_Layer0_0_FILL"/>
</g>
</g>
</symbol><symbol id="icon-expand" viewBox="0 0 15 15">


<g transform="matrix( 1, 0, 0, 1, 0,0) ">
<g transform="matrix( 1, 0, 0, 1, 0,0) ">
<use xlink:href="#icon_expand_0_Layer1_0_FILL"/>
</g>

<g transform="matrix( 1, 0, 0, 1, 0,0) ">
<use xlink:href="#icon_expand_0_Layer0_0_FILL"/>
</g>
</g>
</symbol><symbol id="icon-help" viewBox="0 0 18 18">


<g transform="matrix( 1, 0, 0, 1, 0,0) ">
<g transform="matrix( 1, 0, 0, 1, 0,0) ">
<use xlink:href="#iconHelp_0_Layer1_0_FILL"/>
</g>

<g transform="matrix( 1, 0, 0, 1, 0,0) ">
<use xlink:href="#iconHelp_0_Layer0_0_FILL"/>
</g>
</g>
</symbol><symbol id="icon-logout" viewBox="0 0 15 15">


<g transform="matrix( 1, 0, 0, 1, 0,0) ">
<g transform="matrix( 1, 0, 0, 1, 0,0) ">
<use xlink:href="#icon_logout_0_Layer1_0_FILL"/>
</g>

<g transform="matrix( 1, 0, 0, 1, 0,0) ">
<use xlink:href="#icon_logout_0_Layer0_0_FILL"/>
</g>
</g>
</symbol><symbol id="icon-options" viewBox="0 0 25 25">


<g transform="matrix( 1, 0, 0, 1, 0.2,0.2) ">
<g transform="matrix( 1, 0, 0, 1, 0,0) ">
<use xlink:href="#icon_options_0_Layer1_0_FILL"/>
</g>

<g transform="matrix( 1, 0, 0, 1, 0,0) ">
<use xlink:href="#icon_options_0_Layer0_0_FILL"/>
</g>
</g>
</symbol><symbol id="icon-photos" viewBox="0 0 36 36">


<g transform="matrix( 1, 0, 0, 1, 0,0) ">
<g transform="matrix( 1, 0, 0, 1, 0,0) ">
<use xlink:href="#icon_photos_0_Layer1_0_FILL"/>
</g>

<g transform="matrix( 1, 0, 0, 1, 0,0) ">
<use xlink:href="#icon_photos_0_Layer0_0_FILL"/>
</g>
</g>
</symbol><symbol id="icon-plus" viewBox="0 0 25 25">


<g transform="matrix( 1, 0, 0, 1, 0,0) ">
<use xlink:href="#Layer1_0_FILL"/>
</g>

<g transform="matrix( 1, 0, 0, 1, 0,0) ">
<use xlink:href="#Layer0_0_FILL"/>
</g>
</symbol><symbol id="icon-remove" viewBox="0 0 25 25">


<g transform="matrix( 1, 0, 0, 1, 0,0) ">
<g transform="matrix( 1, 0, 0, 1, 0,0) ">
<use xlink:href="#iconRemove_0_Layer1_0_FILL"/>
</g>

<g transform="matrix( 1, 0, 0, 1, 0,0) ">
<use xlink:href="#iconRemove_0_Layer0_0_FILL"/>
</g>
</g>
</symbol><symbol id="icon-search" viewBox="0 0 25 25">


<g transform="matrix( 1, 0, 0, 1, 0,0) ">
<g transform="matrix( 1, 0, 0, 1, 0,0) ">
<use xlink:href="#icon_search_0_Layer1_0_FILL"/>
</g>

<g transform="matrix( 1, 0, 0, 1, 0,0) ">
<use xlink:href="#icon_search_0_Layer0_0_FILL"/>
</g>
</g>
</symbol><symbol id="icon-settings" viewBox="0 0 36 36">


<g transform="matrix( 1, 0, 0, 1, 0.3,0.3) ">
<g transform="matrix( 1, 0, 0, 1, 0,0) ">
<use xlink:href="#icon_settings_0_Layer1_0_FILL"/>
</g>

<g transform="matrix( 1, 0, 0, 1, 0,0) ">
<use xlink:href="#icon_settings_0_Layer0_0_FILL"/>
</g>
</g>
</symbol><symbol id="icon-sourcecode" viewBox="0 0 25 25">


<g transform="matrix( 1, 0, 0, 1, 0,0) ">
<g transform="matrix( 1, 0, 0, 1, 0,0) ">
<use xlink:href="#icon_sourcecode_0_Layer1_0_FILL"/>
</g>

<g transform="matrix( 1, 0, 0, 1, 0,0) ">
<use xlink:href="#icon_sourcecode_0_Layer0_0_FILL"/>
</g>
</g>
</symbol><symbol id="icon-star-border-sm" viewBox="0 0 32 32">


<g transform="matrix( 1, 0, 0, 1, 0,0) ">
<g transform="matrix( 1, 0, 0, 1, 0,0) ">
<use xlink:href="#star_border_0_Layer1_0_FILL"/>
</g>

<g transform="matrix( 1, 0, 0, 1, 0,0) ">
<use xlink:href="#star_border_0_Layer0_0_FILL"/>
</g>
</g>
</symbol><symbol id="icon-star-border" viewBox="0 0 32 32">


<g transform="matrix( 1, 0, 0, 1, 0,0) ">
<g transform="matrix( 1, 0, 0, 1, 0,0) ">
<use xlink:href="#star_border_0_Layer1_0_FILL"/>
</g>

<g transform="matrix( 1, 0, 0, 1, 0,0) ">
<use xlink:href="#star_border_0_Layer0_0_FILL"/>
</g>
</g>
</symbol><symbol id="icon-star" viewBox="0 0 32 32">


<g transform="matrix( 1, 0, 0, 1, 0,0) ">
<g transform="matrix( 1, 0, 0, 1, 0,0) ">
<use xlink:href="#star_0_Layer1_0_FILL"/>
</g>

<g transform="matrix( 1, 0, 0, 1, 0,0) ">
<use xlink:href="#star_0_Layer0_0_FILL"/>

<use xlink:href="#star_0_Layer0_0_1_STROKES"/>
</g>
</g>
</symbol><symbol id="icon-upload" viewBox="0 0 25 25">


<g transform="matrix( 1, 0, 0, 1, 0,0) ">
<g transform="matrix( 1, 0, 0, 1, 0,0) ">
<use xlink:href="#iconUpload_0_Layer1_0_FILL"/>
</g>

<g transform="matrix( 1, 0, 0, 1, 0,0) ">
<use xlink:href="#iconUpload_0_Layer0_0_FILL"/>
</g>
</g>
</symbol><symbol id="icon-user" viewBox="0 0 64 64">


<g transform="matrix( 1, 0, 0, 1, 0,0) ">
<g transform="matrix( 1, 0, 0, 1, 0,0) ">
<use xlink:href="#user_0_Layer1_0_FILL"/>
</g>

<g transform="matrix( 1, 0, 0, 1, 0,0) ">
<use xlink:href="#user_0_Layer0_0_FILL"/>
</g>
</g>
</symbol></svg>