<svg xmlns="http://www.w3.org/2000/svg">


<style type="text/css">
    path:not(.svg-nocolor){fill:currentColor}
    use:not(.svg-nocolor):visited{color:currentColor}
    use:not(.svg-nocolor):hover{color:currentColor}
    use:not(.svg-nocolor):active{color:currentColor}
</style>


<defs>
<g id="btn_arrow_down_0_Layer1_0_FILL">
<path fill="#FFFFFF" stroke="none" d="
M 0 3
L 16 16 32 3 29 0 16 11 3 0 0 3 Z"/>
</g>

<g id="btn_arrow_down_0_Layer0_0_FILL">
<path fill="#FFFFFF" fill-opacity="0" stroke="none" d="
M 32 -8
L 0 -8 0 24 32 24 32 -8 Z"/>
</g>

<g id="btn_arrow_up_0_Layer1_0_FILL">
<path fill="#FFFFFF" stroke="none" d="
M 32 13
L 16 0 0 13 3 16 16 5 29 16 32 13 Z"/>
</g>

<g id="btn_arrow_up_0_Layer0_0_FILL">
<path fill="#FFFFFF" fill-opacity="0" stroke="none" d="
M 32 -8
L 0 -8 0 24 32 24 32 -8 Z"/>
</g>

<g id="icon_account_0_Layer1_0_FILL">
<path fill="#FFFFFF" fill-opacity="0" stroke="none" d="
M 15 0
L 0 0 0 15 15 15 15 0 Z"/>
</g>

<g id="icon_account_0_Layer0_0_FILL">
<path fill="#FFFFFF" stroke="none" d="
M 12.15 3.95
Q 11.9 3.6 11.65 3.35 10.9 2.65 10.05 2.25
L 10.5 1
Q 10.7 0.6 10.2 0.35
L 9.65 0.1
Q 9.05 -0.2 8.85 0.25
L 8.25 1.75
Q 7.9 1.7 7.55 1.7 6.5 1.7 5.6 2.05
L 5.05 0.75
Q 4.85 0.35 4.35 0.5
L 3.8 0.75
Q 3.15 0.95 3.25 1.45
L 4 2.9
Q 3.7 3.1 3.45 3.35 2.7 4.15 2.3 5.05
L 1 4.55
Q 0.6 4.35 0.35 4.85
L 0.1 5.4
Q -0.2 6 0.25 6.2
L 1.8 6.85
Q 1.75 7.15 1.75 7.5 1.75 8.5 2.05 9.45
L 0.75 9.95
Q 0.35 10.15 0.5 10.65
L 0.75 11.2
Q 0.95 11.85 1.45 11.75
L 2.95 11
Q 3.15 11.35 3.45 11.6 4.2 12.35 5.1 12.75
L 4.6 14
Q 4.4 14.4 4.9 14.65
L 5.45 14.9
Q 6.05 15.2 6.3 14.75
L 6.85 13.25
Q 7.2 13.3 7.55 13.3 8.55 13.3 9.5 13
L 10 14.25
Q 10.2 14.65 10.7 14.5
L 11.3 14.25
Q 11.9 14.05 11.8 13.55
L 11.1 12.1
Q 11.4 11.85 11.65 11.6
L 11.7 11.6
Q 12.4 10.85 12.85 10
L 14 10.45
Q 14.4 10.65 14.65 10.15
L 14.9 9.6
Q 15.2 9 14.75 8.8
L 13.3 8.2
Q 13.35 7.85 13.35 7.5 13.35 6.5 13.05 5.55
L 14.25 5.05
Q 14.65 4.85 14.5 4.35
L 14.25 3.8
Q 14.05 3.15 13.55 3.25
L 12.15 3.95
M 5.35 5.3
Q 6.3 4.4 7.55 4.4 8.85 4.4 9.7 5.3 10.6 6.15 10.6 7.5 10.6 8.8 9.7 9.65 8.85 10.55 7.55 10.55 6.3 10.55 5.35 9.65 4.5 8.8 4.5 7.5 4.5 6.2 5.35 5.3 Z"/>
</g>

<g id="icon_add_0_Layer1_0_FILL">
<path fill="#FFFFFF" fill-opacity="0" stroke="none" d="
M 0 0
L 0 15 15 15 15 0 0 0 Z"/>
</g>

<g id="icon_add_0_Layer0_0_FILL">
<path fill="#FFFFFF" stroke="none" d="
M 15 8
L 15 7 8 7 8 0 7 0 7 7 0 7 0 8 7 8 7 15 8 15 8 8 15 8 Z"/>
</g>

<g id="iconAddSmall_0_Layer1_0_FILL">
<path fill="#FFFFFF" fill-opacity="0" stroke="none" d="
M 22 0
L 0 0 0 22 22 22 22 0 Z"/>
</g>

<g id="iconAddSmall_0_Layer0_0_FILL">
<path fill="#FFFFFF" stroke="none" d="
M 22 12
L 22 10 12 10 12 0 10 0 10 10 0 10 0 12 10 12 10 22 12 22 12 12 22 12 Z"/>
</g>

<g id="icon_alerts_0_Layer1_0_FILL">
<path fill="#FFFFFF" fill-opacity="0" stroke="none" d="
M 25 0
L 0 0 0 25 25 25 25 0 Z"/>
</g>

<g id="icon_alerts_0_Layer0_0_FILL">
<path fill="#FFFFFF" stroke="none" d="
M 25 12.5
Q 25 7.35 21.3 3.7 17.85 0.15 12.85 0 12.7 0 12.45 0
L 12.4 0
Q 7.25 0.05 3.65 3.7 0 7.35 0 12.5 0 17.65 3.65 21.3 7.25 25 12.4 25
L 12.45 25
Q 12.7 25 12.85 25 17.85 24.85 21.35 21.3
L 21.3 21.3
Q 25 17.65 25 12.5
M 12.25 5.4
Q 12.2 5.25 12.2 5.1 12.2 4.85 12.4 4.65 12.55 4.45 12.85 4.45
L 12.9 4.45
Q 13.2 4.45 13.35 4.65 13.55 4.85 13.55 5.1 13.55 5.25 13.5 5.4 17.15 6.1 17.4 10.5
L 17.4 14.65
Q 17.85 15.8 19.35 16.2 20.45 16.7 20.2 17.45
L 14.5 17.45
Q 14.45 18.05 14 18.45 13.55 18.95 12.85 18.95 12.2 18.95 11.7 18.45 11.3 18.05 11.25 17.45
L 5.55 17.45
Q 5.3 16.7 6.4 16.2 7.85 15.8 8.35 14.65
L 8.35 10.5
Q 8.6 6.1 12.25 5.4 Z"/>
</g>

<g id="icon_arrow_down_0_Layer0_0_FILL">
<path fill="#FFFFFF" stroke="none" d="
M 8 5
L 16 0 0 0 8 5 Z"/>
</g>

<g id="arrow_0_Layer1_0_FILL">
<path fill="#FFFFFF" stroke="none" d="
M 23.6 12.1
Q 23.423046875 12.13203125 23.3 12.3
L 19.25 17.7
Q 19.150390625 17.833203125 19.15 18 19.15 18.1658203125 19.25 18.3
L 23.3 23.75
Q 23.42265625 23.91796875 23.6 23.95 23.83125 23.9771484375 24 23.85 24.16796875 23.727734375 24.2 23.5 24.2265625 23.31875 24.1 23.15
L 20.25 18 24.1 12.9
Q 24.2267578125 12.7314453125 24.2 12.5 24.1685546875 12.323046875 24 12.2 23.83203125 12.073046875 23.6 12.1 Z"/>
</g>

<g id="arrow_0_Layer0_0_FILL">
<path fill="#2B2B2B" fill-opacity="0" stroke="none" d="
M 5 0
L 5 36 27 36 27 0 5 0 Z"/>
</g>

<g id="arrow_0_Layer1_0_FILL">
<path fill="#FFFFFF" stroke="none" d="
M 23.6 12.1
Q 23.423046875 12.13203125 23.3 12.3
L 19.25 17.7
Q 19.150390625 17.833203125 19.15 18 19.15 18.1658203125 19.25 18.3
L 23.3 23.75
Q 23.42265625 23.91796875 23.6 23.95 23.83125 23.9771484375 24 23.85 24.16796875 23.727734375 24.2 23.5 24.2265625 23.31875 24.1 23.15
L 20.25 18 24.1 12.9
Q 24.2267578125 12.7314453125 24.2 12.5 24.1685546875 12.323046875 24 12.2 23.83203125 12.073046875 23.6 12.1 Z"/>
</g>

<g id="arrow_0_Layer0_0_FILL">
<path fill="#2B2B2B" fill-opacity="0" stroke="none" d="
M 5 0
L 5 36 27 36 27 0 5 0 Z"/>
</g>

<g id="icon_0_Layer1_0_FILL">
<path fill="#FFFFFF" fill-opacity="0.9882352941176471" stroke="none" d="
M 32 4.2
L 27.65 0 15.85 11.8 4.2 0.15 0 4.35 11.65 16 0 27.65 4.2 31.85 15.85 20.2 27.65 32 31.85 27.8 20.2 16.15 32 4.2 Z"/>
</g>

<g id="icon_0_Layer0_0_FILL">
<path fill="#FFFFFF" fill-opacity="0" stroke="none" d="
M 32 0
L 0 0 0 32 32 32 32 0 Z"/>
</g>

<g id="icon_cycle_0_Layer1_0_FILL">
<path fill="#FFFFFF" fill-opacity="0" stroke="none" d="
M 25 0
L 0 0 0 25 25 25 25 0 Z"/>
</g>

<g id="icon_cycle_0_Layer0_0_FILL">
<path fill="#FFFFFF" stroke="none" d="
M 0.05 23
L 2.15 20.9 3.1 20 5 18.15 0 18 0.05 23 Z"/>

<path fill="#FFFFFF" fill-opacity="0.9882352941176471" stroke="none" d="
M 10.55 2
Q 14.85 2 17.9 5.05 21 8.1 21 12.5 21 16.9 17.9 19.95 14.85 23.05 10.55 23.05 6.2 23.05 3.1 20
L 2.15 20.9 1.7 21.4
Q 5.4 25 10.55 25 15.65 25 19.3 21.35 23 17.7 23 12.5 23 7.3 19.3 3.65 15.65 0 10.55 0 5.35 0 1.7 3.65
L 3.1 5.05
Q 6.15 2 10.55 2 Z"/>
</g>

<g id="icon_expand_0_Layer1_0_FILL">
<path fill="#FFFFFF" fill-opacity="0" stroke="none" d="
M 0 0
L 0 15 15 15 15 0 0 0 Z"/>
</g>

<g id="icon_expand_0_Layer0_0_FILL">
<path fill="#FFFFFF" fill-opacity="0.4980392156862745" stroke="none" d="
M 15 0
L 0 0 0 15 15 15 15 0
M 14 14
L 1 14 1 1 14 1 14 14 Z"/>

<path fill="#FFFFFF" stroke="none" d="
M 11 8
L 11 7 8 7 8 4 7 4 7 7 4 7 4 8 7 8 7 11 8 11 8 8 11 8 Z"/>
</g>

<g id="iconHelp_0_Layer1_0_FILL">
<path fill="#FFFFFF" fill-opacity="0" stroke="none" d="
M 18 18
L 18 0 0 0 0 18 18 18 Z"/>
</g>

<g id="iconHelp_0_Layer0_0_FILL">
<path fill="#FFFFFF" stroke="none" d="
M 18 9.25
L 18 8.8
Q 17.9 5.15 15.35 2.6 12.85 0.1 9.25 0
L 8.8 0
Q 5.15 0.1 2.6 2.6 0.1 5.15 0 8.8
L 0 9.25
Q 0.1 12.85 2.6 15.35 5.15 17.9 8.8 18
L 9.25 18
Q 12.85 17.9 15.35 15.35 17.9 12.85 18 9.25
M 13.95 4.05
Q 16 6.1 16 9 16 11.95 13.95 13.95 11.9 16 9 16 6.1 16 4.05 13.95 2 11.95 2 9 2 6.1 4.05 4.05 6.1 2 9 2 11.9 2 13.95 4.05
M 9.75 11.85
L 8.25 11.85 8.25 13.35 9.75 13.35 9.75 11.85
M 10.35 8.4
Q 11.3 7.65 11.65 7.15 11.95 6.75 11.95 6.25 11.95 5.35 11.1 4.65 10.3 3.95 8.95 3.95 7.6 3.95 6.8 4.65 6 5.35 5.95 6.3
L 7.45 6.45
Q 7.55 5.8 7.95 5.45 8.4 5.15 9 5.15 9.6 5.15 10 5.4 10.4 5.75 10.4 6.2 10.4 6.55 10.15 6.8 10 6.95 9.3 7.5 8.65 8.05 8.4 8.45 8.15 8.9 8.15 9.55 8.15 9.6 8.15 9.95
L 9.6 9.95
Q 9.6 9.3 9.7 9.05 9.85 8.85 10.35 8.4 Z"/>
</g>

<g id="icon_logout_0_Layer1_0_FILL">
<path fill="#FFFFFF" fill-opacity="0" stroke="none" d="
M 15 15
L 15 0 0 0 0 15 15 15 Z"/>
</g>

<g id="icon_logout_0_Layer0_0_FILL">
<path fill="#FFFFFF" stroke="none" d="
M 8 0
L 7 0
Q 3.78203125 2.49765625 0 4 2.6984375 13.0283203125 7 15
L 8 15
Q 12.2927734375 13.3693359375 15 4 11.1759765625 2.434375 8 0
M 7 3
L 8 3 8 9 7.5 12.3 7 9 7 3 Z"/>
</g>

<g id="icon_openwindow_0_Layer1_0_FILL">
<path fill="#FFFFFF" fill-opacity="0" stroke="none" d="
M 15 4.95
L 0 4.95 0 15 15 15 15 4.95
M 0 0
L 0 4.95 15 4.95 15 0 0 0 Z"/>
</g>

<g id="icon_openwindow_0_Layer0_0_FILL">
<path fill="#FFFFFF" stroke="none" d="
M 11 4
L 11 1 0 1 0 13 11 13 11 10 10 10 10 12 1 12 1 2 10 2 10 4 11 4
M 12 2
L 12 5 11 5
Q 6.166015625 5.162890625 6.05 7.35 5.9396484375 9.54609375 9 11 6.1197265625 7.271875 11 7
L 12 7 12 10 15 6 12 2 Z"/>
</g>

<g id="icon_options_0_Layer1_0_FILL">
<path fill="#FFFFFF" fill-opacity="0" stroke="none" d="
M 0 0
L 0 25 25 25 25 0 0 0 Z"/>
</g>

<g id="icon_options_0_Layer0_0_FILL">
<path fill="#FFFFFF" stroke="none" d="
M 21.35 9.1
L 23.25 8.3
Q 24 7.95 23.7 7.15
L 23.3 6.15
Q 23 5.15 22.2 5.45
L 19.9 6.5
Q 19.5 6 19.05 5.55 17.9 4.4 16.5 3.7
L 17.3 1.75
Q 17.6 1 16.75 0.6
L 15.75 0.2
Q 14.85 -0.3 14.45 0.5
L 13.55 2.9
Q 12.95 2.8 12.35 2.8 10.65 2.8 9.15 3.35
L 8.35 1.4
Q 8 0.65 7.2 0.95
L 6.2 1.35
Q 5.2 1.65 5.5 2.45
L 6.55 4.8
Q 6.05 5.15 5.65 5.55 4.4 6.8 3.75 8.25
L 1.75 7.4
Q 1 7.1 0.6 7.95
L 0.2 8.95
Q -0.3 9.85 0.5 10.25
L 2.9 11.2
Q 2.85 11.7 2.85 12.3 2.85 14 3.4 15.5
L 1.4 16.3
Q 0.65 16.65 0.95 17.45
L 1.35 18.45
Q 1.65 19.45 2.45 19.15
L 4.9 18.1
Q 5.25 18.55 5.65 18.95 6.85 20.2 8.3 20.9
L 7.45 22.9
Q 7.15 23.65 8 24.05
L 9 24.45
Q 9.9 24.95 10.3 24.15
L 11.25 21.75
Q 11.8 21.8 12.35 21.8 14.1 21.8 15.6 21.3
L 16.4 23.25
Q 16.75 24 17.55 23.7
L 18.55 23.3
Q 19.55 23 19.25 22.2
L 18.2 19.8
Q 18.65 19.4 19.05 19
L 19.1 18.95
Q 20.25 17.8 20.95 16.45
L 22.9 17.25
Q 23.65 17.55 24.05 16.7
L 24.45 15.7
Q 24.95 14.8 24.15 14.4
L 21.8 13.5
Q 21.85 12.9 21.85 12.3 21.85 10.6 21.35 9.1
M 17.65 6.95
Q 19.9 9.15 19.9 12.3 19.9 15.4 17.65 17.55 15.5 19.8 12.35 19.8 9.25 19.8 7.05 17.55 4.85 15.4 4.85 12.3 4.85 9.2 7.05 7
L 7.1 6.95
Q 9.3 4.75 12.35 4.75 15.5 4.75 17.65 6.95 Z"/>
</g>

<g id="icon_photos_0_Layer1_0_FILL">
<path fill="#FFFFFF" fill-opacity="0" stroke="none" d="
M 36 0
L 0 0 0 36 36 36 36 0 Z"/>
</g>

<g id="icon_photos_0_Layer0_0_FILL">
<path fill="#FFFFFF" stroke="none" d="
M 25.05 1.15
Q 23.9 0 22.25 0
L 13.85 0
Q 12.2 0 11 1.15 9.85 2.35 9.85 4 9.85 4.1 9.85 4.2
L 7 4.2
Q 0 4.2 0 11.1
L 0 24.3
Q 0 31.2 7 31.2
L 29 31.2
Q 36 31.2 36 24.3
L 36 11.1
Q 36 4.2 29 4.2
L 26.25 4.2
Q 26.25 4.1 26.25 4 26.25 2.35 25.05 1.15
M 31.5 10.5
Q 30.9 10.5 30.45 10.05 30.05 9.65 30.05 9.05 30.05 8.45 30.45 8 30.9 7.6 31.5 7.6 32.1 7.6 32.5 8 32.95 8.45 32.95 9.05 32.95 9.65 32.5 10.05 32.1 10.5 31.5 10.5
M 27.1 17.25
Q 27.1 21 24.4 23.65 21.75 26.35 18 26.35 14.25 26.35 11.55 23.65 8.9 21 8.9 17.25 8.9 13.5 11.55 10.8 14.25 8.15 18 8.15 21.75 8.15 24.4 10.8 27.1 13.5 27.1 17.25
M 23.15 22.4
Q 25.35 20.3 25.35 17.25 25.35 14.2 23.15 12.05 21.05 9.9 18 9.9 14.95 9.9 12.8 12.05 10.65 14.2 10.65 17.25 10.65 20.3 12.8 22.4 14.95 24.6 18 24.6 21.05 24.6 23.15 22.4
M 22.45 12.75
Q 24.35 14.65 24.35 17.25 24.35 19.85 22.45 21.7 20.6 23.6 18 23.6 15.4 23.6 13.5 21.7 11.65 19.85 11.65 17.25 11.65 14.65 13.5 12.75 15.4 10.9 18 10.9 20.6 10.9 22.45 12.75 Z"/>
</g>

<g id="Layer1_0_FILL">
<path fill="#FFFFFF" fill-opacity="0" stroke="none" d="
M 0 0
L 0 25 25 25 25 0 0 0 Z"/>
</g>

<g id="Layer0_0_FILL">
<path fill="#FFFFFF" fill-opacity="0.9882352941176471" stroke="none" d="
M 24 13
L 24 11 13 11 13 0 11 0 11 11 0 11 0 13 11 13 11 24 13 24 13 13 24 13 Z"/>
</g>

<g id="iconRemove_0_Layer1_0_FILL">
<path fill="#FFFFFF" fill-opacity="0" stroke="none" d="
M 0 0
L 0 25 25 25 25 0 0 0 Z"/>
</g>

<g id="iconRemove_0_Layer0_0_FILL">
<path fill="#FFFFFF" stroke="none" d="
M 25 5
L 21 0 12.5 8.5 4 0 0 5 8 13 0 21 5 25 12.5 17.5 15 20
Q 19.35 24 25 25 24.2 21 21 17
L 17 13 25 5 Z"/>
</g>

<g id="iconSave_0_Layer0_0_FILL">
<path fill="#FFFFFF" stroke="none" d="
M 8 16
L 8 21 17 21 17 16 8 16
M 9 20
L 9 17 11 17 11 20 9 20
M 18 12
L 18 4 7 4 7 12 18 12
M 21 21
L 21 4 19 4 19 13 6 13 6 4 4 4 4 21 7 21 7 15 18 15 18 21 21 21 Z"/>
</g>

<g id="icon_search_0_Layer1_0_FILL">
<path fill="#FFFFFF" fill-opacity="0" stroke="none" d="
M 25 0
L 0 0 0 25 25 25 25 0 Z"/>
</g>

<g id="icon_search_0_Layer0_0_FILL">
<path fill="#FFFFFF" fill-opacity="0.9882352941176471" stroke="none" d="
M 25 9.5
Q 25 5.6 22.2 2.8 19.4 0 15.5 0 11.6 0 8.8 2.8 6 5.6 6 9.5 6 12.3 7.45 14.55
L 0 22 2.8 24.85 10.25 17.4
Q 12.55 19 15.5 19 19.4 19 22.2 16.25
L 22.25 16.2
Q 25 13.4 25 9.5
M 23.05 9.5
Q 23.05 12.65 20.8 14.8 18.65 17.05 15.5 17.05 12.4 17.05 10.15 14.8 8 12.65 8 9.5 8 6.45 10.15 4.2
L 10.2 4.15
Q 12.45 2 15.5 2 18.65 2 20.8 4.15 23.05 6.4 23.05 9.5 Z"/>
</g>

<g id="icon_settings_0_Layer1_0_FILL">
<path fill="#FFFFFF" fill-opacity="0" stroke="none" d="
M 0 0
L 0 36 36 36 36 0 0 0 Z"/>
</g>

<g id="icon_settings_0_Layer0_0_FILL">
<path fill="#FFFFFF" stroke="none" d="
M 33.4 11.85
Q 34.5 11.45 34.05 10.25
L 33.5 8.85
Q 33.05 7.4 31.85 7.8
L 28.6 9.3
Q 28.05 8.6 27.4 7.95 25.7 6.25 23.7 5.3
L 24.8 2.5
Q 25.2 1.4 24.05 0.85
L 22.65 0.25
Q 21.3 -0.45 20.8 0.65
L 19.45 4.1
Q 18.6 4 17.75 4 15.3 4 13.15 4.75
L 11.95 2
Q 11.55 0.9 10.35 1.35
L 8.95 1.9
Q 7.5 2.35 7.9 3.55
L 9.4 6.85
Q 8.7 7.35 8.1 7.95 6.35 9.75 5.35 11.85
L 2.5 10.65
Q 1.4 10.25 0.85 11.4
L 0.25 12.8
Q -0.45 14.15 0.65 14.65
L 4.2 16.05
Q 4.1 16.8 4.1 17.65 4.1 20.1 4.85 22.2
L 2 23.45
Q 0.9 23.85 1.35 25.05
L 1.9 26.45
Q 2.35 27.9 3.55 27.5
L 7 26
Q 7.5 26.6 8.1 27.2 9.85 29 11.95 30
L 10.75 32.9
Q 10.35 34 11.5 34.55
L 12.9 35.15
Q 14.25 35.85 14.75 34.75
L 16.15 31.2
Q 16.95 31.3 17.75 31.3 20.2 31.3 22.4 30.55
L 23.6 33.4
Q 24 34.5 25.2 34.05
L 26.6 33.5
Q 28.05 33.05 27.65 31.85
L 26.15 28.45
Q 26.8 27.9 27.4 27.3
L 27.45 27.2
Q 29.1 25.55 30.1 23.6
L 32.9 24.75
Q 34 25.15 34.55 24
L 35.15 22.6
Q 35.85 21.25 34.75 20.75
L 31.3 19.4
Q 31.4 18.55 31.4 17.65 31.4 15.2 30.65 13.05
L 33.4 11.85
M 25.35 9.95
Q 28.6 13.15 28.6 17.65 28.6 22.1 25.35 25.2 22.3 28.45 17.75 28.45 13.3 28.45 10.15 25.2 6.95 22.1 6.95 17.65 6.95 13.2 10.15 10.05
L 10.2 9.95
Q 13.35 6.8 17.75 6.8 22.3 6.8 25.35 9.95
M 24.45 10.85
L 24.45 10.8
Q 21.765234375 8.051953125 17.75 8.05 13.8408203125 8.0521484375 11.05 10.85 8.2013671875 13.6916015625 8.2 17.65 8.1947265625 21.5587890625 11 24.3
L 11.05 24.3
Q 13.7892578125 27.1529296875 17.75 27.15 21.7845703125 27.140234375 24.45 24.25
L 24.45 24.3
Q 27.305078125 21.5763671875 27.3 17.65 27.298828125 13.64140625 24.45 10.85
M 23 12.25
L 23.05 12.25
Q 25.3013671875 14.4767578125 25.3 17.65 25.2947265625 20.7236328125 23.05 22.85 23.0373046875 22.9013671875 23 22.9 20.9154296875 25.159375 17.75 25.15 14.628515625 25.146875 12.45 22.9
L 12.45 22.85
Q 10.205078125 20.7236328125 10.2 17.65 10.1986328125 14.5083984375 12.45 12.25 14.6591796875 10.0478515625 17.75 10.05 20.9162109375 10.0478515625 23 12.25 Z"/>

<path fill="#FFFFFF" fill-opacity="0" stroke="none" d="
M 28.6 17.65
Q 28.6 13.15 25.35 9.95 22.3 6.8 17.75 6.8 13.35 6.8 10.2 9.95
L 10.15 10.05
Q 6.95 13.2 6.95 17.65 6.95 22.1 10.15 25.2 13.3 28.45 17.75 28.45 22.3 28.45 25.35 25.2 28.6 22.1 28.6 17.65
M 24.45 10.8
L 24.45 10.85
Q 27.298828125 13.64140625 27.3 17.65 27.305078125 21.5763671875 24.45 24.3
L 24.45 24.25
Q 21.7845703125 27.140234375 17.75 27.15 13.7892578125 27.1529296875 11.05 24.3
L 11 24.3
Q 8.1947265625 21.5587890625 8.2 17.65 8.2013671875 13.6916015625 11.05 10.85 13.8408203125 8.0521484375 17.75 8.05 21.765234375 8.051953125 24.45 10.8
M 23.05 12.25
L 23 12.25
Q 20.9162109375 10.0478515625 17.75 10.05 14.6591796875 10.0478515625 12.45 12.25 10.1986328125 14.5083984375 10.2 17.65 10.205078125 20.7236328125 12.45 22.85
L 12.45 22.9
Q 14.628515625 25.146875 17.75 25.15 20.9154296875 25.159375 23 22.9 23.0373046875 22.9013671875 23.05 22.85 25.2947265625 20.7236328125 25.3 17.65 25.3013671875 14.4767578125 23.05 12.25 Z"/>
</g>

<g id="icon_sourcecode_0_Layer1_0_FILL">
<path fill="#FFFFFF" fill-opacity="0" stroke="none" d="
M 25 25
L 25 0 0 0 0 25 25 25 Z"/>
</g>

<g id="icon_sourcecode_0_Layer0_0_FILL">
<path fill="#FFFFFF" stroke="none" d="
M 25 12.55
Q 25 7.35 21.35 3.7 17.7 0.05 12.5 0.05 7.3 0.05 3.65 3.7 0 7.35 0 12.55 0 17.75 3.65 21.4 7.3 25.05 12.5 25.05 17.7 25.05 21.35 21.4 25 17.75 25 12.55
M 23 11.85
L 23 13.15 15.55 16.35 15.55 15 21.45 12.5 15.55 10.05 15.55 8.7 23 11.85
M 13.6 6.55
L 14.7 6.55 11.4 18.25 10.3 18.25 13.6 6.55
M 9.45 8.7
L 9.45 10.05 3.55 12.5 9.45 15 9.45 16.35 2 13.15 2 11.85 9.45 8.7 Z"/>
</g>

<g id="iconSubMenu_0_Layer1_0_FILL">
<path fill="#FFFFFF" fill-opacity="0" stroke="none" d="
M 24 24
L 24 0 0 0 0 24 24 24 Z"/>
</g>

<g id="iconSubMenu_0_Layer0_0_FILL">
<path fill="#FFFFFF" stroke="none" d="
M 23.65 15
Q 24 13.55 24 12 24 10.45 23.65 9 22.9 5.95 20.5 3.55 18.1 1.1 15 0.35 13.55 0 12 0 10.45 0 9 0.35 5.9 1.15 3.5 3.55 1.1 5.95 0.35 9 0 10.45 0 12 0 13.55 0.35 15 1.1 18.1 3.5 20.5 5.9 22.9 9 23.65 10.45 24 12 24 13.55 24 15 23.65 18.1 22.9 20.5 20.5 22.9 18.1 23.65 15
M 14 7.95
Q 14 7.15 14.55 6.55 15.15 6 16 6 16.85 6 17.4 6.55 18 7.15 18 8 18 8.85 17.4 9.4 16.85 10 15.95 10 15.15 10 14.55 9.4 14 8.85 14 7.95
M 6 8
Q 6 7.15 6.55 6.55 7.15 6 8 6 8.85 6 9.4 6.55 10 7.15 10 8.05 10 8.85 9.4 9.4 8.85 10 7.95 10 7.15 10 6.55 9.4 6 8.85 6 8
M 6.55 17.4
Q 6 16.85 6 16 6 15.15 6.55 14.55 7.15 14 7.95 14 8.85 14 9.4 14.55 10 15.15 10 15.95 10 16.85 9.4 17.4 8.85 18 8 18 7.15 18 6.55 17.4
M 18 16
Q 18 16.85 17.4 17.4 16.85 18 16 18 15.15 18 14.55 17.4 14 16.85 14 16.05 14 15.15 14.55 14.55 15.15 14 16.05 14 16.85 14 17.4 14.55 18 15.15 18 16 Z"/>
</g>

<g id="iconTextBgColor_0_Layer1_0_FILL">
<path fill="#FFFFFF" fill-opacity="0" stroke="none" d="
M 32 0
L 0 0 0 32 32 32 32 0 Z"/>
</g>

<g id="iconTextBgColor_0_Layer0_0_FILL">
<path fill="#FFFFFF" stroke="none" d="
M 32 32
L 32 0 0 0 0 32 32 32
M 24.6 23.2
Q 24.9 24.1 25.15 24.55 25.5 25.25 25.95 25.4 26.2 25.7 26.75 25.8 27.4 26.05 28.45 26.05
L 28.35 26.75
Q 27.3 26.75 26.15 26.75 24.9 26.65 23.55 26.65 22.5 26.65 21.4 26.75 20.45 26.75 19.3 26.75
L 19.2 26.15
Q 20.8 26.05 21.25 25.8 21.95 25.5 21.95 25.05 21.95 24.8 21.8 24.35 21.7 24.2 21.4 23.75
L 19.75 19.1 11.45 19.1 9.7 23.4
Q 9.05 24.55 9.05 25.05 9.05 25.5 9.8 25.7 10.3 26.05 11.9 26.05
L 11.9 26.75
Q 10.95 26.75 9.8 26.75 8.6 26.65 7.45 26.65 6.5 26.65 5.6 26.75 4.7 26.75 3.75 26.75
L 3.75 26.15
Q 4.7 26.05 5.15 25.85 5.6 25.7 6.05 25.4
L 15 5.5 17.7 5.5
Q 17.8 5.6 17.85 5.7
L 24.6 23.2
M 12.2 17.95
L 19.2 17.95 16 9.35 12.2 17.95 Z"/>
</g>

<g id="iconTextBold_0_Layer1_0_FILL">
<path fill="#FFFFFF" fill-opacity="0" stroke="none" d="
M 0 0
L 0 32 32 32 32 0 0 0 Z"/>
</g>

<g id="iconTextBold_0_Layer0_0_FILL">
<path fill="#FFFFFF" stroke="none" d="
M 25.15 11.9
Q 26.35 10.1 26.35 7.9 26.35 6 25.55 4.5 24.75 2.9 23.35 2 21.75 0.9 19.65 0.4 17.65 0 14.85 0 12.55 0 10.45 0.2 8.45 0.4 7.05 0.6
L 7.05 31.6
Q 8.15 31.7 9.75 31.9 11.45 32 13.65 32 17.75 32 20.35 31.3 23.05 30.4 24.65 29 25.95 27.8 26.65 26.1 27.4 24.4 27.4 22.6 27.3 20.5 26.65 19 25.85 17.5 24.45 16.3 23.15 15.3 21.45 14.9
L 21.45 14.7
Q 23.85 13.7 25.15 11.9
M 20.35 19.5
Q 21.15 20.6 21.25 22.4 21.15 24.2 20.35 25.3 19.55 26.3 18.25 27 16.95 27.5 15.35 27.5 14.55 27.5 13.95 27.4 13.35 27.4 12.95 27.3
L 12.95 17.5 15.15 17.5
Q 16.65 17.5 18.05 17.9 19.45 18.4 20.35 19.5
M 17.95 4.9
Q 19.05 5.3 19.75 6.1 20.45 7 20.45 8.6 20.45 10.6 19.05 11.7 17.65 13 15.15 13.1
L 12.95 13.1 12.95 4.7
Q 13.35 4.6 13.95 4.6 14.55 4.5 15.55 4.5 16.85 4.5 17.95 4.9 Z"/>
</g>

<g id="iconTextBullet_0_Layer1_0_FILL">
<path fill="#FFFFFF" fill-opacity="0" stroke="none" d="
M 0 0
L 0 32 32 32 32 0 0 0 Z"/>
</g>

<g id="iconTextBullet_0_Layer0_0_FILL">
<path fill="#FFFFFF" stroke="none" d="
M 30 27
L 30 23 9 23 9 27 30 27
M 30 9
L 30 5 9 5 9 9 30 9
M 30 18
L 30 14 9 14 9 18 30 18
M 6 14
L 2 14 2 18 6 18 6 14
M 6 23
L 2 23 2 27 6 27 6 23
M 6 5
L 2 5 2 9 6 9 6 5 Z"/>
</g>

<g id="iconTextCenter_0_Layer1_0_FILL">
<path fill="#FFFFFF" fill-opacity="0" stroke="none" d="
M 0.05 0
L 0.05 31.95 32 31.95 32 0 0.05 0 Z"/>
</g>

<g id="iconTextCenter_0_Layer0_0_FILL">
<path fill="#FFFFFF" stroke="none" d="
M 29 23
L 3 23 3 27 29 27 29 23
M 23 18
L 23 14 9 14 9 18 23 18
M 30 9
L 30 5 2 5 2 9 30 9 Z"/>
</g>

<g id="iconTextColor_0_Layer1_0_FILL">
<path fill="#FFFFFF" fill-opacity="0" stroke="none" d="
M 0 32
L 32 32 32 0 0 0 0 32 Z"/>
</g>

<g id="iconTextColor_0_Layer0_0_FILL">
<path fill="#FFFFFF" stroke="none" d="
M 19.6 5.4
Q 19.4 4.3 18.95 2.85 18.65 1.75 18.15 0
L 14.5 0 14.65 0.15 3 29.95
Q 2.55 30.4 1.9 30.7 1.25 30.9 0 31.05
L 0 32
Q 1.25 32 2.55 32 3.65 31.85 4.9 31.85 6.35 31.85 7.8 32 9.35 32 10.7 32
L 10.7 30.9
Q 8.6 30.9 7.8 30.4 7 30.05 7 29.45 7 28.7 7.7 26.9
L 10.05 20.45 20.7 20.45 22.95 27.45
Q 23.3 28.05 23.45 28.35 23.55 29.1 23.55 29.45 23.55 30.05 22.75 30.55 22.1 30.9 20.1 31.05
L 20.25 32
Q 21.7 32 22.95 32 24.35 31.85 25.65 31.85 27.4 31.85 29 32 30.55 32 31.85 32
L 32 30.9
Q 30.6 30.9 29.9 30.55 29.15 30.4 28.8 29.95 28.3 29.65 27.75 28.7 27.4 28 27.05 26.6
L 19.6 5.4
M 20.1 18.7
L 10.95 18.7 15.9 5.8 20.1 18.7 Z"/>
</g>

<g id="iconTextIndent_0_Layer1_0_FILL">
<path fill="#FFFFFF" fill-opacity="0" stroke="none" d="
M 0 0
L 0 32 32 32 32 0 0 0 Z"/>
</g>

<g id="iconTextIndent_0_Layer0_0_FILL">
<path fill="#FFFFFF" stroke="none" d="
M 11 20.5
L 2 14 2 27 11 20.5
M 30 23
L 14 23 14 27 30 27 30 23
M 30 18
L 30 14 14 14 14 18 30 18
M 30 9
L 30 5 2 5 2 9 30 9 Z"/>
</g>

<g id="iconTextItalic_0_Layer1_0_FILL">
<path fill="#FFFFFF" fill-opacity="0" stroke="none" d="
M 0 0
L 0 32 32 32 32 0 0 0 Z"/>
</g>

<g id="iconTextItalic_0_Layer0_0_FILL">
<path fill="#FFFFFF" stroke="none" d="
M 26.15 1.65
Q 26.65 1.65 26.9 1.55 26.9 1.35 27 0.95 26.9 0.65 26.75 0.35
L 26.75 0
Q 24.5 0 22.85 0.15 21.25 0.25 19.95 0.25
L 19.9 0.25
Q 18.6 0.25 16.95 0.15 15.3 0 13.95 0 13.8 0.15 13.55 0.65 13.35 1.05 13.2 1.35 13.2 1.55 13.25 1.65 13.25 1.85 13.45 1.85 15.05 1.85 15.85 1.85 16.7 1.95 16.9 2.35 17.2 2.85 17.05 3.65 16.9 4.35 16.45 6.55 15.95 8.75 15.25 11.7 14.55 14.55 13.8 17.8 13.1 20.7 12.4 23.2 11.9 25.6 11.4 26.8 11.1 28.3 10.7 29 10.2 29.8 9.35 30 8.55 30.2 6.75 30.2 6.65 30.2 6.4 30.5 6.15 30.8 6.05 31.6 6 31.7 6.05 31.8 6.05 31.9 6.25 31.9 7.3 31.9 8.8 31.8 10.25 31.7 12.05 31.7 13.35 31.7 14.65 31.8 16.1 31.9 17.05 31.9 18.1 32 18.65 32 18.95 32 19.2 31.9 19.5 31.7 19.8 31.1 19.95 30.5 19.8 30.1
L 19.8 30
Q 19.5 30 18.25 29.9 16.55 29.6 16.35 29 16.15 28.3 16.45 26.9 16.9 24.2 17.55 21.4 18.25 18.55 19.05 15.1 19.9 11.45 21.1 6.45 21.65 4.55 21.95 3.6 22.3 2.7 22.8 2.2 23.05 1.95 24 1.85 24.85 1.65 26.15 1.65 Z"/>
</g>

<g id="iconTextLeft_0_Layer1_0_FILL">
<path fill="#FFFFFF" fill-opacity="0" stroke="none" d="
M 0 0
L 0 32 32 32 32 0 0 0 Z"/>
</g>

<g id="iconTextLeft_0_Layer0_0_FILL">
<path fill="#FFFFFF" stroke="none" d="
M 22 23
L 2 23 2 27 22 27 22 23
M 14 14
L 2 14 2 18 14 18 14 14
M 30 9
L 30 5 2 5 2 9 30 9 Z"/>
</g>

<g id="iconTextLink_0_Layer1_0_FILL">
<path fill="#FFFFFF" fill-opacity="0" stroke="none" d="
M 0 0
L 0 32 32 32 32 0 0 0 Z"/>
</g>

<g id="iconTextLink_0_Layer0_0_FILL">
<path fill="#FFFFFF" stroke="none" d="
M 23.5 14.55
Q 22.95 13.95 22.1 13.95
L 10.1 13.95
Q 9.3 13.95 8.7 14.55 8.1 14.95 8.1 15.55 8.1 16.25 8.7 16.75 9.3 17.25 10.1 17.25
L 22.1 17.25
Q 22.95 17.25 23.5 16.75 24.15 16.25 24.15 15.55 24.15 14.95 23.5 14.55
M 15 11.9
Q 14.7 11.3 14.3 10.8 12.6 9 10.1 9
L 6.1 9
Q 3.45 9 1.7 10.8 1.15 11.4 0.9 12.1 0 13.55 0 15.55 0 17.6 0.9 19.2 1.15 19.7 1.7 20.2 3.45 22.25 6.1 22.25
L 10.1 22.25
Q 12.6 22.25 14.3 20.2 14.7 19.8 15 19.45
L 12.65 18.1
Q 12.5 18.5 12.15 18.7 11.1 20 9.4 20
L 6.7 20
Q 4.95 20 3.8 18.7 3.35 18.4 3.15 18 2.6 16.9 2.6 15.55 2.6 14.25 3.15 13.35 3.35 12.85 3.8 12.45 4.95 11.2 6.7 11.2
L 9.4 11.2
Q 11.1 11.2 12.15 12.45 12.5 12.75 12.65 13.1
L 15 11.9
M 30.35 10.8
Q 28.6 9 26.15 9
L 22.1 9
Q 19.6 9 17.8 10.8 17.4 11.3 17.2 11.9
L 19.5 13.1
Q 19.6 12.75 19.9 12.45 21.15 11.2 22.7 11.2
L 25.4 11.2
Q 27.15 11.2 28.25 12.45 29.4 13.75 29.4 15.55 29.4 17.5 28.25 18.7 27.15 20 25.4 20
L 22.7 20
Q 21.15 20 19.9 18.7 19.6 18.5 19.5 18.2
L 17.2 19.45
Q 17.4 19.8 17.8 20.2 19.6 22.25 22.1 22.25
L 26.15 22.25
Q 28.6 22.25 30.35 20.2 31.7 18.8 32 16.9
L 32 14.45
Q 31.7 12.45 30.35 10.8 Z"/>
</g>

<g id="iconTextMore_0_Layer1_0_FILL">
<path fill="#FFFFFF" fill-opacity="0" stroke="none" d="
M 32 0
L 0 0 0 32 32 32 32 0 Z"/>
</g>

<g id="iconTextMore_0_Layer0_0_FILL">
<path fill="#FFFFFF" stroke="none" d="
M 18.5 25.85
Q 17.5 24.9 16 24.9 14.5 24.9 13.4 25.85 12.45 26.95 12.45 28.45 12.45 29.95 13.4 30.95 14.5 32 16 32 17.5 32 18.5 30.95 19.55 29.95 19.55 28.45 19.55 26.95 18.5 25.85
M 16 19.55
Q 17.5 19.55 18.5 18.5 19.55 17.5 19.55 16 19.55 14.5 18.5 13.4 17.5 12.45 16 12.45 14.5 12.45 13.4 13.4 12.45 14.5 12.45 16 12.45 17.5 13.4 18.5 14.5 19.55 16 19.55
M 16 7.1
Q 17.5 7.1 18.5 6.05 19.55 5.05 19.55 3.55 19.55 2.05 18.5 1 17.5 0 16 0 14.5 0 13.4 1 12.45 2.05 12.45 3.55 12.45 5.05 13.4 6.05 14.5 7.1 16 7.1 Z"/>
</g>

<g id="iconTextNumbers_0_Layer1_0_FILL">
<path fill="#FFFFFF" fill-opacity="0" stroke="none" d="
M 0 0
L 0 32 32 32 32 0 0 0 Z"/>
</g>

<g id="iconTextNumbers_0_Layer0_0_FILL">
<path fill="#FFFFFF" stroke="none" d="
M 32 18
L 32 14 10 14 10 18 32 18
M 2.65 20.8
Q 2.95 21.15 2.95 21.55 2.95 22.05 2.65 22.5 2.4 23 2 23.6 1.5 24.15 0 25
L -0.1 27 5 27 5 25 3 25 2.95 24.8
Q 3.4 24.3 3.85 23.8 4.25 23.25 4.55 22.7 4.8 22.05 4.8 21.35 4.8 20.8 4.55 20.15 4.25 19.65 3.75 19.3 3.1 19.05 2.25 18.95 1.55 19.05 0.95 19.25 0.3 19.4 -0.05 19.65
L 0.4 21.05
Q 0.7 20.8 1.1 20.6 1.5 20.5 1.85 20.5 2.4 20.5 2.65 20.8
M 0.7 7.4
L 2 7 2 13 4 13.05 4 5 2.4 5 0.25 5.95 0.7 7.4
M 10 27
L 32 27 32 23 10 23 10 27
M 32 9
L 32 5 10 5 10 9 32 9 Z"/>
</g>

<g id="iconTextOutdent_0_Layer1_0_FILL">
<path fill="#FFFFFF" fill-opacity="0" stroke="none" d="
M 0 0
L 0 32 32 32 32 0 0 0 Z"/>
</g>

<g id="iconTextOutdent_0_Layer0_0_FILL">
<path fill="#FFFFFF" stroke="none" d="
M 11 14
L 2 20.5 11 27 11 14
M 14 23
L 14 27 30 27 30 23 14 23
M 30 9
L 30 5 2 5 2 9 30 9
M 30 18
L 30 14 14 14 14 18 30 18 Z"/>
</g>

<g id="iconTextPhoto_0_Layer1_0_FILL">
<path fill="#FFFFFF" fill-opacity="0" stroke="none" d="
M 32 0
L 0 0 0 32 32 32 32 0 Z"/>
</g>

<g id="iconTextPhoto_0_Layer0_0_FILL">
<path fill="#FFFFFF" stroke="none" d="
M 30 4.6
L 28.4 2.95 3.85 2.95 2 4.7 2 27.25 3.85 28.95 28.4 28.95 30 27.35 30 4.6
M 27 26
L 5 26 5 6 27 6 27 26
M 25 22.1
L 21.4 18.55 19 21 12 15 7 20 7 24 25 24 25 22.1
M 20.45 15.35
Q 21 14.8 21 13.95 21 13.15 20.45 12.6 19.85 12 19.05 12 18.25 12 17.65 12.6 17 13.15 17 13.95 17 14.8 17.65 15.35 18.25 16 19.05 16 19.85 16 20.45 15.35 Z"/>
</g>

<g id="iconTextRight_0_Layer1_0_FILL">
<path fill="#FFFFFF" fill-opacity="0" stroke="none" d="
M 0 0
L 0 32 32 32 32 0 0 0 Z"/>
</g>

<g id="iconTextRight_0_Layer0_0_FILL">
<path fill="#FFFFFF" stroke="none" d="
M 10 23
L 10 27 30 27 30 23 10 23
M 30 18
L 30 14 18 14 18 18 30 18
M 30 9
L 30 5 2 5 2 9 30 9 Z"/>
</g>

<g id="iconTextSource_0_Layer1_0_FILL">
<path fill="#FFFFFF" fill-opacity="0" stroke="none" d="
M 0 0
L 0 32 32 32 32 0 0 0 Z"/>
</g>

<g id="iconTextSource_0_Layer0_0_FILL">
<path fill="#FFFFFF" stroke="none" d="
M 32 18
L 32 14 19 4 19 8 29.05 15.9 29 16 19 24 19 28 32 18
M 13 24
L 3 16 2.95 15.9 13 8 13 4 0 14 0 18 13 28 13 24 Z"/>
</g>

<g id="iconTextStrikeThru_0_Layer1_0_FILL">
<path fill="#FFFFFF" fill-opacity="0" stroke="none" d="
M 0 0
L 0 32 32 32 32 0 0 0 Z"/>
</g>

<g id="iconTextStrikeThru_0_Layer0_0_FILL">
<path fill="#FFFFFF" stroke="none" d="
M 29 20
L 29 15.85 19.9 15.85
Q 19.1 15.3 18.2 14.8 17.2 14.2 16 13.65 14.1 12.9 12.8 12.1 11.6 11.2 11 10.3 10.35 9.4 10.35 8.1 10.35 7.1 10.85 6.05 11.5 5.15 12.55 4.5 13.8 3.85 15.6 3.85 17.45 3.85 18.85 4.35 20.25 4.75 21 5.4
L 22.1 1.35
Q 21.2 0.9 19.5 0.45 17.9 0 15.65 0 12.55 0 10.35 1.05 8.15 2.2 7 4.05 5.7 6.05 5.7 8.55 5.7 10.7 6.65 12.35 7.5 13.65 8.8 14.8 9.05 15.1 9.35 15.3 9.8 15.6 10 16
L 3 16 3 20 17 20
Q 17.3 19.85 17.3 20 18.6 21.4 18.6 23.3 18.6 25.5 17.05 26.7 15.6 28 12.9 28 11 28 9.2 27.45 7.5 27 6.25 26.2
L 5.2 30.1
Q 5.95 30.7 7.15 31.1 8.25 31.55 9.8 31.8 11.15 32 12.55 32 16.1 32 18.35 30.9 20.8 29.6 22.1 27.6 23.3 25.6 23.3 22.9 23.3 21.25 23 20
L 29 20 Z"/>
</g>

<g id="iconTextTable_0_Layer2_0_FILL">
<path fill="#FFFFFF" fill-opacity="0" stroke="none" d="
M 0 0
L 0 32 32 32 32 0 0 0 Z"/>
</g>

<g id="iconTextTable_0_Layer1_0_FILL">
<path fill="#FFFFFF" stroke="none" d="
M 30 4.6
L 28.4 2.95 3.85 2.95 2 4.7 2 27.25 3.85 28.95 28.4 28.95 30 27.35 30 4.6
M 5 6
L 27 6 27 26 5 26 5 6 Z"/>
</g>

<g id="iconTextTable_0_Layer0_0_FILL">
<path fill="#FFFFFF" stroke="none" d="
M 27 11
L 21 11 21 6 19 6 19 11 13 11 13 6 11 6 11 11 5 11 5 13 11 13 11 19 5 19 5 21 11 21 11 27 13 27 13 21 19 21 19 26 21 26 21 21 27 21 27 19 21 19 21 13 27 13 27 11
M 13 13
L 19 13 19 19 13 19 13 13 Z"/>
</g>

<g id="iconTextUnderline_0_Layer1_0_FILL">
<path fill="#FFFFFF" fill-opacity="0" stroke="none" d="
M 0 0
L 0 32 32 32 32 0 0 0 Z"/>
</g>

<g id="iconTextUnderline_0_Layer0_0_FILL">
<path fill="#FFFFFF" stroke="none" d="
M 25.6 23
Q 27 20.45 27 16.3
L 27 0 22 0 22 17
Q 22.3 20.95 20.7 22.55 19.05 24.15 16 24 13.2 24.15 11.55 22.55 9.85 20.95 10 17
L 10 0 5 0 5 16.4
Q 5 20.55 6.3 23.15 7.7 25.75 10.1 27 11.8 27.75 13.9 28
L 3 28 3 32 29 32 29 28 17.6 28
Q 19.8 27.75 21.6 26.85 24.15 25.7 25.6 23 Z"/>
</g>

<g id="iconUpload_0_Layer1_0_FILL">
<path fill="#FFFFFF" fill-opacity="0" stroke="none" d="
M 25 0
L 0 0 0 25 25 25 25 0 Z"/>
</g>

<g id="iconUpload_0_Layer0_0_FILL">
<path fill="#FFFFFF" stroke="none" d="
M 6.55 14.05
L 10.05 14.05 10.05 25 15.05 25 15.05 14.05 18.55 14.05 12.55 8.05 6.55 14.05
M 23.05 2.05
L 23.05 17.05 16.05 17.05 16.05 19.05 25 19.05 25 0 0 0 0 19.05 9.05 19.05 9.05 17.05 2.05 17.05 2.05 2.05 23.05 2.05 Z"/>
</g>

<g id="iconWindowLeftSide_0_Layer0_0_FILL">
<path fill="#FFFFFF" stroke="none" d="
M 14 0
L 0 0 0 14 14 14 14 0
M 13 1
L 13 13 7 13 7 1 13 1 Z"/>
</g>

<g id="iconWindowMaximize_0_Layer0_0_FILL">
<path fill="#FFFFFF" stroke="none" d="
M 0 14
L 14 14 14 0 0 0 0 14 Z"/>
</g>

<g id="iconWindowMinimize_0_Layer1_0_FILL">
<path fill="#FFFFFF" fill-opacity="0" stroke="none" d="
M 14 0
L 0 0 0 14 14 14 14 0 Z"/>
</g>

<g id="iconWindowMinimize_0_Layer0_0_FILL">
<path fill="#FFFFFF" stroke="none" d="
M 0 14
L 14 14 14 0 0 0 0 14
M 1 1
L 13 1 13 13 1 13 1 1
M 4 9
L 10 9 10 3 4 3 4 9 Z"/>
</g>

<g id="iconWindowRightSide_0_Layer1_0_FILL">
<path fill="#FFFFFF" fill-opacity="0" stroke="none" d="
M 14 14
L 14 0 0 0 0 14 14 14 Z"/>
</g>

<g id="iconWindowRightSide_0_Layer0_0_FILL">
<path fill="#FFFFFF" stroke="none" d="
M 14 0
L 0 0 0 14 14 14 14 0
M 7 13
L 1 13 1 1 7 1 7 13 Z"/>
</g>
</defs><symbol id="btn-arrow-down" viewBox="0 0 32 32">


<g transform="matrix( 1, 0, 0, 1, 0,8) ">
<g transform="matrix( 1, 0, 0, 1, 0,0) ">
<use xlink:href="#btn_arrow_down_0_Layer1_0_FILL"/>
</g>

<g transform="matrix( 1, 0, 0, 1, 0,0) ">
<use xlink:href="#btn_arrow_down_0_Layer0_0_FILL"/>
</g>
</g>
</symbol><symbol id="btn-arrow-up" viewBox="0 0 32 32">


<g transform="matrix( 1, 0, 0, 1, 0,8) ">
<g transform="matrix( 1, 0, 0, 1, 0,0) ">
<use xlink:href="#btn_arrow_up_0_Layer1_0_FILL"/>
</g>

<g transform="matrix( 1, 0, 0, 1, 0,0) ">
<use xlink:href="#btn_arrow_up_0_Layer0_0_FILL"/>
</g>
</g>
</symbol><symbol id="icon-account" viewBox="0 0 15 15">


<g transform="matrix( 1, 0, 0, 1, 0,0) ">
<g transform="matrix( 1, 0, 0, 1, 0,0) ">
<use xlink:href="#icon_account_0_Layer1_0_FILL"/>
</g>

<g transform="matrix( 1, 0, 0, 1, 0,0) ">
<use xlink:href="#icon_account_0_Layer0_0_FILL"/>
</g>
</g>
</symbol><symbol id="icon-add" viewBox="0 0 15 15">


<g transform="matrix( 1, 0, 0, 1, 0,0) ">
<g transform="matrix( 1, 0, 0, 1, 0,0) ">
<use xlink:href="#icon_add_0_Layer1_0_FILL"/>
</g>

<g transform="matrix( 1, 0, 0, 1, 0,0) ">
<use xlink:href="#icon_add_0_Layer0_0_FILL"/>
</g>
</g>
</symbol><symbol id="icon-addsmall" viewBox="0 0 22 22">


<g transform="matrix( 1, 0, 0, 1, 0,0) ">
<g transform="matrix( 1, 0, 0, 1, 0,0) ">
<use xlink:href="#iconAddSmall_0_Layer1_0_FILL"/>
</g>

<g transform="matrix( 1, 0, 0, 1, 0,0) ">
<use xlink:href="#iconAddSmall_0_Layer0_0_FILL"/>
</g>
</g>
</symbol><symbol id="icon-alerts" viewBox="0 0 25 25">


<g transform="matrix( 1, 0, 0, 1, 0,0) ">
<g transform="matrix( 1, 0, 0, 1, 0,0) ">
<use xlink:href="#icon_alerts_0_Layer1_0_FILL"/>
</g>

<g transform="matrix( 1, 0, 0, 1, 0,0) ">
<use xlink:href="#icon_alerts_0_Layer0_0_FILL"/>
</g>
</g>
</symbol><symbol id="icon-arrow-down" viewBox="0 0 16 5">


<g transform="matrix( 1, 0, 0, 1, 0,0) ">
<g transform="matrix( 1, 0, 0, 1, 0,0) ">
<use xlink:href="#icon_arrow_down_0_Layer0_0_FILL"/>
</g>
</g>
</symbol><symbol id="icon-arrow-left" viewBox="0 0 36 36">


<g transform="matrix( 1, 0, 0, 1, 0,0) ">
<g transform="matrix( 2.38983154296875, 0, 0, 2.38983154296875, -35.75,-25) ">
<use xlink:href="#arrow_0_Layer1_0_FILL"/>
</g>

<g transform="matrix( 1, 0, 0, 1, 0,0) ">
<use xlink:href="#arrow_0_Layer0_0_FILL"/>
</g>
</g>
</symbol><symbol id="icon-arrow-right" viewBox="0 0 36 36">


<g transform="matrix( -1, 0, 0, 1, 36,0) ">
<g transform="matrix( 2.38983154296875, 0, 0, 2.38983154296875, -35.75,-25) ">
<use xlink:href="#arrow_0_Layer1_0_FILL"/>
</g>

<g transform="matrix( 1, 0, 0, 1, 0,0) ">
<use xlink:href="#arrow_0_Layer0_0_FILL"/>
</g>
</g>
</symbol><symbol id="icon-close" viewBox="0 0 32 32">


<g transform="matrix( 1, 0, 0, 1, 0,0) ">
<g transform="matrix( 1, 0, 0, 1, 0,0) ">
<use xlink:href="#icon_0_Layer1_0_FILL"/>
</g>

<g transform="matrix( 1, 0, 0, 1, 0,0) ">
<use xlink:href="#icon_0_Layer0_0_FILL"/>
</g>
</g>
</symbol><symbol id="icon-cycle" viewBox="0 0 25 25">


<g transform="matrix( 1, 0, 0, 1, 0,0) ">
<g transform="matrix( 1, 0, 0, 1, 0,0) ">
<use xlink:href="#icon_cycle_0_Layer1_0_FILL"/>
</g>

<g transform="matrix( 1, 0, 0, 1, 0,0) ">
<use xlink:href="#icon_cycle_0_Layer0_0_FILL"/>
</g>
</g>
</symbol><symbol id="icon-expand" viewBox="0 0 15 15">


<g transform="matrix( 1, 0, 0, 1, 0,0) ">
<g transform="matrix( 1, 0, 0, 1, 0,0) ">
<use xlink:href="#icon_expand_0_Layer1_0_FILL"/>
</g>

<g transform="matrix( 1, 0, 0, 1, 0,0) ">
<use xlink:href="#icon_expand_0_Layer0_0_FILL"/>
</g>
</g>
</symbol><symbol id="icon-help" viewBox="0 0 18 18">


<g transform="matrix( 1, 0, 0, 1, 0,0) ">
<g transform="matrix( 1, 0, 0, 1, 0,0) ">
<use xlink:href="#iconHelp_0_Layer1_0_FILL"/>
</g>

<g transform="matrix( 1, 0, 0, 1, 0,0) ">
<use xlink:href="#iconHelp_0_Layer0_0_FILL"/>
</g>
</g>
</symbol><symbol id="icon-logout" viewBox="0 0 15 15">


<g transform="matrix( 1, 0, 0, 1, 0,0) ">
<g transform="matrix( 1, 0, 0, 1, 0,0) ">
<use xlink:href="#icon_logout_0_Layer1_0_FILL"/>
</g>

<g transform="matrix( 1, 0, 0, 1, 0,0) ">
<use xlink:href="#icon_logout_0_Layer0_0_FILL"/>
</g>
</g>
</symbol><symbol id="icon-openwindow" viewBox="0 0 15 15">


<g transform="matrix( 1, 0, 0, 1, 0,0) ">
<g transform="matrix( 1, 0, 0, 1, 0,0) ">
<use xlink:href="#icon_openwindow_0_Layer1_0_FILL"/>
</g>

<g transform="matrix( 1, 0, 0, 1, 0,0) ">
<use xlink:href="#icon_openwindow_0_Layer0_0_FILL"/>
</g>
</g>
</symbol><symbol id="icon-options" viewBox="0 0 25 25">


<g transform="matrix( 1, 0, 0, 1, 0.2,0.2) ">
<g transform="matrix( 1, 0, 0, 1, 0,0) ">
<use xlink:href="#icon_options_0_Layer1_0_FILL"/>
</g>

<g transform="matrix( 1, 0, 0, 1, 0,0) ">
<use xlink:href="#icon_options_0_Layer0_0_FILL"/>
</g>
</g>
</symbol><symbol id="icon-photos" viewBox="0 0 36 36">


<g transform="matrix( 1, 0, 0, 1, 0,0) ">
<g transform="matrix( 1, 0, 0, 1, 0,0) ">
<use xlink:href="#icon_photos_0_Layer1_0_FILL"/>
</g>

<g transform="matrix( 1, 0, 0, 1, 0,0) ">
<use xlink:href="#icon_photos_0_Layer0_0_FILL"/>
</g>
</g>
</symbol><symbol id="icon-plus" viewBox="0 0 25 25">


<g transform="matrix( 1, 0, 0, 1, 0,0) ">
<use xlink:href="#Layer1_0_FILL"/>
</g>

<g transform="matrix( 1, 0, 0, 1, 0,0) ">
<use xlink:href="#Layer0_0_FILL"/>
</g>
</symbol><symbol id="icon-remove" viewBox="0 0 25 25">


<g transform="matrix( 1, 0, 0, 1, 0,0) ">
<g transform="matrix( 1, 0, 0, 1, 0,0) ">
<use xlink:href="#iconRemove_0_Layer1_0_FILL"/>
</g>

<g transform="matrix( 1, 0, 0, 1, 0,0) ">
<use xlink:href="#iconRemove_0_Layer0_0_FILL"/>
</g>
</g>
</symbol><symbol id="icon-save" viewBox="0 0 25 25">


<g transform="matrix( 1, 0, 0, 1, 0,0) ">
<g transform="matrix( 1, 0, 0, 1, 0,0) ">
<use xlink:href="#iconSave_0_Layer0_0_FILL"/>
</g>
</g>
</symbol><symbol id="icon-search" viewBox="0 0 25 25">


<g transform="matrix( 1, 0, 0, 1, 0,0) ">
<g transform="matrix( 1, 0, 0, 1, 0,0) ">
<use xlink:href="#icon_search_0_Layer1_0_FILL"/>
</g>

<g transform="matrix( 1, 0, 0, 1, 0,0) ">
<use xlink:href="#icon_search_0_Layer0_0_FILL"/>
</g>
</g>
</symbol><symbol id="icon-settings" viewBox="0 0 36 36">


<g transform="matrix( 1, 0, 0, 1, 0.3,0.3) ">
<g transform="matrix( 1, 0, 0, 1, 0,0) ">
<use xlink:href="#icon_settings_0_Layer1_0_FILL"/>
</g>

<g transform="matrix( 1, 0, 0, 1, 0,0) ">
<use xlink:href="#icon_settings_0_Layer0_0_FILL"/>
</g>
</g>
</symbol><symbol id="icon-sourcecode" viewBox="0 0 25 25">


<g transform="matrix( 1, 0, 0, 1, 0,0) ">
<g transform="matrix( 1, 0, 0, 1, 0,0) ">
<use xlink:href="#icon_sourcecode_0_Layer1_0_FILL"/>
</g>

<g transform="matrix( 1, 0, 0, 1, 0,0) ">
<use xlink:href="#icon_sourcecode_0_Layer0_0_FILL"/>
</g>
</g>
</symbol><symbol id="icon-submenu" viewBox="0 0 24 24">


<g transform="matrix( 1, 0, 0, 1, 0,0) ">
<g transform="matrix( 1, 0, 0, 1, 0,0) ">
<use xlink:href="#iconSubMenu_0_Layer1_0_FILL"/>
</g>

<g transform="matrix( 1, 0, 0, 1, 0,0) ">
<use xlink:href="#iconSubMenu_0_Layer0_0_FILL"/>
</g>
</g>
</symbol><symbol id="icon-textbgcolor" viewBox="0 0 32 32">


<g transform="matrix( 1, 0, 0, 1, 0,0) ">
<g transform="matrix( 1, 0, 0, 1, 0,0) ">
<use xlink:href="#iconTextBgColor_0_Layer1_0_FILL"/>
</g>

<g transform="matrix( 1, 0, 0, 1, 0,0) ">
<use xlink:href="#iconTextBgColor_0_Layer0_0_FILL"/>
</g>
</g>
</symbol><symbol id="icon-textbold" viewBox="0 0 32 32">


<g transform="matrix( 1, 0, 0, 1, 0,0) ">
<g transform="matrix( 1, 0, 0, 1, 0,0) ">
<use xlink:href="#iconTextBold_0_Layer1_0_FILL"/>
</g>

<g transform="matrix( 1, 0, 0, 1, 0,0) ">
<use xlink:href="#iconTextBold_0_Layer0_0_FILL"/>
</g>
</g>
</symbol><symbol id="icon-textbullet" viewBox="0 0 32 32">


<g transform="matrix( 1, 0, 0, 1, 0,0) ">
<g transform="matrix( 1, 0, 0, 1, 0,0) ">
<use xlink:href="#iconTextBullet_0_Layer1_0_FILL"/>
</g>

<g transform="matrix( 1, 0, 0, 1, 0,0) ">
<use xlink:href="#iconTextBullet_0_Layer0_0_FILL"/>
</g>
</g>
</symbol><symbol id="icon-textcenter" viewBox="0 0 32 32">


<g transform="matrix( 1, 0, 0, 1, 0,0) ">
<g transform="matrix( 1, 0, 0, 1, 0,0) ">
<use xlink:href="#iconTextCenter_0_Layer1_0_FILL"/>
</g>

<g transform="matrix( 1, 0, 0, 1, 0,0) ">
<use xlink:href="#iconTextCenter_0_Layer0_0_FILL"/>
</g>
</g>
</symbol><symbol id="icon-textcolor" viewBox="0 0 32 32">


<g transform="matrix( 1, 0, 0, 1, 0,0) ">
<g transform="matrix( 1, 0, 0, 1, 0,0) ">
<use xlink:href="#iconTextColor_0_Layer1_0_FILL"/>
</g>

<g transform="matrix( 1, 0, 0, 1, 0,0) ">
<use xlink:href="#iconTextColor_0_Layer0_0_FILL"/>
</g>
</g>
</symbol><symbol id="icon-textindent" viewBox="0 0 32 32">


<g transform="matrix( 1, 0, 0, 1, 0,0) ">
<g transform="matrix( 1, 0, 0, 1, 0,0) ">
<use xlink:href="#iconTextIndent_0_Layer1_0_FILL"/>
</g>

<g transform="matrix( 1, 0, 0, 1, 0,0) ">
<use xlink:href="#iconTextIndent_0_Layer0_0_FILL"/>
</g>
</g>
</symbol><symbol id="icon-textitalic" viewBox="0 0 32 32">


<g transform="matrix( 1, 0, 0, 1, 0,0) ">
<g transform="matrix( 1, 0, 0, 1, 0,0) ">
<use xlink:href="#iconTextItalic_0_Layer1_0_FILL"/>
</g>

<g transform="matrix( 1, 0, 0, 1, 0,0) ">
<use xlink:href="#iconTextItalic_0_Layer0_0_FILL"/>
</g>
</g>
</symbol><symbol id="icon-textleft" viewBox="0 0 32 32">


<g transform="matrix( 1, 0, 0, 1, 0,0) ">
<g transform="matrix( 1, 0, 0, 1, 0,0) ">
<use xlink:href="#iconTextLeft_0_Layer1_0_FILL"/>
</g>

<g transform="matrix( 1, 0, 0, 1, 0,0) ">
<use xlink:href="#iconTextLeft_0_Layer0_0_FILL"/>
</g>
</g>
</symbol><symbol id="icon-textlink" viewBox="0 0 32 32">


<g transform="matrix( 1, 0, 0, 1, 0,0) ">
<g transform="matrix( 1, 0, 0, 1, 0,0) ">
<use xlink:href="#iconTextLink_0_Layer1_0_FILL"/>
</g>

<g transform="matrix( 1, 0, 0, 1, 0,0) ">
<use xlink:href="#iconTextLink_0_Layer0_0_FILL"/>
</g>
</g>
</symbol><symbol id="icon-textmore" viewBox="0 0 32 32">


<g transform="matrix( 1, 0, 0, 1, 0,0) ">
<g transform="matrix( 1, 0, 0, 1, 0,0) ">
<use xlink:href="#iconTextMore_0_Layer1_0_FILL"/>
</g>

<g transform="matrix( 1, 0, 0, 1, 0,0) ">
<use xlink:href="#iconTextMore_0_Layer0_0_FILL"/>
</g>
</g>
</symbol><symbol id="icon-textnumbers" viewBox="0 0 32 32">


<g transform="matrix( 1, 0, 0, 1, 0,0) ">
<g transform="matrix( 1, 0, 0, 1, 0,0) ">
<use xlink:href="#iconTextNumbers_0_Layer1_0_FILL"/>
</g>

<g transform="matrix( 1, 0, 0, 1, 0,0) ">
<use xlink:href="#iconTextNumbers_0_Layer0_0_FILL"/>
</g>
</g>
</symbol><symbol id="icon-textoutdent" viewBox="0 0 32 32">


<g transform="matrix( 1, 0, 0, 1, 0,0) ">
<g transform="matrix( 1, 0, 0, 1, 0,0) ">
<use xlink:href="#iconTextOutdent_0_Layer1_0_FILL"/>
</g>

<g transform="matrix( 1, 0, 0, 1, 0,0) ">
<use xlink:href="#iconTextOutdent_0_Layer0_0_FILL"/>
</g>
</g>
</symbol><symbol id="icon-textphoto" viewBox="0 0 32 32">


<g transform="matrix( 1, 0, 0, 1, 0,0) ">
<g transform="matrix( 1, 0, 0, 1, 0,0) ">
<use xlink:href="#iconTextPhoto_0_Layer1_0_FILL"/>
</g>

<g transform="matrix( 1, 0, 0, 1, 0,0) ">
<use xlink:href="#iconTextPhoto_0_Layer0_0_FILL"/>
</g>
</g>
</symbol><symbol id="icon-textright" viewBox="0 0 32 32">


<g transform="matrix( 1, 0, 0, 1, 0,0) ">
<g transform="matrix( 1, 0, 0, 1, 0,0) ">
<use xlink:href="#iconTextRight_0_Layer1_0_FILL"/>
</g>

<g transform="matrix( 1, 0, 0, 1, 0,0) ">
<use xlink:href="#iconTextRight_0_Layer0_0_FILL"/>
</g>
</g>
</symbol><symbol id="icon-textsource" viewBox="0 0 32 32">


<g transform="matrix( 1, 0, 0, 1, 0,0) ">
<g transform="matrix( 1, 0, 0, 1, 0,0) ">
<use xlink:href="#iconTextSource_0_Layer1_0_FILL"/>
</g>

<g transform="matrix( 1, 0, 0, 1, 0,0) ">
<use xlink:href="#iconTextSource_0_Layer0_0_FILL"/>
</g>
</g>
</symbol><symbol id="icon-textstrikethru" viewBox="0 0 32 32">


<g transform="matrix( 1, 0, 0, 1, 0,0) ">
<g transform="matrix( 1, 0, 0, 1, 0,0) ">
<use xlink:href="#iconTextStrikeThru_0_Layer1_0_FILL"/>
</g>

<g transform="matrix( 1, 0, 0, 1, 0,0) ">
<use xlink:href="#iconTextStrikeThru_0_Layer0_0_FILL"/>
</g>
</g>
</symbol><symbol id="icon-texttable" viewBox="0 0 32 32">


<g transform="matrix( 1, 0, 0, 1, 0,0) ">
<g transform="matrix( 1, 0, 0, 1, 0,0) ">
<use xlink:href="#iconTextTable_0_Layer2_0_FILL"/>
</g>

<g transform="matrix( 1, 0, 0, 1, 0,0) ">
<use xlink:href="#iconTextTable_0_Layer1_0_FILL"/>
</g>

<g transform="matrix( 1, 0, 0, 1, 0,0) ">
<use xlink:href="#iconTextTable_0_Layer0_0_FILL"/>
</g>
</g>
</symbol><symbol id="icon-textunderline" viewBox="0 0 32 32">


<g transform="matrix( 1, 0, 0, 1, 0,0) ">
<g transform="matrix( 1, 0, 0, 1, 0,0) ">
<use xlink:href="#iconTextUnderline_0_Layer1_0_FILL"/>
</g>

<g transform="matrix( 1, 0, 0, 1, 0,0) ">
<use xlink:href="#iconTextUnderline_0_Layer0_0_FILL"/>
</g>
</g>
</symbol><symbol id="icon-upload" viewBox="0 0 25 25">


<g transform="matrix( 1, 0, 0, 1, 0,0) ">
<g transform="matrix( 1, 0, 0, 1, 0,0) ">
<use xlink:href="#iconUpload_0_Layer1_0_FILL"/>
</g>

<g transform="matrix( 1, 0, 0, 1, 0,0) ">
<use xlink:href="#iconUpload_0_Layer0_0_FILL"/>
</g>
</g>
</symbol><symbol id="icon-windowleftside" viewBox="0 0 14 14">


<g transform="matrix( 1, 0, 0, 1, 0,0) ">
<g transform="matrix( 1, 0, 0, 1, 0,0) ">
<use xlink:href="#iconWindowLeftSide_0_Layer0_0_FILL"/>
</g>
</g>
</symbol><symbol id="icon-windowmaximize" viewBox="0 0 14 14">


<g transform="matrix( 1, 0, 0, 1, 0,0) ">
<g transform="matrix( 1, 0, 0, 1, 0,0) ">
<use xlink:href="#iconWindowMaximize_0_Layer0_0_FILL"/>
</g>
</g>
</symbol><symbol id="icon-windowminimize" viewBox="0 0 14 14">


<g transform="matrix( 1, 0, 0, 1, 0,0) ">
<g transform="matrix( 1, 0, 0, 1, 0,0) ">
<use xlink:href="#iconWindowMinimize_0_Layer1_0_FILL"/>
</g>

<g transform="matrix( 1, 0, 0, 1, 0,0) ">
<use xlink:href="#iconWindowMinimize_0_Layer0_0_FILL"/>
</g>
</g>
</symbol><symbol id="icon-windowrightside" viewBox="0 0 14 14">


<g transform="matrix( 1, 0, 0, 1, 0,0) ">
<g transform="matrix( 1, 0, 0, 1, 0,0) ">
<use xlink:href="#iconWindowRightSide_0_Layer1_0_FILL"/>
</g>

<g transform="matrix( 1, 0, 0, 1, 0,0) ">
<use xlink:href="#iconWindowRightSide_0_Layer0_0_FILL"/>
</g>
</g>
</symbol></svg>